<svg id="Layer_1" data-name="Layer 1" xmlns="http://www.w3.org/2000/svg" xmlns:xlink="http://www.w3.org/1999/xlink" viewBox="0 0 85.69 105.97"><defs><style>.cls-1{fill:none;}.cls-2{clip-path:url(#clip-path);}.cls-3{fill:#1d3f1d;}.cls-4{clip-path:url(#clip-path-2);}.cls-5{clip-path:url(#clip-path-3);}.cls-6{clip-path:url(#clip-path-4);}.cls-7{clip-path:url(#clip-path-5);}.cls-8{fill:#fff;}.cls-9{fill:#74ab42;}</style><clipPath id="clip-path" transform="translate(-7.24 -6.27)"><rect class="cls-1" x="7.03" y="6.22" width="82.8" height="87.68"/></clipPath><clipPath id="clip-path-2" transform="translate(-7.24 -6.27)"><rect class="cls-1" x="19.84" y="10.95" width="73.13" height="78.06"/></clipPath><clipPath id="clip-path-3" transform="translate(-7.24 -6.27)"><rect class="cls-1" x="18.21" y="29.54" width="63.45" height="37.2"/></clipPath><clipPath id="clip-path-4" transform="translate(-7.24 -6.27)"><rect class="cls-1" x="24.74" y="71.98" width="55.7" height="40.27"/></clipPath><clipPath id="clip-path-5" transform="translate(-7.24 -6.27)"><polygon class="cls-1" points="52.55 71.98 56.65 76.31 62.63 73.35 64.31 78.47 71.35 77.28 70.37 82.5 77.54 83.23 74.03 87.84 80.35 90.41 74.79 93.78 79.4 97.84 72.54 99.53 74.83 104.52 67.59 104.29 67.24 109.55 60.61 107.43 57.67 112.24 52.55 108.53 47.42 112.24 44.48 107.43 37.85 109.55 37.5 104.29 30.26 104.52 32.55 99.53 25.69 97.84 30.3 93.78 24.74 90.41 31.06 87.84 27.55 83.23 34.72 82.5 33.74 77.28 40.79 78.47 42.46 73.35 48.44 76.31 52.55 71.98"/></clipPath></defs><g class="cls-2"><path class="cls-3" d="M51,94a43.86,43.86,0,1,1,38.47-65.1,41.22,41.22,0,1,0,0,42.44A43.9,43.9,0,0,1,51,94" transform="translate(-7.24 -6.27)"/></g><g class="cls-4"><path class="cls-3" d="M54,89A39,39,0,0,1,19.86,68.8a36.29,36.29,0,1,0,0-37.38A38.92,38.92,0,1,1,54,89" transform="translate(-7.24 -6.27)"/></g><g class="cls-5"><path class="cls-3" d="M78.91,66.46h2.84v.37H71.36v-.37h3.22L67.83,49.15A24.19,24.19,0,0,0,60,53.28,24.54,24.54,0,0,0,53,62.49c-.38,2,.26,4,2,4h1.83v.37H48.34v-.37h1.23c1.44,0,2.57-2.63,3.43-5A24.57,24.57,0,0,1,67.71,48.83L62.58,35.72l2-6.14s1.66,4.55,2,5.45ZM51.73,61.39l.12-.32,0-.06,0-.07a26.56,26.56,0,0,1,4.11-6V30h3.27v-.38H51.57L41.24,62.46,29.72,29.58H21.86V30h3.21V48.79C21,50,18.22,53.07,18.22,57.47a9.37,9.37,0,0,0,5.08,8.72c.17.11.11.27-.16.27H21.86v.37H29.3v-.37H25.87c-4.28,0-7.28-4.71-7.28-9a8.38,8.38,0,0,1,2.62-6.16c2.95-2.73,6.86-2.84,10.65-2.84L38.4,66.83h1.82L51.73,30.27ZM25.55,48.64V30.7l6.21,17.4a26.88,26.88,0,0,0-6.21.53Z" transform="translate(-7.24 -6.27)"/></g><g class="cls-6"><g class="cls-7"><path class="cls-8" d="M24.74,72H80.31v40.27H24.74Z" transform="translate(-7.24 -6.27)"/></g></g><path class="cls-9" d="M46.78,65.14a2.15,2.15,0,0,0-.42.79,4.12,4.12,0,0,1-.37.83,3.13,3.13,0,0,0-.33,1,12.74,12.74,0,0,1-.63,2.8,2.51,2.51,0,0,0-.17.89c0,.35-.07,1.11-.15,1.66-.16,1.46-.28,2.6-.28,3.23l0,.55-.54-.64a2.33,2.33,0,0,1-.55-1,.51.51,0,0,0-.29-.44A2.77,2.77,0,0,1,42.09,73a.41.41,0,0,0-.17-.46,3.71,3.71,0,0,1-.51-2.16.51.51,0,0,0-.09-.48,3.28,3.28,0,0,1-.32-1c-.07-.44-.22-.77-.37-.77-.57,0-1.73,3.67-1.75,5.63,0,.85-.06,1-.2.77a.73.73,0,0,0-.56-.31,2.57,2.57,0,0,1-1.58-.8.8.8,0,0,0-.67-.25,4.49,4.49,0,0,1-2.1-.46,1,1,0,0,0-.64-.08A28,28,0,0,1,29.6,73a1.37,1.37,0,0,0-.83.24,2.71,2.71,0,0,1-.92.52c-.43.18-.78.4-.78.53s.35.35.79.54c1.3.53,3.6,2.49,5.73,4.87A26.12,26.12,0,0,0,39,84.79c.45.24.81.48.81.56s-.55.22-1.15.16a1.49,1.49,0,0,0-.74.22,5.85,5.85,0,0,1-2.68.8.62.62,0,0,0-.57.13c-.36.31-1.07.46-3.25.61a19.05,19.05,0,0,1-4.14,0l-1.89-.11.11.49c.28,1.16,1.91,3,3.57,4.08a11.24,11.24,0,0,0,5,1.63c4.49.6,9.06-.48,15-3.55l2.31-1.2,1.19.7A19.57,19.57,0,0,0,65.1,91.68a16.36,16.36,0,0,0,10.37-5.85c1-1.46.85-1.73-.61-1a5,5,0,0,1-1.77.55,1.18,1.18,0,0,0-.74.15,5.53,5.53,0,0,1-2.77,0c0-.12-.31-.15-.53-.1a5,5,0,0,1-2.69-.55.63.63,0,0,0-.6-.15,5.18,5.18,0,0,1-2.5-.75,1.25,1.25,0,0,0-1-.15,1.94,1.94,0,0,1-.72,0,4.62,4.62,0,0,1,1-.74,25.08,25.08,0,0,0,7.35-8.51c.85-1.7,1-2.08,1-3.12s0-1.15-.35-1.21-.5.14-.81.7a3.32,3.32,0,0,1-.87,1c-.24.17-.44.39-.44.48,0,.42-1.73,1.55-2.27,1.44a.44.44,0,0,0-.42.26,4.23,4.23,0,0,1-2.31,1.09c-.1,0-.43.11-.74.39s-.63.44-.68.39a7.42,7.42,0,0,1,1.45-2.29c.23-.24.34-.5.25-.59a4.82,4.82,0,0,0-2.46.52,5.41,5.41,0,0,1-2,1,.39.39,0,0,0-.37.25,5,5,0,0,1-1.85,1.31c-.13,0-.38.21-.6.47-.36.42-.38.42-.39.09s.24-1.54.53-3a20.9,20.9,0,0,1,1.57-5.12c.29-.67.29-.69-.07-.69a3.54,3.54,0,0,0-1.11.37,3.4,3.4,0,0,1-1,.37.44.44,0,0,0-.38.32,4.16,4.16,0,0,1-1,1.07,4.36,4.36,0,0,0-.91.86,7.16,7.16,0,0,1-1.32,1.81,3.6,3.6,0,0,0-.65,1A3.32,3.32,0,0,1,50.84,75a.64.64,0,0,0-.34.5,2.73,2.73,0,0,1-.25.78l-.26.46L49.86,76a10.89,10.89,0,0,0-.22-1.11,12.38,12.38,0,0,1-.24-1.29A28.3,28.3,0,0,0,48.5,70a1.08,1.08,0,0,1-.11-.59s0-.27-.11-.49a6.27,6.27,0,0,1-.37-1.26l-.29-1.42-.2-1C47.36,64.75,47.15,64.73,46.78,65.14Zm1.49,5.63c.22.77.63,2.53.92,3.91.42,2.09.48,2.55.26,2.71a.77.77,0,0,0-.24.54,3.63,3.63,0,0,1-.81,1.83.46.46,0,0,0-.19.46,1.5,1.5,0,0,1-.17.86l-.25.63-.15-.54a3.65,3.65,0,0,0-.86-1.23,3.15,3.15,0,0,1-.72-.91,2.83,2.83,0,0,0-.65-.85A1.59,1.59,0,0,1,44.77,77c0-.92.51-5,.83-6.76a31.45,31.45,0,0,1,1.34-4.72,6,6,0,0,1,.52,1.85c.23,1.1.58,2.67.79,3.46Zm8.78-1.26a3.31,3.31,0,0,1-.83,1c-.09,0-.18.2-.18.46A3.81,3.81,0,0,1,55.17,73a.83.83,0,0,0-.22.46,3.86,3.86,0,0,1-.48,1.65,3.69,3.69,0,0,0-.33,1.07,7.69,7.69,0,0,1-.46,1.48,6,6,0,0,0-.48,1.44,3.23,3.23,0,0,1-.48,1.15,1.59,1.59,0,0,0-.37.76,5.3,5.3,0,0,1-1,2,.58.58,0,0,0-.24.41c-.05.42-1,1.58-1.31,1.58a.45.45,0,0,0-.35.29,5.61,5.61,0,0,1-.72.89l-.61.6-.57-.48a1.79,1.79,0,0,1-.58-.7.24.24,0,0,0-.24-.22h0a3,3,0,0,1-1.6-1.42c-.1-.22-.26-.42-.39-.42-.29,0-1.26-1.35-1.26-1.73a.5.5,0,0,0-.29-.43,3.11,3.11,0,0,1-1-2,1,1,0,0,0-.29-.69,4.56,4.56,0,0,1-.72-2.49.37.37,0,0,0-.11-.48c-.21-.11-.26-.79-.29-3.06l0-2.92.42,1.92c.56,2.36,1,3.17,3.77,6.72,1.2,1.55,2.29,3,2.44,3.27a9.39,9.39,0,0,1,.46,1.75l.22,1.29,0-1.15c.07-3.93,5.51-13.09,8.78-14.77a2.46,2.46,0,0,1,.79-.31,5.09,5.09,0,0,1-.59,1.07ZM40.32,71.1a17.68,17.68,0,0,0,2.74,11.13c.81,1.22,1.47,1.9,4,4.26,1.31,1.2,1.25,1.51-.24,1.22-2.56-.48-4.43-2.38-6-6.09a16,16,0,0,1-1.51-7.1,10.49,10.49,0,0,1,.31-3.46c.42-1.39.68-2,.76-2a19.38,19.38,0,0,1-.09,2Zm16.46.33c-.2.61-.57,2.33-.84,3.75a24.87,24.87,0,0,1-2.76,8.33c-1.27,2.16-2.12,3.14-3.32,3.82s-1.4.68-1.4.13c0-.26.41-.81,1.13-1.52a17.16,17.16,0,0,0,1.75-2.06,30.66,30.66,0,0,0,2.75-6.43c.86-2.8,2.75-7.45,3-7.24a5.4,5.4,0,0,1-.27,1.24Zm13.82.48a22,22,0,0,1-2.8,5.43,33.08,33.08,0,0,1-5.22,5.16,19.89,19.89,0,0,1-5.15,2.55l-.55.13.4-.52A7.3,7.3,0,0,1,59,83.41a31.13,31.13,0,0,0,8.85-7.71,20.38,20.38,0,0,0,2.16-4.29,1.93,1.93,0,0,1,.2-.71c.21-.37.22-.37.41-.06a1.82,1.82,0,0,1,0,1.28Zm-1.53.82a1,1,0,0,0-.31.57,5.84,5.84,0,0,1-1.24,1.92.6.6,0,0,0-.24.45,7.06,7.06,0,0,1-2.14,2.45.53.53,0,0,0-.41.33,5.87,5.87,0,0,1-2.12,1.86c-.28.11-.49.29-.49.43a5.18,5.18,0,0,1-2.38,1.62c-.23,0-.39.11-.39.24s-.24.39-.55.56-.56.28-.56.24a8,8,0,0,1,.59-1.21c.52-1,.61-1,.83-.79s.22.21.13-.42A1.49,1.49,0,0,1,60,79.87c.28-.35.28-.33.55.28s.29.55.29.26a3.08,3.08,0,0,0-.18-1c-.17-.48-.12-.7.31-1.53a4.73,4.73,0,0,1,.79-1.22c.17-.11,1.24-.61,2.38-1.09,2.14-.88,4.49-2.36,4.84-3,.13-.21.26-.34.31-.29s0,.29-.17.46ZM35.82,73.88a9.92,9.92,0,0,1,2,1l.92.57L39,76.91a3.57,3.57,0,0,1,0,2.18c-.35.9-.34,1.53,0,.7a1.55,1.55,0,0,1,.33-.55,22.4,22.4,0,0,1,1.38,3.85,3.16,3.16,0,0,1-.77-.64,3.08,3.08,0,0,0-.79-.65,4.89,4.89,0,0,1-1.56-1.47c0-.1-.18-.26-.4-.39a4.23,4.23,0,0,1-1.63-1.57c0-.13-.28-.39-.66-.56a3.5,3.5,0,0,1-1.15-.94c-.29-.33-.61-.6-.74-.6A4.78,4.78,0,0,1,31.1,75c0-.11-.19-.18-.41-.18a7.25,7.25,0,0,1-1.44-.37l-1-.34.53-.2a13.1,13.1,0,0,1,7,0Zm26.64-.12s-.42.38-.86.75A5.67,5.67,0,0,0,60.33,76a6.52,6.52,0,0,1-.78,1.25,5.85,5.85,0,0,0-.53.86,5.3,5.3,0,0,1-.83,1.21,4.38,4.38,0,0,0-.71.94A16.62,16.62,0,0,1,53.88,84c-.12,0-.27.17-.34.36s-.65.71-.65.47c0,0,.29-.55.65-1.15s.64-1,.64-.85a.22.22,0,0,0,.19.24c.13,0,.13-.11,0-.37a.7.7,0,0,1,0-.76c.2-.36.22-.36.46,0s.37,0,.09-.5a.87.87,0,0,1,0-.83l.22-.48.29.52c.35.68.48.26.15-.54a1.74,1.74,0,0,1,0-1.49c.22-.76.42-1,1.86-2.07a26.46,26.46,0,0,1,4.9-2.86c.09,0,.14,0,.09.09Zm-.32,1.1a71.49,71.49,0,0,0-3.36,6.46,18.89,18.89,0,0,1-3.5,5.05A8.68,8.68,0,0,1,50,88.05c-.52-.06-.52-.06.31-.59a9.64,9.64,0,0,0,1.37-1.09,18.71,18.71,0,0,1,1.88-1.44c1.73-1.16,3.69-3.42,5.94-6.81,1.57-2.36,2.86-4.06,3.1-4.06a3.37,3.37,0,0,1-.47.8Zm-32.07.38a23.58,23.58,0,0,1,5.81,4.39c2.73,2.62,3.65,3.36,4.65,3.8a2.77,2.77,0,0,1,1.25,1.12l.44.78h-.58c-1.45,0-4.2-2.09-7.34-5.59a28.82,28.82,0,0,0-5.13-4.69c-.58-.38-.14-.26.9.19ZM64.54,85c4.91,1.35,7.18,1.55,9.14.83.22-.09.11.08-.29.42a2.32,2.32,0,0,1-1,.58c-.19,0-.33.08-.33.17a4.9,4.9,0,0,1-1.92,1.12,3.48,3.48,0,0,0-.94.37,5.44,5.44,0,0,1-1.37.48,5.53,5.53,0,0,0-1.31.41,4.18,4.18,0,0,1-1.6.27,1.87,1.87,0,0,0-1,.15c0,.26-2.29.2-2.55,0s-.31-.19-.55,0a4.29,4.29,0,0,1-2.9-.59.38.38,0,0,0-.44-.19,3.45,3.45,0,0,1-2.18-.73c0-.15-.33-.26-.61-.26-.7,0-.83-.26-.29-.52a6.07,6.07,0,0,0,1.16-.85,4,4,0,0,1,1.23-.77l.52-.13-.45.72c-.76,1.2-.8,1.29-.35.9a5.35,5.35,0,0,0,.86-1.13c.43-.7,1.42-1.38,1.66-1.12a4.07,4.07,0,0,1-.57,1.33,3.67,3.67,0,0,0-.58,1.33A9.1,9.1,0,0,0,59.66,85a2.28,2.28,0,0,1,1.36-1C61.08,84,62.65,84.46,64.54,85Zm10.72.61c-1.58,2.31-5.19,4.6-8.6,5.48a13.28,13.28,0,0,1-4.32.42,16.25,16.25,0,0,1-8.49-2l-2.31-1.13,1-.24c.92-.23,1-.22,2.31.34a19.63,19.63,0,0,0,7.78,1.82,20.25,20.25,0,0,0,11.94-4.52c.65-.55,1.18-1,1.22-1a5,5,0,0,1-.52.81Zm-31.79,1a6.59,6.59,0,0,0,3.27,1.61l.92.13-.55.22a1.44,1.44,0,0,1-.82.13.46.46,0,0,0-.47.2,3,3,0,0,1-2.07.74.41.41,0,0,0-.5.17,4.73,4.73,0,0,1-2.33.88c-.45.09-1.19.26-1.65.37a4.73,4.73,0,0,1-1.5.09c-.41-.07-.74,0-.81.08a5.71,5.71,0,0,1-2.73.07,3.68,3.68,0,0,0-1-.15,5.49,5.49,0,0,1-1.69-.4c-.45-.21-1.11-.48-1.45-.63-.86-.31-2-1-2-1.27s-.18-.19-.42-.19a1.77,1.77,0,0,1-1-.58c-.42-.44-.46-.53-.16-.42a19,19,0,0,0,2.62.24,21.88,21.88,0,0,0,7.74-1.11,14.35,14.35,0,0,1,4.62-.86,2.1,2.1,0,0,1,2,.68Zm6.46,1.87h.68l-1.19.66a56.35,56.35,0,0,1-6.59,2.95,22,22,0,0,1-3.22.72c-5.2.74-9.08-.12-11.78-2.61-1.58-1.46-1.79-1.94-.42-1a18.18,18.18,0,0,0,5.07,2.34,25.41,25.41,0,0,0,7.29,0A39,39,0,0,0,47,89.12,8.51,8.51,0,0,1,49,88.38a4.67,4.67,0,0,0,.91.08Z" transform="translate(-7.24 -6.27)"/><path class="cls-9" d="M46.17,68.89c-.07.11.15.18.54.18s.66-.09.66-.18-.24-.18-.53-.18A1.05,1.05,0,0,0,46.17,68.89Z" transform="translate(-7.24 -6.27)"/><path class="cls-9" d="M46.54,70c-.08.11.11.18.44.18a1,1,0,0,0,.66-.18c.08-.12-.11-.19-.44-.19S46.6,69.89,46.54,70Z" transform="translate(-7.24 -6.27)"/><path class="cls-9" d="M46,71.49c-.13.2.46.2,1.29,0,.5-.13.46-.15-.31-.17C46.49,71.32,46,71.37,46,71.49Z" transform="translate(-7.24 -6.27)"/><path class="cls-9" d="M45.62,73c-.15.22.77.22,1.29,0,.29-.13.2-.17-.41-.17C46.09,72.78,45.67,72.84,45.62,73Z" transform="translate(-7.24 -6.27)"/><path class="cls-9" d="M47.8,72.9a1.28,1.28,0,0,0,.55,0c.11-.05,0-.09-.33-.09S47.61,72.84,47.8,72.9Z" transform="translate(-7.24 -6.27)"/><path class="cls-9" d="M46.54,74.25c-.08.11.24.18.81.18s.94-.09.94-.18-.37-.19-.81-.19S46.6,74.14,46.54,74.25Z" transform="translate(-7.24 -6.27)"/><path class="cls-9" d="M45.62,75.72c-.26.12-.07.17.7.17s1,0,1-.17S46.14,75.51,45.62,75.72Z" transform="translate(-7.24 -6.27)"/><path class="cls-9" d="M47.93,75.72c0,.1.2.19.45.19s.47-.09.47-.19-.21-.18-.47-.18S47.93,75.62,47.93,75.72Z" transform="translate(-7.24 -6.27)"/><path class="cls-9" d="M45.9,77.39c-.35.22.62.22,1.84,0,.83-.14.83-.16-.37-.18A4.32,4.32,0,0,0,45.9,77.39Z" transform="translate(-7.24 -6.27)"/><path class="cls-9" d="M47,78.68c-.2.13,0,.18.61.18s.85-.07.77-.18S47.37,78.44,47,78.68Z" transform="translate(-7.24 -6.27)"/><path class="cls-9" d="M55.12,70.73a.67.67,0,0,0,.32.4c.28.24.28.22.07-.17S55.12,70.45,55.12,70.73Z" transform="translate(-7.24 -6.27)"/><path class="cls-9" d="M54.68,71.89c.18.33.35.51.39.38s-.29-1-.52-1S54.51,71.58,54.68,71.89Z" transform="translate(-7.24 -6.27)"/><path class="cls-9" d="M53.85,72.31c0,.34.51,1.13.53.81a1.53,1.53,0,0,0-.28-.64C54,72.29,53.85,72.2,53.85,72.31Z" transform="translate(-7.24 -6.27)"/><path class="cls-9" d="M53.46,74.08c.22.43.44.72.48.67s-.52-1.42-.7-1.42S53.26,73.66,53.46,74.08Z" transform="translate(-7.24 -6.27)"/><path class="cls-9" d="M41.43,74.37a1,1,0,0,0-.15.61c0,.43,0,.44.21.15S41.65,74.14,41.43,74.37Z" transform="translate(-7.24 -6.27)"/><path class="cls-9" d="M52.35,74.49a5,5,0,0,0,.85,1.73c.17-.15-.29-1.36-.58-1.61S52.35,74.43,52.35,74.49Z" transform="translate(-7.24 -6.27)"/><path class="cls-9" d="M42.15,76c-.26.92-.31,1.55-.15,1.64s.24-.24.29-.7C42.45,76,42.34,75.39,42.15,76Z" transform="translate(-7.24 -6.27)"/><path class="cls-9" d="M51.73,76.59c.16.38.36,1,.48,1.29s.22.61.28.61-.09-1.24-.4-1.92C51.65,75.69,51.34,75.72,51.73,76.59Z" transform="translate(-7.24 -6.27)"/><path class="cls-9" d="M43.09,77.5a2.63,2.63,0,0,0-.15,1.15c0,.79.06,1,.2.7S43.29,77.28,43.09,77.5Z" transform="translate(-7.24 -6.27)"/><path class="cls-9" d="M50.7,77.54a12.08,12.08,0,0,0,.76,3.08c.31.29,0-1.73-.41-2.59C50.88,77.63,50.7,77.4,50.7,77.54Z" transform="translate(-7.24 -6.27)"/><path class="cls-9" d="M44.2,79.49c-.2,1.29-.19,1.7,0,1.46a2.84,2.84,0,0,0,.13-1.28l-.05-1.09Z" transform="translate(-7.24 -6.27)"/><path class="cls-9" d="M49.84,79.51c0,.2.2,1,.31,1.7s.29,1.34.4,1.34c.36,0-.2-2.8-.62-3.22C49.79,79.18,49.77,79.27,49.84,79.51Z" transform="translate(-7.24 -6.27)"/><path class="cls-9" d="M45.36,81.26l0,1.2.17-.91a2.81,2.81,0,0,0,0-1.19C45.42,80.15,45.36,80.45,45.36,81.26Z" transform="translate(-7.24 -6.27)"/><path class="cls-9" d="M49.13,82.46c.19,1.57.5,2,.35.46a4.66,4.66,0,0,0-.29-1.38C49.1,81.44,49,81.72,49.13,82.46Z" transform="translate(-7.24 -6.27)"/><path class="cls-9" d="M46.58,81.94a4.31,4.31,0,0,0,.05,2.27c.11,0,.19-.51.19-1.2C46.82,81.81,46.8,81.7,46.58,81.94Z" transform="translate(-7.24 -6.27)"/><path class="cls-9" d="M39.74,73.1a.49.49,0,0,0,.09.41c.13.22.17.19.17-.15S39.9,72.84,39.74,73.1Z" transform="translate(-7.24 -6.27)"/><path class="cls-9" d="M39.66,75.17c0,.26,0,.35.09.22a.9.9,0,0,0,0-.46C39.7,74.82,39.66,74.91,39.66,75.17Z" transform="translate(-7.24 -6.27)"/><path class="cls-9" d="M40.19,76.78c0,.24.09.42.19.42s.23-.2,0-.55S40.19,76.44,40.19,76.78Z" transform="translate(-7.24 -6.27)"/><path class="cls-9" d="M40.19,78.44a.72.72,0,0,0,.19.52c.23.14.23-.29,0-.65S40.19,78.12,40.19,78.44Z" transform="translate(-7.24 -6.27)"/><path class="cls-9" d="M41.1,80.14a.43.43,0,0,0,.18.29c.11,0,.19,0,.19-.08a.37.37,0,0,0-.19-.28C41.18,80,41.1,80,41.1,80.14Z" transform="translate(-7.24 -6.27)"/><path class="cls-9" d="M41.47,81.94a1.28,1.28,0,0,0,.19.43c.15.24.18.24.18,0a.51.51,0,0,0-.18-.42C41.56,81.85,41.47,81.85,41.47,81.94Z" transform="translate(-7.24 -6.27)"/><path class="cls-9" d="M42.94,83.38c.13.17.29.24.32.21s-.13-.48-.35-.48S42.79,83.22,42.94,83.38Z" transform="translate(-7.24 -6.27)"/><path class="cls-9" d="M43.13,84.53c0,.24.53.7.64.58s-.07-.24-.29-.43S43.13,84.44,43.13,84.53Z" transform="translate(-7.24 -6.27)"/><path class="cls-9" d="M44.79,85.41a.76.76,0,0,0,.41.29c.1,0,.08-.13,0-.29a.74.74,0,0,0-.41-.28C44.64,85.14,44.66,85.26,44.79,85.41Z" transform="translate(-7.24 -6.27)"/><path class="cls-9" d="M45.53,86.8c.37.24.61.24.46,0a.5.5,0,0,0-.43-.19C45.28,86.61,45.28,86.65,45.53,86.8Z" transform="translate(-7.24 -6.27)"/><path class="cls-9" d="M55.53,74.62c0,.26,0,.35.09.22a.9.9,0,0,0,0-.46C55.56,74.28,55.53,74.37,55.53,74.62Z" transform="translate(-7.24 -6.27)"/><path class="cls-9" d="M55.07,75.85a.56.56,0,0,0-.13.41c0,.24.05.24.2,0S55.29,75.62,55.07,75.85Z" transform="translate(-7.24 -6.27)"/><path class="cls-9" d="M54.88,77.7a.48.48,0,0,0-.13.31c0,.12.1.1.23,0s.16-.26.12-.32a.15.15,0,0,0-.21,0h0Z" transform="translate(-7.24 -6.27)"/><path class="cls-9" d="M54.05,79.05c0,.26,0,.35.09.22a.9.9,0,0,0,0-.46C54.09,78.7,54.05,78.79,54.05,79.05Z" transform="translate(-7.24 -6.27)"/><path class="cls-9" d="M54,80.82c0,.2.06.26.12.11a.39.39,0,0,0,0-.35C54.07,80.5,54,80.63,54,80.82Z" transform="translate(-7.24 -6.27)"/><path class="cls-9" d="M53,81.58a.42.42,0,0,0-.13.32c0,.1.09.08.22,0s.16-.26.13-.32a.16.16,0,0,0-.22,0Z" transform="translate(-7.24 -6.27)"/><path class="cls-9" d="M52.72,83.38c-.13.17-.15.29,0,.29s.22-.13.29-.29.07-.29,0-.29A1.14,1.14,0,0,0,52.72,83.38Z" transform="translate(-7.24 -6.27)"/><path class="cls-9" d="M51.57,84.34a.44.44,0,0,0-.13.32c0,.12.09.1.22,0s.17-.26.13-.32a.16.16,0,0,0-.22,0h0Z" transform="translate(-7.24 -6.27)"/><path class="cls-9" d="M50.7,85.41c-.15.17-.15.29,0,.29s.48-.35.36-.48S50.82,85.24,50.7,85.41Z" transform="translate(-7.24 -6.27)"/><path class="cls-9" d="M49.84,86.7c-.19.15-.26.29-.15.29a1.33,1.33,0,0,0,.55-.29c.19-.14.26-.27.15-.27A1.42,1.42,0,0,0,49.84,86.7Z" transform="translate(-7.24 -6.27)"/><path class="cls-9" d="M67.3,74.51a.54.54,0,0,0,.19.39c.11,0,.18,0,.18-.17a.46.46,0,0,0-.18-.39C67.39,74.28,67.3,74.37,67.3,74.51Z" transform="translate(-7.24 -6.27)"/><path class="cls-9" d="M66.41,75.36c.24.37.52.49.52.22a.93.93,0,0,0-.57-.59C66.25,75,66.27,75.15,66.41,75.36Z" transform="translate(-7.24 -6.27)"/><path class="cls-9" d="M65.09,75.67a1.79,1.79,0,0,0,.36.61c.29.35.37.39.37.15a.91.91,0,0,0-.28-.58C65.21,75.51,65.09,75.47,65.09,75.67Z" transform="translate(-7.24 -6.27)"/><path class="cls-9" d="M63.88,76.5a4.29,4.29,0,0,0,.43.89c.42.68.54.09.13-.69S63.7,75.87,63.88,76.5Z" transform="translate(-7.24 -6.27)"/><path class="cls-9" d="M62.5,77.11a3.66,3.66,0,0,0,.76,1.75c.29,0,.18-.52-.2-1.29S62.5,76.68,62.5,77.11Z" transform="translate(-7.24 -6.27)"/><path class="cls-9" d="M61.39,78.22a3.75,3.75,0,0,0,.32,1c.26.57.31.62.37.28a1.91,1.91,0,0,0-.22-1C61.53,77.89,61.39,77.79,61.39,78.22Z" transform="translate(-7.24 -6.27)"/><path class="cls-9" d="M32.63,74.05c-.33.33-.55,1.12-.32,1.12a3.47,3.47,0,0,0,.8-1.4C33,73.67,32.82,73.85,32.63,74.05Z" transform="translate(-7.24 -6.27)"/><path class="cls-9" d="M34.71,74.47c-.44.48-.83,1.35-.66,1.51s1.2-1.53,1.12-1.77C35.13,74.12,34.92,74.23,34.71,74.47Z" transform="translate(-7.24 -6.27)"/><path class="cls-9" d="M36.54,75.39a3.8,3.8,0,0,0-.94,1.85c0,.11.42-.35.85-1C37.2,75,37.26,74.62,36.54,75.39Z" transform="translate(-7.24 -6.27)"/><path class="cls-9" d="M38,76.82a5.36,5.36,0,0,0-.92,2c.11.11.37-.26,1-1.48S38.68,75.89,38,76.82Z" transform="translate(-7.24 -6.27)"/><path class="cls-9" d="M59.73,75.43a1.14,1.14,0,0,0,.29.29c.24.21.26.19.17-.07S59.73,75.24,59.73,75.43Z" transform="translate(-7.24 -6.27)"/><path class="cls-9" d="M59,76.06a1.28,1.28,0,0,0,.28.51c.29.36.38.15.17-.37C59.33,75.89,59,75.81,59,76.06Z" transform="translate(-7.24 -6.27)"/><path class="cls-9" d="M58.09,76.65a1.59,1.59,0,0,0,.35.74c.29.35.37.38.37.16a1.46,1.46,0,0,0-.37-.73C58.2,76.5,58.09,76.46,58.09,76.65Z" transform="translate(-7.24 -6.27)"/><path class="cls-9" d="M57,77.28a3.79,3.79,0,0,0,.29.77c.33.7.71.85.53.21C57.67,77.83,57,77,57,77.28Z" transform="translate(-7.24 -6.27)"/><path class="cls-9" d="M56.15,78.9a6.88,6.88,0,0,0,.41,1c.43.8.54.13.13-.74C56.34,78.41,56,78.26,56.15,78.9Z" transform="translate(-7.24 -6.27)"/><path class="cls-9" d="M60.51,86.56c-.85,1.68-.93,1.88-.48,1.51a6.51,6.51,0,0,0,1.31-2.71C61.3,85.17,61,85.67,60.51,86.56Z" transform="translate(-7.24 -6.27)"/><path class="cls-9" d="M62.54,86.89a8.2,8.2,0,0,0-.72,1.7c.26.24,1.68-2.53,1.57-3C63.35,85.41,63,86,62.54,86.89Z" transform="translate(-7.24 -6.27)"/><path class="cls-9" d="M64.57,87.07c-.65,1.52-.74,1.87-.31,1.26a11.41,11.41,0,0,0,1.19-2.43C65.45,85.36,65.1,85.82,64.57,87.07Z" transform="translate(-7.24 -6.27)"/><path class="cls-9" d="M66.72,87c-.16.46-.35,1-.42,1.15s-.06.34.06.34.82-1.54.73-2C67,86.26,66.91,86.41,66.72,87Z" transform="translate(-7.24 -6.27)"/><path class="cls-9" d="M68.43,87.15a1.78,1.78,0,0,0-.13.88c.16.19.49-.72.44-1.2S68.65,86.43,68.43,87.15Z" transform="translate(-7.24 -6.27)"/><path class="cls-9" d="M69.83,87.06a1,1,0,0,0-.06.63c.15.15.33-.46.26-.83S69.92,86.68,69.83,87.06Z" transform="translate(-7.24 -6.27)"/><path class="cls-9" d="M70.94,87c-.06.2,0,.37.07.37s.16-.17.16-.37,0-.37-.07-.37S71,86.77,70.94,87Z" transform="translate(-7.24 -6.27)"/><path class="cls-9" d="M55,89.66c.5.39,1,.37.66,0a.92.92,0,0,0-.62-.28C54.66,89.4,54.66,89.4,55,89.66Z" transform="translate(-7.24 -6.27)"/><path class="cls-9" d="M67.19,90.23c-.33.29-.33.29.11.18a6,6,0,0,1,.61-.1c.07,0,.13-.1.13-.19C68,89.86,67.59,89.9,67.19,90.23Z" transform="translate(-7.24 -6.27)"/><path class="cls-9" d="M58.26,90.3a1.73,1.73,0,0,0,.74.19c.37,0,.4,0,.18-.19a1.59,1.59,0,0,0-.74-.18C58.07,90.12,58,90.14,58.26,90.3Z" transform="translate(-7.24 -6.27)"/><path class="cls-9" d="M62.4,91.23a.81.81,0,0,0,.58.18c.24,0,.44-.09.44-.18s-.26-.19-.58-.19S62.34,91.12,62.4,91.23Z" transform="translate(-7.24 -6.27)"/><path class="cls-9" d="M40.19,86.58a6.27,6.27,0,0,0,1.05,2.28c.83,1.2.85.76,0-.74S40.19,86.22,40.19,86.58Z" transform="translate(-7.24 -6.27)"/><path class="cls-9" d="M42.21,86.77a7.35,7.35,0,0,0,1.34,1.87c.54.42.36,0-.42-1S42.21,86.47,42.21,86.77Z" transform="translate(-7.24 -6.27)"/><path class="cls-9" d="M38.17,87.64a5.38,5.38,0,0,0,1.27,2.29c.25,0-.84-2.39-1.22-2.75C38,87,38,87,38.17,87.64Z" transform="translate(-7.24 -6.27)"/><path class="cls-9" d="M35.93,88.21c0,.72.94,2.35,1.2,2.09A12.25,12.25,0,0,0,36,88C36,87.91,35.93,88,35.93,88.21Z" transform="translate(-7.24 -6.27)"/><path class="cls-9" d="M33.9,88.64c0,.5.52,1.76.68,1.61a3.62,3.62,0,0,0-.51-1.9C34,88.29,33.9,88.41,33.9,88.64Z" transform="translate(-7.24 -6.27)"/><path class="cls-9" d="M30,89a1,1,0,0,0,.19.66c.12.08.19-.11.19-.44s-.07-.61-.19-.66S30,88.66,30,89Z" transform="translate(-7.24 -6.27)"/><path class="cls-9" d="M32,88.64a2.25,2.25,0,0,0,.42,1.55c.15.15.17,0,.08-.44C32.3,88.72,32.13,88.33,32,88.64Z" transform="translate(-7.24 -6.27)"/><path class="cls-9" d="M47.26,89.66c-.44.33-.13.35.48,0,.29-.17.35-.26.17-.28A1.4,1.4,0,0,0,47.26,89.66Z" transform="translate(-7.24 -6.27)"/><path class="cls-9" d="M45.16,90.21c-.29.17-.35.26-.17.29a1.42,1.42,0,0,0,.65-.29C46.09,89.88,45.77,89.86,45.16,90.21Z" transform="translate(-7.24 -6.27)"/><path class="cls-9" d="M29.84,91.19c0,.19.93.64,1.05.51s-.16-.22-.48-.38S29.84,91.1,29.84,91.19Z" transform="translate(-7.24 -6.27)"/><path class="cls-9" d="M43.33,91.34c-.33.14-.58.31-.53.35s1.25-.34,1.25-.5,0-.15,0-.13Z" transform="translate(-7.24 -6.27)"/><path class="cls-9" d="M40.93,91.61c-.24.09-.4.21-.37.26s.91-.13.91-.29,0-.16,0-.14Z" transform="translate(-7.24 -6.27)"/><path class="cls-9" d="M32.53,92.16c.5.22.65.22.65,0S33,92,32.68,92C32.21,92,32.19,92,32.53,92.16Z" transform="translate(-7.24 -6.27)"/><path class="cls-9" d="M36.39,92.33a.46.46,0,0,0,.65.09h0a.38.38,0,0,0,.09-.09c.07-.11-.09-.18-.37-.18S36.32,92.22,36.39,92.33Z" transform="translate(-7.24 -6.27)"/><path class="cls-9" d="M38.39,92.45a1.72,1.72,0,0,0,.64,0c.17,0,0-.09-.33-.09S38.2,92.41,38.39,92.45Z" transform="translate(-7.24 -6.27)"/><path class="cls-9" d="M34.71,92.65a1.69,1.69,0,0,0,.55,0c.11-.06,0-.1-.33-.1S34.51,92.59,34.71,92.65Z" transform="translate(-7.24 -6.27)"/></svg>