<svg id="Layer_1" data-name="Layer 1" xmlns="http://www.w3.org/2000/svg" xmlns:xlink="http://www.w3.org/1999/xlink" viewBox="0 0 448.97 341.41"><defs><style>.cls-1{fill:none;}.cls-2{clip-path:url(#clip-path);}.cls-3{fill:#003f00;}.cls-4{clip-path:url(#clip-path-2);}.cls-5{clip-path:url(#clip-path-3);}.cls-6{fill:#fff;}.cls-7{fill:#74ab1a;}</style><clipPath id="clip-path" transform="translate(-0.04 0)"><rect class="cls-1" x="66.07" y="-0.19" width="287.09" height="304"/></clipPath><clipPath id="clip-path-2" transform="translate(-0.04 0)"><rect class="cls-1" x="110.5" y="16.21" width="253.57" height="270.67"/></clipPath><clipPath id="clip-path-3" transform="translate(-0.04 0)"><rect class="cls-1" x="104.86" y="80.69" width="220" height="129"/></clipPath></defs><g class="cls-2"><path class="cls-3" d="M218.5,304.12A152.06,152.06,0,1,1,351.9,78.39a142.86,142.86,0,1,0,0,147.16,152.25,152.25,0,0,1-133.4,78.57" transform="translate(-0.04 0)"/></g><g class="cls-4"><path class="cls-3" d="M228.93,286.81a135.11,135.11,0,0,1-118.35-70,126,126,0,0,0,107.91,61c69.44,0,125.93-56.42,125.93-125.76S287.93,26.21,218.5,26.21a126,126,0,0,0-107.91,61,135.13,135.13,0,0,1,118.35-70c74.42,0,135,60.47,135,134.8s-60.55,134.8-135,134.8" transform="translate(-0.04 0)"/></g><g class="cls-5"><path class="cls-3" d="M315.3,208.69h9.84V210h-36v-1.3h11.14l-23.39-60A83.88,83.88,0,0,0,249.79,163c-14.3,11.33-22.83,27.11-24.5,31.93-1.3,7.05.92,13.74,6.87,13.74h6.34v1.29H209.31v-1.29h4.27c5,0,8.91-9.1,11.88-17.27a85.27,85.27,0,0,1,51-43.81l-17.77-45.45,7.05-21.31s5.76,15.77,7.06,18.92Zm-94.24-17.57.41-1.1.08-.24.11-.22a92.88,92.88,0,0,1,14.26-20.86V82.12h11.32V80.81H220.5l-35.82,114-39.92-114H117.5V82.1h11.14v65.34c-14.11,4.08-23.77,14.84-23.77,30.07,0,14.85,8.17,26,17.64,30.25.56.37.37.93-.56.93H117.5V210h25.8v-1.3H131.41c-14.85,0-25.25-16.33-25.25-31.18a29,29,0,0,1,9.1-21.34c10.2-9.47,23.76-9.84,36.93-9.84L174.84,210h6.31L221.06,83.22Zm-90.77-44.2V84.7L151.83,145c-7.43,0-14.33.18-21.54,1.85Z" transform="translate(-0.04 0)"/></g><path class="cls-3" d="M26.39,315.46v25.4h-3V321.42a3.65,3.65,0,0,1,.07-.87L14.74,336.4a1.32,1.32,0,0,1-1.25.82h-.43a1.27,1.27,0,0,1-1.24-.82L2.93,320.49A14.22,14.22,0,0,1,3,322.22v18.64H0v-25.4H2.56a2,2,0,0,1,.69.11.87.87,0,0,1,.48.48l8.8,15.7c.15.29.28.59.4.89s.27.62.39.93l.34-.93c.12-.31.29-.62.45-.94l8.55-15.59a.9.9,0,0,1,.45-.49,2.26,2.26,0,0,1,.73-.1Z" transform="translate(-0.04 0)"/><path class="cls-3" d="M41.54,340.86H38.12v-25.4h3.42Z" transform="translate(-0.04 0)"/><path class="cls-3" d="M73.89,328.91v9.76a14.71,14.71,0,0,1-4.11,2.07,16.56,16.56,0,0,1-4.75.66,15.54,15.54,0,0,1-5.53-.94,12.4,12.4,0,0,1-4.22-2.65,11.31,11.31,0,0,1-2.66-4.08,14.46,14.46,0,0,1-.93-5.29,14.67,14.67,0,0,1,.89-5.29,11.94,11.94,0,0,1,2.6-4.08,11.31,11.31,0,0,1,4.08-2.66,14.84,14.84,0,0,1,5.36-.94,16.37,16.37,0,0,1,2.8.24,11.51,11.51,0,0,1,2.39.62,12,12,0,0,1,2,1,15.24,15.24,0,0,1,1.77,1.34l-1,1.54a1.06,1.06,0,0,1-.62.45.93.93,0,0,1-.79-.17l-1-.59a6.87,6.87,0,0,0-1.35-.69,9,9,0,0,0-1.83-.56,12.9,12.9,0,0,0-2.56-.23,9.73,9.73,0,0,0-3.88.72,8.26,8.26,0,0,0-4.84,5.16,12.77,12.77,0,0,0-.62,4.11,13.25,13.25,0,0,0,.65,4.29,9,9,0,0,0,2,3.22,8.29,8.29,0,0,0,3.08,2,11.13,11.13,0,0,0,4.08.7,11.63,11.63,0,0,0,3.11-.39,13,13,0,0,0,2.69-1.14v-5.57H66.83a.73.73,0,0,1-.55-.17.63.63,0,0,1-.21-.48v-2Z" transform="translate(-0.04 0)"/><path class="cls-3" d="M98.77,338v2.88H84.38v-25.4h3.43V338Z" transform="translate(-0.04 0)"/><path class="cls-3" d="M123.45,338.06v2.8H107.82v-25.4h15.64v2.8H111.23v8.45h9.9v2.7h-9.9v8.65Z" transform="translate(-0.04 0)"/><path class="cls-3" d="M154.06,315.47v25.4h-1.73a1.34,1.34,0,0,1-.65-.14,1.59,1.59,0,0,1-.55-.48l-14.67-19.13v19.75h-3v-25.4h1.77a2.41,2.41,0,0,1,.38,0,.94.94,0,0,1,.28.1.59.59,0,0,1,.24.17,2.37,2.37,0,0,1,.27.28l14.66,19.13c0-.32-.06-.62-.08-.9s0-.57,0-.83V315.47Z" transform="translate(-0.04 0)"/><path class="cls-3" d="M179.23,331.45l-4-10.34c-.12-.3-.24-.67-.37-1.07s-.24-.84-.35-1.28c-.27.94-.51,1.74-.76,2.38l-4,10.31Zm7.16,9.41h-2.66a1.18,1.18,0,0,1-.73-.21,1.35,1.35,0,0,1-.42-.63l-2.38-6.12H168.82L166.44,340a1.14,1.14,0,0,1-.42.59,1.08,1.08,0,0,1-.73.25h-2.66l10.13-25.4h3.5Z" transform="translate(-0.04 0)"/><path class="cls-3" d="M231.49,331.45l-4-10.34c-.12-.3-.25-.67-.39-1.07s-.23-.84-.34-1.28a22,22,0,0,1-.77,2.38l-4,10.31Zm7.16,9.41H236a1.15,1.15,0,0,1-.72-.21,1.24,1.24,0,0,1-.42-.63l-2.39-6.12H221.11L218.72,340a1,1,0,0,1-.41.59,1.06,1.06,0,0,1-.72.25h-2.67l10.14-25.4h3.49Z" transform="translate(-0.04 0)"/><path class="cls-3" d="M265.68,315.46l-10.35,25.4h-3.07l-10.34-25.4h2.73a1.25,1.25,0,0,1,.77.25,1.81,1.81,0,0,1,.4.59L253,334.18q.24.61.45,1.35c.14.48.3,1,.42,1.46.11-.51.23-1,.35-1.46a10.68,10.68,0,0,1,.45-1.35l7.12-17.88a1.21,1.21,0,0,1,.41-.56,1.17,1.17,0,0,1,.76-.28Z" transform="translate(-0.04 0)"/><path class="cls-3" d="M280.93,327.81a9,9,0,0,0,2.63-.36,5.34,5.34,0,0,0,1.9-1.07,4.33,4.33,0,0,0,1.18-1.6,5.5,5.5,0,0,0,.37-2,4.05,4.05,0,0,0-1.48-3.42,7.32,7.32,0,0,0-4.46-1.14h-3.74v9.59Zm11.72,13.07h-3a1.52,1.52,0,0,1-1.38-.73l-6.6-9.06a2,2,0,0,0-.63-.59,2.07,2.07,0,0,0-1.07-.2h-2.6v10.58H274v-25.4h7.11a15.67,15.67,0,0,1,4.15.5,7.7,7.7,0,0,1,2.9,1.42,5.7,5.7,0,0,1,1.7,2.24,7.24,7.24,0,0,1,.55,2.91,7.07,7.07,0,0,1-.45,2.49,6.93,6.93,0,0,1-1.21,2.15,7.51,7.51,0,0,1-2,1.59,8.87,8.87,0,0,1-2.62,1,3.61,3.61,0,0,1,1.13,1.07Z" transform="translate(-0.04 0)"/><path class="cls-3" d="M316.06,331.45l-4-10.34c-.12-.3-.25-.67-.39-1.07s-.22-.84-.34-1.28a24.4,24.4,0,0,1-.76,2.38l-4,10.31Zm7.16,9.41h-2.66a1.09,1.09,0,0,1-.72-.21,1.24,1.24,0,0,1-.42-.63l-2.36-6.12H305.69L303.3,340a1,1,0,0,1-.41.59,1.06,1.06,0,0,1-.72.25H299.5l10.14-25.4h3.49Z" transform="translate(-0.04 0)"/><path class="cls-3" d="M358.79,315.46v25.4h-3V322.22a5.34,5.34,0,0,1,0-.8,4.25,4.25,0,0,1,.06-.87l-8.72,15.85a1.33,1.33,0,0,1-1.24.82h-.48a1.29,1.29,0,0,1-1.25-.82l-8.89-15.91a14.22,14.22,0,0,1,.11,1.73v18.64h-3v-25.4h2.54a2,2,0,0,1,.68.11.89.89,0,0,1,.49.48l8.82,15.7c.14.27.27.58.41.89s.26.62.38.93c.11-.31.23-.62.35-.93s.29-.62.45-.94l8.56-15.59a.87.87,0,0,1,.45-.49,2.26,2.26,0,0,1,.73-.1Z" transform="translate(-0.04 0)"/><path class="cls-3" d="M393.45,328.43a14.3,14.3,0,0,1-.93,5.26,12,12,0,0,1-2.56,4.12,11.3,11.3,0,0,1-3.95,2.66,14.34,14.34,0,0,1-10.2,0,11.51,11.51,0,0,1-6.5-6.77,15.73,15.73,0,0,1,0-10.49,12.11,12.11,0,0,1,2.56-4.11,11.39,11.39,0,0,1,3.94-2.66,13.93,13.93,0,0,1,10.2,0A11.16,11.16,0,0,1,390,319.1a12.11,12.11,0,0,1,2.56,4.11A14.34,14.34,0,0,1,393.45,328.43Zm-3.52,0a12.46,12.46,0,0,0-.67-4.19,8.7,8.7,0,0,0-1.79-3.14,8.29,8.29,0,0,0-2.83-2,9.8,9.8,0,0,0-3.71-.68,10.1,10.1,0,0,0-3.73.68,8.1,8.1,0,0,0-2.84,2,8.72,8.72,0,0,0-1.8,3.14,14.51,14.51,0,0,0,0,8.41,8.6,8.6,0,0,0,1.8,3.11,8,8,0,0,0,2.84,2,9.71,9.71,0,0,0,3.73.68,9.61,9.61,0,0,0,3.71-.68,7.94,7.94,0,0,0,2.83-2,8.58,8.58,0,0,0,1.79-3.11,12.35,12.35,0,0,0,.71-4.22Z" transform="translate(-0.04 0)"/><path class="cls-3" d="M422.69,315.46l-10.35,25.4h-3.07l-10.34-25.4h2.73a1.18,1.18,0,0,1,.76.25,1.35,1.35,0,0,1,.41.59L410,334.18q.24.61.45,1.35c.14.48.3,1,.42,1.46.11-.51.23-1,.35-1.46a10.68,10.68,0,0,1,.45-1.35l7.12-17.88a1.21,1.21,0,0,1,.41-.56,1.17,1.17,0,0,1,.76-.28Z" transform="translate(-0.04 0)"/><path class="cls-6" d="M303.39,275.84c-3.52,5.06-10.66,10.87-17.66,14.39-7.3,3.66-9.92,4.48-18.3,5.9-14.08,2.35-30.9-.84-43.51-8.27l-4.15-2.42-8,4.16c-20.48,10.62-36.34,14.39-51.89,12.28-7.93-1-12.73-2.63-17.4-5.63-5.76-3.71-11.41-10.14-12.41-14.14l-.38-1.73,6.58.39c8.7.57,7.75.57,14.33.06,7.56-.51,10.05-1,11.27-2.11a2.26,2.26,0,0,1,2-.45c1.15.45,7-1.28,9.28-2.75a5,5,0,0,1,2.56-.77c2.09.19,4-.06,4-.57,0-.26-1.27-1.09-2.81-1.92-3.84-2.05-10.69-8.45-18.74-17.6-7.36-8.25-15.36-15-19.84-16.88-1.53-.65-2.75-1.41-2.75-1.86s1.22-1.22,2.69-1.86a9.45,9.45,0,0,0,3.2-1.79,4.74,4.74,0,0,1,2.88-.83,102.48,102.48,0,0,0,12.22-1.28,3.4,3.4,0,0,1,2.24.26c1.15.89,6.2,2,7.29,1.6a2.79,2.79,0,0,1,2.31.89,8.74,8.74,0,0,0,5.49,2.75,2.44,2.44,0,0,1,1.92,1.09c.51.9.64.26.71-2.69.07-6.78,4.07-19.51,6.07-19.51.51,0,1,1.15,1.29,2.68a10.88,10.88,0,0,0,1.08,3.53,1.78,1.78,0,0,1,.32,1.66c-.51,1.35.79,6.65,1.79,7.48a1.49,1.49,0,0,1,.58,1.6c-.45,1.09,2,5.83,3.26,6.28a1.8,1.8,0,0,1,1,1.53,8.11,8.11,0,0,0,1.91,3.39l1.86,2.24.06-1.92c0-2.2.43-6.14,1-11.2.26-1.92.45-4.54.52-5.76a8.28,8.28,0,0,1,.57-3.07c.51-.72,1.28-4.21,2.18-9.72a11.6,11.6,0,0,1,1.15-3.53,13,13,0,0,0,1.28-2.87,7.87,7.87,0,0,1,1.47-2.75c1.28-1.43,2-1.37,2.2.25.2.83.49,2.37.71,3.39s.67,3.27,1,4.93A21.29,21.29,0,0,0,209.1,217c.38.77.57,1.53.38,1.72a3.71,3.71,0,0,0,.38,2.05A90.52,90.52,0,0,1,213,233.38c.26,1.73.65,3.78.84,4.48a38.89,38.89,0,0,1,.76,3.84l.45,2.56.9-1.6a10.06,10.06,0,0,0,.89-2.68,2.16,2.16,0,0,1,1.15-1.74c.7-.32,2-2.16,3-4.15s2-3.58,2.24-3.58c.51,0,4.54-5.51,4.6-6.28a15.67,15.67,0,0,1,3.14-3,14.11,14.11,0,0,0,3.39-3.71,1.57,1.57,0,0,1,1.34-1.09,12.13,12.13,0,0,0,3.59-1.28,11.53,11.53,0,0,1,3.84-1.28c1.25,0,1.25.06.25,2.37-2.81,6.39-3.71,9.46-5.44,17.78-1,4.92-1.85,9.53-1.85,10.24.06,1.15.13,1.15,1.35-.32.76-.9,1.65-1.6,2.1-1.6,1.09-.06,6-3.55,6.4-4.55a1.49,1.49,0,0,1,1.28-.89c1.15,0,6.28-2.44,6.85-3.33s7.86-2.43,8.51-1.79c.31.32-.07,1.22-.84,2.05-2,2-5.44,7.55-5.05,7.93.19.19,1.27-.38,2.36-1.34s2.24-1.53,2.57-1.34c.89.57,7.48-2.56,8-3.78a1.5,1.5,0,0,1,1.47-.9c1.86.37,7.86-3.54,7.86-5,0-.33.7-1.1,1.54-1.67a11.76,11.76,0,0,0,3-3.58c1.09-1.93,1.82-2.57,2.82-2.43,1.21.22,1.26.64,1.21,4.22s-.5,4.92-3.44,10.81c-5.63,11.06-16,23.06-25.46,29.49a17.25,17.25,0,0,0-3.39,2.56,6.19,6.19,0,0,0,2.5-.06c1.53-.19,2.81,0,3.32.52,1.28,1.2,7.49,3.06,8.7,2.62a2.1,2.1,0,0,1,2,.51c1.34,1.15,7.34,2.43,9.34,1.91.77-.19,1.67-.06,1.85.33.6.82,9.09,1,9.6.12a3.89,3.89,0,0,1,2.56-.51,17.26,17.26,0,0,0,6.14-1.92C306.33,269.84,306.91,270.78,303.39,275.84Z" transform="translate(-0.04 0)"/><path class="cls-3" d="M441.85,331.45l-4-10.34c-.12-.3-.25-.67-.39-1.07s-.23-.84-.34-1.28a22,22,0,0,1-.77,2.38l-4,10.31Zm7.16,9.41h-2.62a1.15,1.15,0,0,1-.72-.21,1.35,1.35,0,0,1-.42-.63l-2.38-6.12H431.49L429.06,340a1.2,1.2,0,0,1-1.14.84h-2.66l10.13-25.4h3.44Z" transform="translate(-0.04 0)"/><path class="cls-7" d="M203.91,204.12a7.79,7.79,0,0,0-1.47,2.75,13.17,13.17,0,0,1-1.28,2.87,11.6,11.6,0,0,0-1.15,3.53c-.9,5.51-1.67,9-2.18,9.72a8.28,8.28,0,0,0-.57,3.07c-.07,1.22-.26,3.84-.52,5.76-.57,5.06-1,9-1,11.2l-.06,1.92-1.86-2.24a8.11,8.11,0,0,1-1.91-3.39,1.8,1.8,0,0,0-1-1.53c-1.27-.45-3.71-5.19-3.26-6.28a1.49,1.49,0,0,0-.58-1.6c-1-.83-2.3-6.13-1.79-7.48a1.78,1.78,0,0,0-.32-1.66,11,11,0,0,1-1.08-3.53c-.26-1.53-.78-2.68-1.29-2.68-2,0-6,12.73-6.07,19.51-.07,2.95-.2,3.59-.71,2.69a2.44,2.44,0,0,0-1.92-1.09,8.79,8.79,0,0,1-5.49-2.75,2.79,2.79,0,0,0-2.31-.89c-1.09.38-6.14-.71-7.29-1.6a3.4,3.4,0,0,0-2.24-.26,102,102,0,0,1-12.22,1.28,4.78,4.78,0,0,0-2.88.83,9.45,9.45,0,0,1-3.2,1.79c-1.47.64-2.69,1.41-2.69,1.86s1.22,1.21,2.75,1.86c4.48,1.85,12.48,8.63,19.84,16.88,8.05,9.15,14.9,15.55,18.74,17.6,1.54.83,2.81,1.66,2.81,1.92,0,.51-1.91.76-4,.57a5,5,0,0,0-2.56.77c-2.3,1.47-8.13,3.2-9.28,2.75a2.26,2.26,0,0,0-2,.45c-1.22,1.09-3.71,1.6-11.27,2.11-6.58.51-5.63.51-14.33-.06l-6.58-.39.38,1.73c1,4,6.65,10.43,12.41,14.14,4.67,3,9.47,4.6,17.4,5.63,15.55,2.11,31.41-1.66,51.89-12.28l8-4.16,4.15,2.42c12.61,7.43,29.43,10.62,43.51,8.27,8.38-1.42,11-2.24,18.3-5.9,7-3.52,14.14-9.33,17.66-14.39s2.94-6-2.12-3.52a17.46,17.46,0,0,1-6.14,1.92,3.89,3.89,0,0,0-2.56.51c-.51.84-9,.7-9.6-.12-.18-.39-1.08-.52-1.85-.33-2,.52-8-.76-9.34-1.91a2.09,2.09,0,0,0-2-.51c-1.21.44-7.42-1.42-8.7-2.62-.51-.52-1.79-.71-3.32-.52a6.19,6.19,0,0,1-2.5.06,17.25,17.25,0,0,1,3.39-2.56c9.46-6.43,19.83-18.43,25.46-29.49,2.94-5.89,3.39-7.23,3.44-10.81s0-4-1.21-4.22c-1-.14-1.73.5-2.82,2.43a11.76,11.76,0,0,1-3,3.58c-.84.57-1.54,1.34-1.54,1.67,0,1.46-6,5.37-7.86,5a1.48,1.48,0,0,0-1.47.9c-.52,1.22-7.11,4.35-8,3.78-.33-.19-1.48.38-2.57,1.34s-2.17,1.53-2.36,1.34c-.39-.38,3.07-5.88,5.05-7.93.77-.83,1.15-1.73.84-2.05-.65-.64-7.94.9-8.51,1.79s-5.7,3.33-6.85,3.33a1.47,1.47,0,0,0-1.28.89c-.39,1-5.31,4.49-6.4,4.55-.45,0-1.34.7-2.1,1.6-1.22,1.47-1.29,1.47-1.35.32,0-.71.83-5.32,1.85-10.24,1.73-8.32,2.63-11.39,5.44-17.78,1-2.31,1-2.37-.25-2.37a11.53,11.53,0,0,0-3.84,1.28,12.32,12.32,0,0,1-3.59,1.28,1.57,1.57,0,0,0-1.34,1.09,14.27,14.27,0,0,1-3.39,3.71,15.67,15.67,0,0,0-3.14,3c-.06.77-4.09,6.28-4.6,6.28-.26,0-1.22,1.59-2.24,3.58s-2.3,3.83-3,4.15a2.15,2.15,0,0,0-1.15,1.74,10.18,10.18,0,0,1-.89,2.68l-.9,1.6-.45-2.56a36.2,36.2,0,0,0-.76-3.84c-.19-.7-.58-2.75-.84-4.48a90.52,90.52,0,0,0-3.12-12.57,3.71,3.71,0,0,1-.38-2.05c.19-.19,0-.95-.38-1.72a21.29,21.29,0,0,1-1.28-4.35c-.33-1.66-.78-3.91-1-4.93s-.51-2.56-.71-3.39C205.9,202.75,205.19,202.69,203.91,204.12Zm5.15,19.51c.77,2.69,2.18,8.77,3.2,13.57,1.47,7.23,1.66,8.83.9,9.4a2.82,2.82,0,0,0-.84,1.85c0,1.6-1.66,5.38-2.81,6.34a1.63,1.63,0,0,0-.64,1.6,5.37,5.37,0,0,1-.58,3l-.89,2.17-.51-1.85a12.61,12.61,0,0,0-3-4.29,11.33,11.33,0,0,1-2.49-3.14,10.07,10.07,0,0,0-2.24-2.94c-1.66-1.59-2.24-2.75-2.24-4.29,0-3.19,1.79-17.46,2.88-23.41,1-5,3.78-14.91,4.67-16.38.19-.32,1,2.56,1.79,6.4s2,9.26,2.75,12Zm30.46-4.35c-1.22,2-2.57,3.58-2.88,3.58s-.64.71-.64,1.6c0,1.73-1.47,5.06-3,6.78a3,3,0,0,0-.77,1.6c.19.9-.77,4.29-1.66,5.7a13,13,0,0,0-1.15,3.71,24.73,24.73,0,0,1-1.6,5.12,21.46,21.46,0,0,0-1.67,5,10.81,10.81,0,0,1-1.65,4,5.77,5.77,0,0,0-1.29,2.62c0,1.28-2.5,6.27-3.39,6.9a2,2,0,0,0-.83,1.42c-.19,1.47-3.52,5.5-4.54,5.5a1.53,1.53,0,0,0-1.22,1,17.89,17.89,0,0,1-2.49,3.07L208.63,279l-2-1.67a6.34,6.34,0,0,1-2-2.42.8.8,0,0,0-.83-.77h-.07c-1.34,0-4.86-3.14-5.56-4.93-.32-.77-.9-1.47-1.34-1.47-1,0-4.36-4.67-4.36-6a1.8,1.8,0,0,0-1-1.47c-1.28-.45-3.51-4.8-3.51-6.78a3.41,3.41,0,0,0-1-2.37c-1.22-1-3-7.3-2.49-8.64a1.34,1.34,0,0,0-.41-1.66c-.7-.39-.9-2.76-1-10.62L183,220.07l1.47,6.66c1.92,8.19,3.53,11,13.06,23.29,4.15,5.37,7.93,10.43,8.44,11.33a31,31,0,0,1,1.6,6.07l.77,4.48.06-4c.26-13.63,19.13-45.36,30.46-51.19a8.27,8.27,0,0,1,2.75-1.08,18.76,18.76,0,0,1-2.05,3.69Zm-58,5.51c-1,14.33,2.37,28.27,9.47,38.57,2.81,4.23,5.12,6.59,13.95,14.78,4.54,4.16,4.35,5.25-.84,4.23-8.88-1.67-15.35-8.26-20.72-21.11-4-9.6-5.25-15.3-5.25-24.63-.06-6.28.19-9.22,1.09-12,1.47-4.8,2.37-7.1,2.62-6.78a65.44,65.44,0,0,1-.29,7Zm57.07,1.15c-.7,2.11-2,8.05-2.94,13-2.37,12.86-5.31,21.76-9.54,28.86-4.41,7.49-7.35,10.88-11.51,13.24-4,2.31-4.86,2.37-4.86.45,0-.89,1.4-2.81,3.9-5.24a57.76,57.76,0,0,0,6.08-7.17c2.75-4.09,7.23-14.58,9.53-22.27,3-9.72,9.53-25.84,10.3-25.13a18.65,18.65,0,0,1-.93,4.3Zm47.92,1.66c-1,4-6.08,13.88-9.73,18.81a114.4,114.4,0,0,1-18.1,17.91c-4.22,3.14-13.63,7.81-17.85,8.83l-1.92.45,1.41-1.79a26.36,26.36,0,0,1,6.08-4.35c10.36-5.57,25.46-18.75,30.71-26.74,3.13-4.87,7.48-13.44,7.48-14.85a6.36,6.36,0,0,1,.7-2.49c.71-1.28.77-1.28,1.41-.19.48.87.42,2.21-.16,4.45Zm-5.31,2.82a3.72,3.72,0,0,0-1.08,2c0,1-3.27,6-4.29,6.65a2,2,0,0,0-.84,1.54c0,1.34-6.26,8.51-7.42,8.51a1.8,1.8,0,0,0-1.41,1.14c-.64,1.6-5.3,5.7-7.35,6.47-1,.38-1.73,1-1.73,1.47,0,1.15-6.59,5.63-8.25,5.63-.77,0-1.34.39-1.34.84s-.84,1.34-1.92,1.91-1.92,1-1.92.84a24.81,24.81,0,0,1,2-4.17c1.79-3.39,2.1-3.64,2.87-2.75s.77.71.45-1.46a5.1,5.1,0,0,1,.57-3.84c1-1.22,1-1.15,1.92.95.77,1.73,1,1.92,1,.9a10,10,0,0,0-.63-3.33c-.57-1.66-.39-2.43,1.08-5.3a16.67,16.67,0,0,1,2.76-4.23c.58-.38,4.28-2.11,8.25-3.77,7.42-3.07,15.54-8.2,16.76-10.56.45-.7.9-1.15,1.09-1s0,1-.59,1.6Zm-115.29,4a35.61,35.61,0,0,1,7,3.39l3.2,2,.77,5.12c.7,4.35.63,5.5-.14,7.55-1.2,3.14-1.15,5.31.07,2.43A5.78,5.78,0,0,1,178,253c.77.83,5.25,13.37,4.8,13.37a11.34,11.34,0,0,1-2.69-2.24,10.05,10.05,0,0,0-2.74-2.24c-.84-.06-5.38-4.35-5.38-5.11,0-.33-.64-.9-1.4-1.35-2.12-1-5.64-4.54-5.64-5.44,0-.44-1-1.34-2.3-1.92a12.62,12.62,0,0,1-4-3.26c-1-1.15-2.11-2.11-2.55-2.11-1.16,0-6.53-3.72-6.53-4.48,0-.39-.64-.64-1.41-.64a24,24,0,0,1-5-1.28l-3.41-1.17,1.85-.69c5.83-2.19,17.73-2.25,24.38,0Zm92.38-.4c-.12.14-1.47,1.29-3,2.57a20.48,20.48,0,0,0-4.41,5.31,23.1,23.1,0,0,1-2.69,4.34,17.85,17.85,0,0,0-1.86,3,18.1,18.1,0,0,1-2.87,4.17,14.93,14.93,0,0,0-2.44,3.26c-.64,2-11.19,12.92-12.48,12.92-.44,0-.95.58-1.21,1.22-.32,1-2.24,2.49-2.24,1.66,0-.13,1-1.92,2.24-4s2.24-3.32,2.24-2.94a.79.79,0,0,0,.64.83c.45,0,.45-.38,0-1.28a2.45,2.45,0,0,1,0-2.63c.7-1.27.77-1.27,1.6-.12,1.08,1.34,1.28.12.32-1.73a3.06,3.06,0,0,1,.13-2.88l.77-1.66,1,1.79c1.22,2.37,1.67.9.52-1.85-.77-1.8-.77-2.57,0-5.19s1.47-3.45,6.46-7.16,15.54-9.85,17-9.92c.31.05.46.18.31.3Zm-1.12,3.79c-1.91,2.81-5.81,10.29-11.64,22.39-3,6.39-8.38,14.07-12.16,17.52s-13.24,6.4-18.23,5.83c-1.79-.2-1.79-.2,1.09-2.05a33.09,33.09,0,0,0,4.73-3.78,66,66,0,0,1,6.53-5c6-4,12.8-11.83,20.6-23.6C253.53,240.93,258,235,258.84,235a12,12,0,0,1-1.64,2.78ZM146,239.12c5.24,2.36,11.83,7.35,20.15,15.22,9.47,9.09,12.67,11.65,16.12,13.18a9.65,9.65,0,0,1,4.35,3.91l1.53,2.69h-2c-5.06,0-14.59-7.23-25.47-19.39-6.4-7.16-13.24-13.37-17.78-16.25-2-1.31-.49-.92,3.1.64ZM265.5,272.87c17,4.68,24.89,5.38,31.67,2.88.76-.32.38.26-1,1.47a8,8,0,0,1-3.33,2c-.64,0-1.15.26-1.15.57,0,.71-5.5,3.91-6.65,3.91a12.9,12.9,0,0,0-3.27,1.27,18.37,18.37,0,0,1-4.73,1.67,19.52,19.52,0,0,0-4.55,1.41,14.63,14.63,0,0,1-5.56.95c-1.86,0-3.39.26-3.39.52,0,.89-7.94.7-8.83-.19-.57-.58-1.09-.64-1.92-.13-1.47.95-9-.58-10-2.05a1.28,1.28,0,0,0-1.53-.64c-1,.64-7.1-1.47-7.55-2.56-.19-.51-1.15-.89-2.11-.89-2.44,0-2.88-.9-1-1.79a23.2,23.2,0,0,0,4-2.95,13.73,13.73,0,0,1,4.28-2.68l1.79-.45-1.56,2.49c-2.62,4.16-2.76,4.48-1.22,3.14a19,19,0,0,0,3-3.91c1.47-2.43,4.92-4.8,5.76-3.9.19.19-.71,2.24-2,4.61s-2.24,4.41-2,4.6c.45.45,5.5-7.29,6-9.14.25-1.09,3.26-3.27,4.73-3.39C253.5,269.61,258.93,271.12,265.5,272.87ZM302.67,275c-5.5,8-18,15.94-29.82,19-4.79,1.29-7.35,1.54-15,1.48-12.15,0-18.43-1.48-29.43-6.85l-8-3.9,3.39-.83c3.2-.83,3.52-.77,8,1.15,10,4.29,18.61,6.33,27,6.33,13.5,0,31-6.65,41.39-15.67,2.24-1.92,4.1-3.52,4.23-3.52a17.64,17.64,0,0,1-1.8,2.81ZM192.43,278.5c3.91,3.26,7.43,4.93,11.32,5.57l3.21.44-1.92.77a4.82,4.82,0,0,1-2.82.45,1.63,1.63,0,0,0-1.66.71c-1,1.41-5.76,3.07-7.17,2.55a1.46,1.46,0,0,0-1.72.58c-.83,1.09-4,2.31-8.07,3.07-1.59.32-4.15.89-5.75,1.29a16.4,16.4,0,0,1-5.18.31c-1.41-.26-2.57-.13-2.82.26-.45.77-8.77,1-9.47.25a12.06,12.06,0,0,0-3.58-.51,18.93,18.93,0,0,1-5.89-1.41c-1.53-.7-3.84-1.66-5-2.17-3-1.09-7-3.65-7-4.41,0-.39-.64-.65-1.47-.65a6.16,6.16,0,0,1-3.39-2c-1.48-1.54-1.6-1.86-.58-1.47a67.5,67.5,0,0,0,9.09.83,76,76,0,0,0,26.85-3.84c7.17-2.24,10.49-2.88,16-3,3.84-.11,4.22,0,7,2.38Zm22.4,6.46h2.36l-4.13,2.31a197,197,0,0,1-22.84,10.23A79.32,79.32,0,0,1,179,300c-18,2.56-31.48-.44-40.82-9.08-5.5-5.06-6.2-6.72-1.47-3.53,5,3.4,12.79,7,17.59,8.13,5.32,1.22,18.75,1.22,25.27,0s16.9-4.73,25-8.25c3.46-1.6,6.66-2.69,7.11-2.56a17.57,17.57,0,0,0,3.16.25Z" transform="translate(-0.04 0)"/><path class="cls-7" d="M201.8,217.12c-.26.38.51.63,1.86.63s2.3-.31,2.3-.63-.83-.64-1.86-.64A3.55,3.55,0,0,0,201.8,217.12Z" transform="translate(-0.04 0)"/><path class="cls-7" d="M203.06,221c-.26.38.38.63,1.53.63a3.57,3.57,0,0,0,2.31-.63c.25-.39-.39-.64-1.54-.64S203.27,220.6,203.06,221Z" transform="translate(-0.04 0)"/><path class="cls-7" d="M201.16,226.12c-.45.71,1.6.71,4.48,0,1.72-.45,1.6-.5-1.09-.57C202.89,225.53,201.35,225.72,201.16,226.12Z" transform="translate(-0.04 0)"/><path class="cls-7" d="M199.88,231.22c-.51.77,2.69.77,4.48,0,1-.45.7-.58-1.41-.58C201.5,230.59,200.06,230.81,199.88,231.22Z" transform="translate(-0.04 0)"/><path class="cls-7" d="M207.43,231a4.77,4.77,0,0,0,1.92,0c.38-.19-.06-.32-1.15-.32S206.79,230.81,207.43,231Z" transform="translate(-0.04 0)"/><path class="cls-7" d="M203.06,235.7c-.26.38.83.64,2.82.64,1.79,0,3.26-.32,3.26-.64s-1.28-.64-2.82-.64S203.27,235.32,203.06,235.7Z" transform="translate(-0.04 0)"/><path class="cls-7" d="M199.88,240.81c-.9.39-.25.57,2.43.57,2.3.07,3.59-.18,3.33-.57C205.19,240.06,201.67,240.06,199.88,240.81Z" transform="translate(-0.04 0)"/><path class="cls-7" d="M207.88,240.81c0,.32.7.64,1.59.64s1.61-.32,1.61-.64-.71-.64-1.61-.64S207.88,240.44,207.88,240.81Z" transform="translate(-0.04 0)"/><path class="cls-7" d="M200.84,246.58c-1.21.76,2.18.76,6.4.06,2.87-.51,2.87-.57-1.28-.64C203.66,246,201.35,246.25,200.84,246.58Z" transform="translate(-0.04 0)"/><path class="cls-7" d="M204.68,251.06c-.71.44-.13.64,2.11.64,1.92,0,2.94-.26,2.68-.64C209,250.23,206,250.23,204.68,251.06Z" transform="translate(-0.04 0)"/><path class="cls-7" d="M232.83,223.48a2.44,2.44,0,0,0,1.09,1.41c1,.83,1,.76.25-.58S232.83,222.52,232.83,223.48Z" transform="translate(-0.04 0)"/><path class="cls-7" d="M231.3,227.51c.63,1.16,1.21,1.79,1.34,1.34.31-1-1-3.39-1.79-3.39C230.5,225.46,230.72,226.43,231.3,227.51Z" transform="translate(-0.04 0)"/><path class="cls-7" d="M228.41,229c0,1.15,1.79,3.89,1.86,2.81a5,5,0,0,0-1-2.24C228.8,228.92,228.41,228.6,228.41,229Z" transform="translate(-0.04 0)"/><path class="cls-7" d="M227.06,235.12c.77,1.48,1.53,2.5,1.66,2.31.45-.45-1.79-4.93-2.43-4.93C226,232.5,226.36,233.65,227.06,235.12Z" transform="translate(-0.04 0)"/><path class="cls-7" d="M185.36,236.12a3.45,3.45,0,0,0-.52,2.12c.07,1.47.13,1.53.71.51C186.26,237.49,186.13,235.32,185.36,236.12Z" transform="translate(-0.04 0)"/><path class="cls-7" d="M223.23,236.53c0,1,2.63,6.33,2.94,6,.58-.52-1-4.73-2-5.57C223.68,236.53,223.23,236.34,223.23,236.53Z" transform="translate(-0.04 0)"/><path class="cls-7" d="M187.85,241.81c-.89,3.2-1.09,5.37-.51,5.69.32.26.83-.83,1-2.42C188.88,241.91,188.5,239.67,187.85,241.81Z" transform="translate(-0.04 0)"/><path class="cls-7" d="M221.06,243.81c.57,1.34,1.27,3.39,1.66,4.48s.76,2.11,1,2.11c.64,0-.32-4.29-1.41-6.66C220.8,240.69,219.71,240.81,221.06,243.81Z" transform="translate(-0.04 0)"/><path class="cls-7" d="M191.11,247c-.31.26-.51,2-.51,4,.07,2.75.2,3.33.7,2.44C192.06,252.21,191.82,246.2,191.11,247Z" transform="translate(-0.04 0)"/><path class="cls-7" d="M217.5,247.12c-.13,1.6,2,10,2.62,10.68,1.09,1-.07-6-1.4-9C218.11,247.41,217.5,246.64,217.5,247.12Z" transform="translate(-0.04 0)"/><path class="cls-7" d="M195,253.87c-.7,4.48-.64,5.89.19,5.06.32-.32.58-2.37.45-4.42l-.19-3.78Z" transform="translate(-0.04 0)"/><path class="cls-7" d="M214.5,253.93c.19.71.7,3.39,1.08,5.89s1,4.67,1.41,4.67c1.22,0-.7-9.72-2.17-11.19C214.34,252.81,214.28,253.12,214.5,253.93Z" transform="translate(-0.04 0)"/><path class="cls-7" d="M199,260l.07,4.16.58-3.14a9.38,9.38,0,0,0-.07-4.15C199.18,256.17,199,257.2,199,260Z" transform="translate(-0.04 0)"/><path class="cls-7" d="M212.06,264.17c.64,5.44,1.72,6.85,1.21,1.6a16.77,16.77,0,0,0-1-4.8C212,260.64,211.71,261.61,212.06,264.17Z" transform="translate(-0.04 0)"/><path class="cls-7" d="M203.21,262.38c-.7.64-.52,7.87.19,7.87.38,0,.64-1.79.64-4.16C204.06,261.93,204,261.55,203.21,262.38Z" transform="translate(-0.04 0)"/><path class="cls-7" d="M179.5,231.73a1.63,1.63,0,0,0,.32,1.41c.44.77.58.64.58-.51C180.37,231.12,180.06,230.81,179.5,231.73Z" transform="translate(-0.04 0)"/><path class="cls-7" d="M179.21,238.9c0,.9.13,1.21.32.77a3.33,3.33,0,0,0,0-1.6C179.34,237.69,179.21,238,179.21,238.9Z" transform="translate(-0.04 0)"/><path class="cls-7" d="M181.06,244.47c0,.83.31,1.47.64,1.47.82,0,.82-.71,0-1.92C181.13,243.25,181.06,243.31,181.06,244.47Z" transform="translate(-0.04 0)"/><path class="cls-7" d="M181.06,250.23a2.41,2.41,0,0,0,.64,1.79c.82.51.82-1,0-2.24C181.13,249,181.06,249.12,181.06,250.23Z" transform="translate(-0.04 0)"/><path class="cls-7" d="M184.21,256.12a1.46,1.46,0,0,0,.63,1c.39.19.64.13.64-.25a1.3,1.3,0,0,0-.64-1C184.5,255.67,184.21,255.72,184.21,256.12Z" transform="translate(-0.04 0)"/><path class="cls-7" d="M185.5,262.38a4.41,4.41,0,0,0,.65,1.47c.51.84.63.84.63-.13a1.79,1.79,0,0,0-.63-1.47C185.81,262.06,185.5,262.06,185.5,262.38Z" transform="translate(-0.04 0)"/><path class="cls-7" d="M190.6,267.37c.45.58,1,.83,1.09.71.45-.45-.45-1.67-1.22-1.67C190.06,266.41,190.06,266.81,190.6,267.37Z" transform="translate(-0.04 0)"/><path class="cls-7" d="M191.24,271.34c0,.83,1.85,2.43,2.24,2,.19-.19-.25-.83-1-1.47S191.24,271,191.24,271.34Z" transform="translate(-0.04 0)"/><path class="cls-7" d="M197,274.41a2.69,2.69,0,0,0,1.41,1c.38,0,.31-.45-.13-1a2.71,2.71,0,0,0-1.4-1C196.5,273.45,196.55,273.89,197,274.41Z" transform="translate(-0.04 0)"/><path class="cls-7" d="M199.56,279.21c1.28.83,2.11.83,1.6,0a1.75,1.75,0,0,0-1.47-.64C198.72,278.57,198.72,278.7,199.56,279.21Z" transform="translate(-0.04 0)"/><path class="cls-7" d="M234.24,237c0,.89.12,1.22.32.77a3.33,3.33,0,0,0,0-1.6C234.36,235.81,234.24,236.12,234.24,237Z" transform="translate(-0.04 0)"/><path class="cls-7" d="M232.64,241.26a2.08,2.08,0,0,0-.45,1.42c.06.82.19.82.71-.13C233.59,241.33,233.4,240.44,232.64,241.26Z" transform="translate(-0.04 0)"/><path class="cls-7" d="M232,247.67a1.56,1.56,0,0,0-.44,1.08c0,.39.32.32.77-.12s.58-.9.45-1.09a.54.54,0,0,0-.76.1h0Z" transform="translate(-0.04 0)"/><path class="cls-7" d="M229.11,252.33c0,.9.14,1.22.33.77a3.6,3.6,0,0,0,0-1.6C229.25,251.12,229.11,251.44,229.11,252.33Z" transform="translate(-0.04 0)"/><path class="cls-7" d="M229.06,258.48c0,.7.2.89.39.38a1.35,1.35,0,0,0-.06-1.22C229.18,257.39,229,257.81,229.06,258.48Z" transform="translate(-0.04 0)"/><path class="cls-7" d="M225.6,261.12a1.54,1.54,0,0,0-.45,1.09c0,.38.32.31.77-.13s.57-.9.44-1.09a.54.54,0,0,0-.75.12Z" transform="translate(-0.04 0)"/><path class="cls-7" d="M224.5,267.37c-.45.58-.52,1-.14,1s.77-.45,1-1,.25-1,.13-1A3.77,3.77,0,0,0,224.5,267.37Z" transform="translate(-0.04 0)"/><path class="cls-7" d="M220.5,270.7a1.53,1.53,0,0,0-.44,1.11c0,.39.32.32.77-.13s.58-.89.45-1.08a.54.54,0,0,0-.76.11h0Z" transform="translate(-0.04 0)"/><path class="cls-7" d="M217.5,274.41c-.51.57-.51,1-.13,1,.77,0,1.67-1.22,1.22-1.66C218.43,273.58,217.92,273.81,217.5,274.41Z" transform="translate(-0.04 0)"/><path class="cls-7" d="M214.5,278.88c-.64.52-.89,1-.51,1a5.19,5.19,0,0,0,1.92-1c.64-.51.89-.95.51-.95A5.16,5.16,0,0,0,214.5,278.88Z" transform="translate(-0.04 0)"/><path class="cls-7" d="M275.06,236.6a1.83,1.83,0,0,0,.64,1.34c.39.19.65-.07.65-.57a1.59,1.59,0,0,0-.65-1.35C275.38,235.81,275.06,236.12,275.06,236.6Z" transform="translate(-0.04 0)"/><path class="cls-7" d="M272,239.54c.83,1.28,1.8,1.72,1.8.77a3.31,3.31,0,0,0-2-2.05C271.41,238.26,271.5,238.81,272,239.54Z" transform="translate(-0.04 0)"/><path class="cls-7" d="M267.38,240.63a6.23,6.23,0,0,0,1.27,2.11c1,1.21,1.29,1.34,1.29.51a3.28,3.28,0,0,0-1-2C267.82,240.06,267.38,239.92,267.38,240.63Z" transform="translate(-0.04 0)"/><path class="cls-7" d="M263.21,243.5a14.79,14.79,0,0,0,1.48,3.08c1.47,2.36,1.86.31.45-2.37C263.79,241.81,262.58,241.33,263.21,243.5Z" transform="translate(-0.04 0)"/><path class="cls-7" d="M258.42,245.62c0,1.47,2,6.08,2.62,6.08,1,0,.64-1.8-.7-4.48S258.42,244.12,258.42,245.62Z" transform="translate(-0.04 0)"/><path class="cls-7" d="M254.58,249.46a13,13,0,0,0,1.09,3.39c.89,2,1.09,2.17,1.28,1a6.34,6.34,0,0,0-.77-3.33C255.06,248.31,254.58,248,254.58,249.46Z" transform="translate(-0.04 0)"/><path class="cls-7" d="M154.83,235c-1.14,1.15-1.91,3.9-1.08,3.9.51,0,3.07-4.54,2.75-4.87S155.5,234.3,154.83,235Z" transform="translate(-0.04 0)"/><path class="cls-7" d="M162.06,236.47c-1.54,1.66-2.88,4.67-2.31,5.24s4.16-5.31,3.9-6.13C163.5,235.25,162.77,235.63,162.06,236.47Z" transform="translate(-0.04 0)"/><path class="cls-7" d="M168.41,239.67c-1.67,1.85-3.53,5.5-3.27,6.4.13.38,1.47-1.22,2.94-3.59C170.7,238.26,170.9,237,168.41,239.67Z" transform="translate(-0.04 0)"/><path class="cls-7" d="M173.5,244.6c-1.47,2-3.58,6.52-3.2,6.9s1.28-.89,3.58-5.11C176.06,242.55,175.82,241.39,173.5,244.6Z" transform="translate(-0.04 0)"/><path class="cls-7" d="M248.82,239.81a4,4,0,0,0,1,1c.83.7.9.64.57-.26S248.82,239.12,248.82,239.81Z" transform="translate(-0.04 0)"/><path class="cls-7" d="M246.26,242a4.8,4.8,0,0,0,1,1.79c1,1.22,1.29.51.58-1.28C247.41,241.39,246.26,241.12,246.26,242Z" transform="translate(-0.04 0)"/><path class="cls-7" d="M243.13,244a5,5,0,0,0,1.21,2.56c1,1.22,1.29,1.34,1.29.57a5.26,5.26,0,0,0-1.29-2.55C243.5,243.5,243.13,243.38,243.13,244Z" transform="translate(-0.04 0)"/><path class="cls-7" d="M239.23,246.2a13.28,13.28,0,0,0,1,2.68c1.15,2.43,2.49,3,1.85.71C241.66,248.12,239.23,245.23,239.23,246.2Z" transform="translate(-0.04 0)"/><path class="cls-7" d="M236.41,251.81a22.86,22.86,0,0,0,1.41,3.39c1.47,2.75,1.86.45.45-2.57C237.06,250.12,235.71,249.59,236.41,251.81Z" transform="translate(-0.04 0)"/><path class="cls-7" d="M251.5,278.37c-2.94,5.83-3.2,6.53-1.66,5.25s4.86-8.19,4.54-9.4C254.26,273.58,253.11,275.31,251.5,278.37Z" transform="translate(-0.04 0)"/><path class="cls-7" d="M258.55,279.52c-1.54,3.08-2.62,5.7-2.5,5.89.9.84,5.82-8.76,5.44-10.49C261.36,274.41,260.06,276.52,258.55,279.52Z" transform="translate(-0.04 0)"/><path class="cls-7" d="M265.58,280.17c-2.23,5.24-2.55,6.46-1.08,4.34s4.15-7.61,4.15-8.43C268.65,274.22,267.44,275.81,265.58,280.17Z" transform="translate(-0.04 0)"/><path class="cls-7" d="M273.06,279.81c-.58,1.6-1.22,3.39-1.47,4s-.2,1.15.19,1.15c.9,0,2.87-5.31,2.56-6.78C274.06,277.35,273.71,277.86,273.06,279.81Z" transform="translate(-0.04 0)"/><path class="cls-7" d="M279,280.42c-.45,1.47-.64,2.89-.45,3.07.57.64,1.72-2.49,1.53-4.16S279.73,277.93,279,280.42Z" transform="translate(-0.04 0)"/><path class="cls-7" d="M283.82,280.12a3.4,3.4,0,0,0-.19,2.18c.51.51,1.15-1.6.89-2.88C284.33,278.57,284.14,278.81,283.82,280.12Z" transform="translate(-0.04 0)"/><path class="cls-7" d="M287.66,279.81c-.2.7-.07,1.27.25,1.27s.58-.57.58-1.27-.13-1.28-.26-1.28S287.85,279.12,287.66,279.81Z" transform="translate(-0.04 0)"/><path class="cls-7" d="M232.44,289.12c1.73,1.35,3.4,1.28,2.3,0a3.23,3.23,0,0,0-2.17-.95C231.23,288.23,231.23,288.23,232.44,289.12Z" transform="translate(-0.04 0)"/><path class="cls-7" d="M274.67,291.12c-1.15,1-1.15,1,.38.63a19.22,19.22,0,0,1,2.12-.38c.25,0,.44-.32.44-.64C277.61,289.81,276.06,290,274.67,291.12Z" transform="translate(-0.04 0)"/><path class="cls-7" d="M243.71,291.36a5.67,5.67,0,0,0,2.55.64c1.29,0,1.41-.12.65-.64a5.78,5.78,0,0,0-2.57-.64C243.06,290.72,242.94,290.81,243.71,291.36Z" transform="translate(-0.04 0)"/><path class="cls-7" d="M258.06,294.56a2.76,2.76,0,0,0,2,.64c.84,0,1.54-.32,1.54-.64s-.9-.63-2-.63S257.84,294.18,258.06,294.56Z" transform="translate(-0.04 0)"/><path class="cls-7" d="M181.06,278.44c0,1.34,1.85,5.44,3.65,7.93,2.87,4.16,2.94,2.62.12-2.56C181.84,278.44,181.06,277.22,181.06,278.44Z" transform="translate(-0.04 0)"/><path class="cls-7" d="M188.06,279.12c0,.77,3.32,5.31,4.66,6.46,1.86,1.47,1.22,0-1.47-3.58C188.68,278.63,188.06,278.06,188.06,279.12Z" transform="translate(-0.04 0)"/><path class="cls-7" d="M174.06,282.12c.82,2.94,3.57,7.94,4.41,7.94s-2.94-8.26-4.23-9.54C173.5,279.72,173.5,280,174.06,282.12Z" transform="translate(-0.04 0)"/><path class="cls-7" d="M166.29,284.12c.07,2.49,3.26,8.12,4.16,7.23.2-.26-3.14-7.42-3.78-8.06C166.5,283.05,166.29,283.36,166.29,284.12Z" transform="translate(-0.04 0)"/><path class="cls-7" d="M159.26,285.6c0,1.73,1.78,6.09,2.36,5.57s-1.09-6.14-1.79-6.59C159.5,284.39,159.26,284.81,159.26,285.6Z" transform="translate(-0.04 0)"/><path class="cls-7" d="M145.82,286.81a3.51,3.51,0,0,0,.68,2.3c.39.26.65-.38.65-1.53s-.26-2.11-.65-2.31S145.82,285.67,145.82,286.81Z" transform="translate(-0.04 0)"/><path class="cls-7" d="M152.73,285.6A7.73,7.73,0,0,0,154.2,291c.51.51.58.13.25-1.54C153.69,285.86,153.11,284.51,152.73,285.6Z" transform="translate(-0.04 0)"/><path class="cls-7" d="M205.57,289.12c-1.53,1.15-.44,1.22,1.67,0,1-.57,1.21-.89.57-.95A5,5,0,0,0,205.57,289.12Z" transform="translate(-0.04 0)"/><path class="cls-7" d="M198.28,291c-1,.58-1.21.9-.58,1a4.9,4.9,0,0,0,2.24-1C201.5,289.89,200.39,289.81,198.28,291Z" transform="translate(-0.04 0)"/><path class="cls-7" d="M145.18,294.43c0,.65,3.2,2.24,3.64,1.79.2-.12-.57-.76-1.66-1.34S145.18,294.12,145.18,294.43Z" transform="translate(-0.04 0)"/><path class="cls-7" d="M191.94,295c-1.14.51-2,1.08-1.85,1.22.38.44,4.35-1.16,4.35-1.74,0-.25-.06-.5-.13-.45S193.16,294.43,191.94,295Z" transform="translate(-0.04 0)"/><path class="cls-7" d="M183.63,295.9c-.83.32-1.41.71-1.28.9.51.45,3.13-.45,3.13-1,0-.31-.06-.57-.12-.5A17.68,17.68,0,0,0,183.63,295.9Z" transform="translate(-0.04 0)"/><path class="cls-7" d="M154.5,297.81c1.74.76,2.24.76,2.24,0,0-.39-.76-.64-1.72-.57C153.37,297.19,153.3,297.25,154.5,297.81Z" transform="translate(-0.04 0)"/><path class="cls-7" d="M167.89,298.4a1.6,1.6,0,0,0,2.24.32h0a1.62,1.62,0,0,0,.32-.32c.25-.38-.32-.64-1.28-.64S167.64,298,167.89,298.4Z" transform="translate(-0.04 0)"/><path class="cls-7" d="M174.8,298.81a7,7,0,0,0,2.24,0c.57-.19.06-.33-1.15-.33S174.16,298.66,174.8,298.81Z" transform="translate(-0.04 0)"/><path class="cls-7" d="M162.06,299.49a5.11,5.11,0,0,0,1.91,0c.39-.19-.06-.32-1.15-.32S161.36,299.3,162.06,299.49Z" transform="translate(-0.04 0)"/></svg>