<svg id="Layer_1" data-name="Layer 1" xmlns="http://www.w3.org/2000/svg" xmlns:xlink="http://www.w3.org/1999/xlink" viewBox="0 0 449.01 367.44"><defs><clipPath id="clip-path" transform="translate(-14.94 -5.19)"><rect x="81.01" y="5" width="287.09" height="304" style="fill:none"/></clipPath><clipPath id="clip-path-2" transform="translate(-14.94 -5.19)"><rect x="125.44" y="21.4" width="253.57" height="270.67" style="fill:none"/></clipPath><clipPath id="clip-path-3" transform="translate(-14.94 -5.19)"><rect x="119.8" y="85.88" width="220" height="129" style="fill:none"/></clipPath><clipPath id="clip-path-4" transform="translate(-14.94 -5.19)"><rect x="142.44" y="233.01" width="193.13" height="139.62" style="fill:none"/></clipPath><clipPath id="clip-path-5" transform="translate(-14.94 -5.19)"><polygon points="238.84 233.01 253.07 248.05 273.81 237.77 279.61 255.53 304.05 251.38 300.64 269.48 325.5 272.04 313.32 288 335.24 296.93 315.95 308.62 331.95 322.69 308.17 328.53 316.09 345.85 291.01 345.05 289.8 363.28 266.81 355.95 256.62 372.63 238.84 359.75 221.05 372.63 210.86 355.95 187.87 363.28 186.66 345.05 161.58 345.85 169.51 328.53 145.72 322.69 161.72 308.62 142.44 296.93 164.35 288 152.18 272.04 177.03 269.48 173.62 251.38 198.07 255.53 203.86 237.77 224.6 248.05 238.84 233.01" style="fill:none"/></clipPath></defs><g style="clip-path:url(#clip-path)"><path d="M233.44,309.31A152.06,152.06,0,1,1,366.84,83.58a142.86,142.86,0,1,0,0,147.16,152.27,152.27,0,0,1-133.4,78.57" transform="translate(-14.94 -5.19)" style="fill:#003f00"/></g><g style="clip-path:url(#clip-path-2)"><path d="M243.87,292a135.11,135.11,0,0,1-118.35-70,126,126,0,0,0,107.91,61c69.44,0,125.93-56.42,125.93-125.76S302.87,31.4,233.44,31.4a126,126,0,0,0-107.91,61,135.13,135.13,0,0,1,118.35-70c74.42,0,135,60.47,135,134.8S318.33,292,243.88,292" transform="translate(-14.94 -5.19)" style="fill:#003f00"/></g><g style="clip-path:url(#clip-path-3)"><path d="M330.24,213.88h9.84v1.3h-36v-1.3h11.14l-23.39-60a83.77,83.77,0,0,0-27.1,14.29c-14.3,11.33-22.83,27.11-24.5,31.93-1.3,7.05.92,13.74,6.87,13.74h6.34v1.29H224.25v-1.29h4.27c5,0,8.91-9.1,11.88-17.27a85.27,85.27,0,0,1,51-43.81l-17.77-45.45L280.68,86s5.76,15.77,7.06,18.92ZM236,196.31l.41-1.1.08-.24.11-.22a92.55,92.55,0,0,1,14.26-20.86V87.31h11.32V86H235.44L199.62,200,159.7,86H132.44v1.29h11.14v65.34c-14.11,4.08-23.77,14.84-23.77,30.07,0,14.85,8.17,26,17.64,30.25.56.37.37.93-.56.93h-4.45v1.3h25.8v-1.3H146.35c-14.85,0-25.25-16.33-25.25-31.18a29,29,0,0,1,9.1-21.34c10.2-9.47,23.76-9.84,36.93-9.84l22.65,63.66h6.31L236,88.41Zm-90.77-44.2V89.89l21.54,60.33c-7.43,0-14.33.18-21.54,1.85Z" transform="translate(-14.94 -5.19)" style="fill:#003f00"/></g><g style="clip-path:url(#clip-path-4)"><g style="clip-path:url(#clip-path-5)"><path d="M142.44,233H335.12V372.63H142.44Z" transform="translate(-14.94 -5.19)" style="fill:#fff"/></g></g><path d="M218.85,209.31a7.79,7.79,0,0,0-1.47,2.75,13,13,0,0,1-1.28,2.87,11.6,11.6,0,0,0-1.15,3.53c-.9,5.51-1.67,9-2.18,9.72a8.28,8.28,0,0,0-.57,3.07c-.07,1.22-.26,3.84-.52,5.76-.57,5.06-1,9-1,11.2l-.06,1.92-1.86-2.24a8.11,8.11,0,0,1-1.91-3.39,1.8,1.8,0,0,0-1-1.53c-1.27-.45-3.71-5.19-3.26-6.28a1.49,1.49,0,0,0-.58-1.6c-1-.83-2.3-6.13-1.79-7.48a1.78,1.78,0,0,0-.32-1.66,11,11,0,0,1-1.08-3.53c-.26-1.53-.78-2.68-1.29-2.68-2,0-6,12.73-6.07,19.51-.07,2.95-.2,3.59-.71,2.69a2.44,2.44,0,0,0-1.92-1.09,8.8,8.8,0,0,1-5.49-2.75,2.79,2.79,0,0,0-2.31-.89c-1.09.38-6.14-.71-7.29-1.6a3.4,3.4,0,0,0-2.24-.26,102,102,0,0,1-12.22,1.28,4.78,4.78,0,0,0-2.88.83,9.45,9.45,0,0,1-3.2,1.79c-1.47.64-2.69,1.41-2.69,1.86s1.22,1.21,2.75,1.86c4.48,1.85,12.48,8.63,19.84,16.88,8.05,9.15,14.9,15.55,18.74,17.6,1.54.83,2.81,1.66,2.81,1.92,0,.51-1.91.76-4,.57a5,5,0,0,0-2.56.77c-2.3,1.47-8.13,3.2-9.28,2.75a2.26,2.26,0,0,0-2,.45c-1.22,1.09-3.71,1.6-11.27,2.11-6.58.51-5.63.51-14.33-.06l-6.58-.39.38,1.73c1,4,6.65,10.43,12.41,14.14,4.67,3,9.47,4.6,17.4,5.63,15.55,2.11,31.41-1.66,51.89-12.28l8-4.16,4.15,2.42c12.61,7.43,29.43,10.62,43.51,8.27,8.38-1.42,11-2.24,18.3-5.9,7-3.52,14.14-9.33,17.66-14.39s2.94-6-2.12-3.52a17.46,17.46,0,0,1-6.14,1.92,3.89,3.89,0,0,0-2.56.51c-.51.84-9,.7-9.6-.12-.18-.39-1.08-.52-1.85-.33-2,.52-8-.76-9.34-1.91a2.09,2.09,0,0,0-2.05-.51c-1.21.44-7.42-1.42-8.7-2.62-.51-.52-1.79-.71-3.32-.52a6.19,6.19,0,0,1-2.5.06,17.25,17.25,0,0,1,3.39-2.56C283,265,293.37,253,299,241.94c2.94-5.89,3.39-7.23,3.44-10.81s0-4-1.21-4.22c-1-.14-1.73.5-2.82,2.43a11.76,11.76,0,0,1-3,3.58c-.84.57-1.54,1.34-1.54,1.67,0,1.46-6,5.37-7.86,5a1.48,1.48,0,0,0-1.47.9c-.52,1.22-7.11,4.35-8,3.78-.33-.19-1.48.38-2.57,1.34s-2.17,1.53-2.36,1.34c-.39-.38,3.07-5.88,5.05-7.93.77-.83,1.15-1.73.84-2.05-.65-.64-7.94.9-8.51,1.79s-5.7,3.33-6.85,3.33a1.47,1.47,0,0,0-1.28.89c-.39,1-5.31,4.49-6.4,4.55-.45,0-1.34.7-2.1,1.6-1.22,1.47-1.29,1.47-1.35.32,0-.71.83-5.32,1.85-10.24,1.73-8.32,2.63-11.39,5.44-17.78,1-2.31,1-2.37-.25-2.37a11.53,11.53,0,0,0-3.84,1.28,12.32,12.32,0,0,1-3.59,1.28,1.57,1.57,0,0,0-1.34,1.09,14.27,14.27,0,0,1-3.39,3.71,15.4,15.4,0,0,0-3.14,3c-.06.77-4.09,6.28-4.6,6.28-.26,0-1.22,1.59-2.24,3.58s-2.3,3.83-3,4.15a2.16,2.16,0,0,0-1.15,1.74,10.18,10.18,0,0,1-.89,2.68l-.9,1.6-.45-2.56a36.2,36.2,0,0,0-.76-3.84c-.19-.7-.58-2.75-.84-4.48A90,90,0,0,0,224.8,226a3.71,3.71,0,0,1-.38-2.05c.19-.19,0-.95-.38-1.72a21.29,21.29,0,0,1-1.28-4.35c-.33-1.66-.78-3.91-1-4.93s-.51-2.56-.71-3.39C220.84,207.94,220.13,207.88,218.85,209.31ZM224,228.82c.77,2.69,2.18,8.77,3.2,13.57,1.47,7.23,1.66,8.83.9,9.4a2.82,2.82,0,0,0-.84,1.85c0,1.6-1.66,5.38-2.81,6.34a1.63,1.63,0,0,0-.64,1.6,5.37,5.37,0,0,1-.58,3l-.89,2.17-.51-1.85a12.57,12.57,0,0,0-3-4.29,11.33,11.33,0,0,1-2.49-3.14,10.07,10.07,0,0,0-2.24-2.94c-1.66-1.59-2.24-2.75-2.24-4.29,0-3.19,1.79-17.46,2.88-23.41,1-5,3.78-14.91,4.67-16.38.19-.32,1,2.56,1.79,6.4s2,9.26,2.75,12Zm30.46-4.35c-1.22,2-2.57,3.58-2.88,3.58s-.64.71-.64,1.6c0,1.73-1.47,5.06-3,6.78a3,3,0,0,0-.77,1.6c.19.9-.77,4.29-1.66,5.7a13,13,0,0,0-1.15,3.71,24.73,24.73,0,0,1-1.6,5.12,21.46,21.46,0,0,0-1.67,5,10.81,10.81,0,0,1-1.65,4,5.77,5.77,0,0,0-1.29,2.62c0,1.28-2.5,6.27-3.39,6.9a2,2,0,0,0-.83,1.42c-.19,1.47-3.52,5.5-4.54,5.5a1.53,1.53,0,0,0-1.22,1,17.89,17.89,0,0,1-2.49,3.07l-2.11,2.11-2-1.67a6.34,6.34,0,0,1-2-2.42.8.8,0,0,0-.84-.77h-.06c-1.34,0-4.86-3.14-5.56-4.93-.32-.77-.9-1.47-1.34-1.47-1,0-4.36-4.67-4.36-6a1.8,1.8,0,0,0-1-1.47c-1.28-.45-3.51-4.8-3.51-6.78a3.41,3.41,0,0,0-1-2.37c-1.22-1-3-7.3-2.49-8.64A1.34,1.34,0,0,0,199,246c-.7-.39-.9-2.76-1-10.62l-.06-10.12,1.47,6.66c1.92,8.19,3.53,11,13.06,23.29,4.15,5.37,7.93,10.43,8.44,11.33a31,31,0,0,1,1.6,6.07l.77,4.48.06-4c.26-13.63,19.13-45.36,30.46-51.19a8.27,8.27,0,0,1,2.75-1.08,18.76,18.76,0,0,1-2.05,3.69Zm-58,5.51c-1,14.33,2.37,28.27,9.47,38.57,2.81,4.23,5.12,6.59,13.95,14.78,4.54,4.16,4.35,5.25-.84,4.23-8.88-1.67-15.35-8.26-20.72-21.11-4-9.6-5.25-15.3-5.25-24.63-.06-6.28.19-9.22,1.09-12,1.47-4.8,2.37-7.1,2.62-6.78a65.66,65.66,0,0,1-.29,7Zm57.07,1.15c-.7,2.11-2,8.05-2.94,13-2.37,12.86-5.31,21.76-9.54,28.86-4.41,7.49-7.35,10.88-11.51,13.24-4,2.31-4.86,2.37-4.86.45,0-.89,1.4-2.81,3.9-5.24a57.76,57.76,0,0,0,6.08-7.17c2.75-4.09,7.23-14.58,9.53-22.27,3-9.72,9.53-25.84,10.3-25.13a18.65,18.65,0,0,1-.93,4.3Zm47.92,1.66c-1,4-6.08,13.88-9.73,18.81a114.16,114.16,0,0,1-18.1,17.91c-4.22,3.14-13.63,7.81-17.85,8.83l-1.92.45,1.41-1.79a26.36,26.36,0,0,1,6.08-4.35c10.36-5.57,25.46-18.75,30.71-26.74,3.13-4.87,7.48-13.44,7.48-14.85a6.36,6.36,0,0,1,.7-2.49c.71-1.28.77-1.28,1.41-.19.48.87.42,2.21-.16,4.45Zm-5.31,2.82a3.69,3.69,0,0,0-1.08,2c0,1-3.27,5.95-4.29,6.65a2,2,0,0,0-.84,1.54c0,1.34-6.26,8.51-7.42,8.51a1.8,1.8,0,0,0-1.41,1.14c-.64,1.6-5.3,5.7-7.35,6.47-1,.38-1.73,1-1.73,1.47,0,1.15-6.59,5.63-8.25,5.63-.77,0-1.34.39-1.34.84s-.84,1.34-1.92,1.91-1.92,1-1.92.84a24.81,24.81,0,0,1,2.05-4.17c1.79-3.39,2.1-3.64,2.87-2.75s.77.71.45-1.46a5.1,5.1,0,0,1,.57-3.84c1-1.22,1-1.15,1.92.95.77,1.73,1,1.92,1,.9a10,10,0,0,0-.63-3.33c-.57-1.66-.39-2.43,1.08-5.3a16.67,16.67,0,0,1,2.76-4.23c.58-.38,4.28-2.11,8.25-3.77,7.42-3.07,15.54-8.2,16.76-10.56.45-.7.9-1.15,1.09-1s0,1-.59,1.6Zm-115.29,4a35.61,35.61,0,0,1,7,3.39l3.2,2,.77,5.12c.7,4.35.63,5.5-.14,7.55-1.2,3.14-1.15,5.31.07,2.43a5.78,5.78,0,0,1,1.15-1.92c.77.83,5.25,13.37,4.8,13.37a11.34,11.34,0,0,1-2.69-2.24,10.05,10.05,0,0,0-2.74-2.24c-.84-.06-5.38-4.35-5.38-5.11,0-.33-.64-.9-1.4-1.35-2.12-1-5.64-4.54-5.64-5.44,0-.44-1-1.34-2.3-1.92a12.62,12.62,0,0,1-4-3.26c-1-1.15-2.11-2.11-2.55-2.11-1.16,0-6.53-3.72-6.53-4.48,0-.39-.64-.64-1.41-.64a24,24,0,0,1-5-1.28l-3.41-1.17,1.85-.69c5.83-2.19,17.73-2.25,24.38,0Zm92.38-.4c-.12.14-1.47,1.29-3,2.57a20.48,20.48,0,0,0-4.41,5.31,23.1,23.1,0,0,1-2.69,4.34,17.85,17.85,0,0,0-1.86,3,18.1,18.1,0,0,1-2.87,4.17,15.25,15.25,0,0,0-2.44,3.26c-.64,2-11.19,12.92-12.48,12.92-.44,0-.95.58-1.21,1.22-.32,1-2.24,2.49-2.24,1.66,0-.13,1-1.92,2.24-4s2.24-3.32,2.24-2.94a.79.79,0,0,0,.64.83c.45,0,.45-.38,0-1.28a2.45,2.45,0,0,1,0-2.63c.7-1.27.77-1.27,1.6-.12,1.08,1.34,1.28.12.32-1.73a3.06,3.06,0,0,1,.13-2.88l.77-1.66,1,1.79c1.22,2.37,1.67.9.52-1.85-.77-1.8-.77-2.57,0-5.19s1.47-3.45,6.46-7.16,15.54-9.85,17-9.92c.31.05.46.18.31.3ZM272.11,243c-1.91,2.81-5.81,10.29-11.64,22.39-3,6.39-8.38,14.07-12.16,17.52s-13.24,6.4-18.23,5.83c-1.79-.2-1.79-.2,1.09-2.05a33.09,33.09,0,0,0,4.73-3.78,66,66,0,0,1,6.53-5c6-4,12.8-11.83,20.6-23.6,5.44-8.19,9.91-14.08,10.75-14.08a12,12,0,0,1-1.64,2.78Zm-111.22,1.31c5.24,2.36,11.83,7.35,20.15,15.22,9.47,9.09,12.67,11.65,16.12,13.18a9.59,9.59,0,0,1,4.35,3.91l1.53,2.69h-2c-5.06,0-14.59-7.23-25.47-19.39-6.4-7.16-13.24-13.37-17.78-16.25C155.76,242.36,157.3,242.75,160.89,244.31Zm119.55,33.75c17,4.68,24.89,5.38,31.67,2.88.76-.32.38.26-1,1.47a8,8,0,0,1-3.33,2c-.64,0-1.15.26-1.15.57,0,.71-5.5,3.91-6.65,3.91a12.9,12.9,0,0,0-3.27,1.27,18.5,18.5,0,0,1-4.73,1.67,19.52,19.52,0,0,0-4.55,1.41,14.63,14.63,0,0,1-5.56.95c-1.86,0-3.39.26-3.39.52,0,.89-7.94.7-8.83-.19-.57-.58-1.09-.64-1.92-.13-1.47.95-9-.58-10.05-2.05a1.28,1.28,0,0,0-1.53-.64c-1,.64-7.1-1.47-7.55-2.56-.19-.51-1.15-.89-2.11-.89-2.44,0-2.88-.9-1-1.79a23.2,23.2,0,0,0,4-2.95,13.73,13.73,0,0,1,4.28-2.68l1.79-.45L254,282.87c-2.62,4.16-2.76,4.48-1.22,3.14a19,19,0,0,0,3-3.91c1.47-2.43,4.92-4.8,5.76-3.9.19.19-.71,2.24-2,4.61s-2.24,4.41-2,4.6c.45.45,5.5-7.29,5.95-9.14.25-1.09,3.26-3.27,4.73-3.39C268.44,274.8,273.87,276.31,280.44,278.06Zm37.17,2.11c-5.5,8-18,15.94-29.82,19-4.79,1.29-7.35,1.54-15,1.48-12.15,0-18.43-1.48-29.43-6.85l-8-3.9,3.39-.83c3.2-.83,3.52-.77,8,1.15,10,4.29,18.61,6.33,27,6.33,13.5,0,31-6.65,41.39-15.67,2.24-1.92,4.1-3.52,4.23-3.52a17.64,17.64,0,0,1-1.8,2.81Zm-110.24,3.52c3.91,3.26,7.43,4.93,11.32,5.57l3.21.44-1.92.77a4.82,4.82,0,0,1-2.82.45,1.64,1.64,0,0,0-1.66.71c-1,1.41-5.76,3.07-7.17,2.55a1.46,1.46,0,0,0-1.72.58c-.83,1.09-4,2.31-8.07,3.07-1.59.32-4.15.89-5.75,1.29a16.4,16.4,0,0,1-5.18.31c-1.41-.26-2.57-.13-2.82.26-.45.77-8.77,1-9.47.25a12.06,12.06,0,0,0-3.58-.51,18.93,18.93,0,0,1-5.89-1.41c-1.53-.7-3.84-1.66-5-2.17-3-1.09-7-3.65-7-4.41,0-.39-.64-.65-1.47-.65a6.16,6.16,0,0,1-3.39-2c-1.48-1.54-1.6-1.86-.58-1.47a67.5,67.5,0,0,0,9.09.83,76,76,0,0,0,26.85-3.84c7.17-2.24,10.49-2.88,16-3,3.84-.11,4.22,0,7,2.38Zm22.4,6.46h2.36L228,292.46a197,197,0,0,1-22.84,10.23,79.64,79.64,0,0,1-11.19,2.5c-18,2.56-31.48-.44-40.82-9.08-5.5-5.06-6.2-6.72-1.47-3.53,5,3.4,12.79,7,17.59,8.13,5.32,1.22,18.75,1.22,25.27,0s16.9-4.73,25-8.25c3.46-1.6,6.66-2.69,7.11-2.56a17.57,17.57,0,0,0,3.16.25Z" transform="translate(-14.94 -5.19)" style="fill:#74ab1a"/><path d="M216.74,222.31c-.26.38.51.63,1.86.63s2.3-.31,2.3-.63-.83-.64-1.86-.64S216.93,222,216.74,222.31Z" transform="translate(-14.94 -5.19)" style="fill:#74ab1a"/><path d="M218,226.18c-.26.38.38.63,1.53.63a3.57,3.57,0,0,0,2.31-.63c.25-.39-.39-.64-1.54-.64S218.21,225.79,218,226.18Z" transform="translate(-14.94 -5.19)" style="fill:#74ab1a"/><path d="M216.1,231.31c-.45.71,1.6.71,4.48,0,1.72-.45,1.6-.5-1.09-.57C217.83,230.72,216.29,230.91,216.1,231.31Z" transform="translate(-14.94 -5.19)" style="fill:#74ab1a"/><path d="M214.82,236.41c-.51.77,2.69.77,4.48,0,1-.45.7-.58-1.41-.58C216.44,235.78,215,236,214.82,236.41Z" transform="translate(-14.94 -5.19)" style="fill:#74ab1a"/><path d="M222.37,236.22a4.77,4.77,0,0,0,1.92,0c.38-.19-.06-.32-1.15-.32S221.73,236,222.37,236.22Z" transform="translate(-14.94 -5.19)" style="fill:#74ab1a"/><path d="M218,240.89c-.26.38.83.64,2.82.64,1.79,0,3.26-.32,3.26-.64s-1.28-.64-2.82-.64S218.21,240.51,218,240.89Z" transform="translate(-14.94 -5.19)" style="fill:#74ab1a"/><path d="M214.82,246c-.9.39-.25.57,2.43.57,2.3.07,3.59-.18,3.33-.57C220.13,245.25,216.61,245.25,214.82,246Z" transform="translate(-14.94 -5.19)" style="fill:#74ab1a"/><path d="M222.82,246c0,.32.7.64,1.59.64s1.61-.32,1.61-.64-.71-.64-1.61-.64S222.82,245.63,222.82,246Z" transform="translate(-14.94 -5.19)" style="fill:#74ab1a"/><path d="M215.78,251.77c-1.21.76,2.18.76,6.4.06,2.87-.51,2.87-.57-1.28-.64C218.6,251.19,216.29,251.44,215.78,251.77Z" transform="translate(-14.94 -5.19)" style="fill:#74ab1a"/><path d="M219.62,256.25c-.71.44-.13.64,2.11.64,1.92,0,2.94-.26,2.68-.64C223.9,255.42,220.9,255.42,219.62,256.25Z" transform="translate(-14.94 -5.19)" style="fill:#74ab1a"/><path d="M247.77,228.67a2.44,2.44,0,0,0,1.09,1.41c1,.83,1,.76.25-.58S247.77,227.71,247.77,228.67Z" transform="translate(-14.94 -5.19)" style="fill:#74ab1a"/><path d="M246.24,232.7c.63,1.16,1.21,1.79,1.34,1.34.31-1-1-3.39-1.79-3.39C245.44,230.65,245.66,231.62,246.24,232.7Z" transform="translate(-14.94 -5.19)" style="fill:#74ab1a"/><path d="M243.35,234.18c0,1.15,1.79,3.89,1.86,2.81a5,5,0,0,0-1-2.24C243.74,234.11,243.35,233.79,243.35,234.18Z" transform="translate(-14.94 -5.19)" style="fill:#74ab1a"/><path d="M242,240.31c.77,1.48,1.53,2.5,1.66,2.31.45-.45-1.79-4.93-2.43-4.93C240.92,237.69,241.3,238.84,242,240.31Z" transform="translate(-14.94 -5.19)" style="fill:#74ab1a"/><path d="M200.3,241.31a3.45,3.45,0,0,0-.52,2.12c.07,1.47.13,1.53.71.51C201.2,242.68,201.07,240.51,200.3,241.31Z" transform="translate(-14.94 -5.19)" style="fill:#74ab1a"/><path d="M238.17,241.72c0,1,2.63,6.33,2.94,6,.58-.52-1-4.73-2-5.57C238.62,241.72,238.17,241.53,238.17,241.72Z" transform="translate(-14.94 -5.19)" style="fill:#74ab1a"/><path d="M202.79,247c-.89,3.2-1.09,5.37-.51,5.69.32.26.83-.83,1-2.42C203.82,247.1,203.44,244.86,202.79,247Z" transform="translate(-14.94 -5.19)" style="fill:#74ab1a"/><path d="M236,249c.57,1.34,1.27,3.39,1.66,4.48s.76,2.11,1,2.11c.64,0-.32-4.29-1.41-6.66C235.74,245.88,234.65,246,236,249Z" transform="translate(-14.94 -5.19)" style="fill:#74ab1a"/><path d="M206.05,252.15c-.31.26-.51,2-.51,4,.07,2.75.2,3.33.7,2.44C207,257.4,206.76,251.39,206.05,252.15Z" transform="translate(-14.94 -5.19)" style="fill:#74ab1a"/><path d="M232.44,252.31c-.13,1.6,2,10,2.62,10.68,1.09,1-.07-6-1.4-9C233.05,252.6,232.44,251.83,232.44,252.31Z" transform="translate(-14.94 -5.19)" style="fill:#74ab1a"/><path d="M209.89,259.06c-.7,4.48-.64,5.89.19,5.06.32-.32.58-2.37.45-4.42l-.19-3.78Z" transform="translate(-14.94 -5.19)" style="fill:#74ab1a"/><path d="M229.44,259.12c.19.71.7,3.39,1.08,5.89s1,4.67,1.41,4.67c1.22,0-.7-9.72-2.17-11.19C229.28,258,229.22,258.31,229.44,259.12Z" transform="translate(-14.94 -5.19)" style="fill:#74ab1a"/><path d="M213.92,265.2l.07,4.16.58-3.14a9.38,9.38,0,0,0-.07-4.15C214.12,261.36,213.92,262.39,213.92,265.2Z" transform="translate(-14.94 -5.19)" style="fill:#74ab1a"/><path d="M227,269.36c.64,5.44,1.72,6.85,1.21,1.6a16.7,16.7,0,0,0-1-4.8C226.89,265.83,226.65,266.8,227,269.36Z" transform="translate(-14.94 -5.19)" style="fill:#74ab1a"/><path d="M218.15,267.57c-.7.64-.52,7.87.19,7.87.38,0,.64-1.79.64-4.16C219,267.12,218.91,266.74,218.15,267.57Z" transform="translate(-14.94 -5.19)" style="fill:#74ab1a"/><path d="M194.44,236.92a1.63,1.63,0,0,0,.32,1.41c.44.77.58.64.58-.51C195.31,236.31,195,236,194.44,236.92Z" transform="translate(-14.94 -5.19)" style="fill:#74ab1a"/><path d="M194.15,244.09c0,.9.13,1.21.32.77a3.33,3.33,0,0,0,0-1.6C194.28,242.88,194.15,243.19,194.15,244.09Z" transform="translate(-14.94 -5.19)" style="fill:#74ab1a"/><path d="M196,249.66c0,.83.31,1.47.64,1.47.82,0,.82-.71,0-1.92C196.07,248.44,196,248.5,196,249.66Z" transform="translate(-14.94 -5.19)" style="fill:#74ab1a"/><path d="M196,255.42a2.42,2.42,0,0,0,.64,1.79c.82.51.82-1,0-2.24C196.07,254.2,196,254.31,196,255.42Z" transform="translate(-14.94 -5.19)" style="fill:#74ab1a"/><path d="M199.15,261.31a1.46,1.46,0,0,0,.63,1c.39.19.64.13.64-.25a1.3,1.3,0,0,0-.64-1C199.44,260.86,199.15,260.91,199.15,261.31Z" transform="translate(-14.94 -5.19)" style="fill:#74ab1a"/><path d="M200.44,267.57a4.41,4.41,0,0,0,.65,1.47c.51.84.63.84.63-.13a1.79,1.79,0,0,0-.63-1.47C200.75,267.25,200.44,267.25,200.44,267.57Z" transform="translate(-14.94 -5.19)" style="fill:#74ab1a"/><path d="M205.54,272.56c.45.58,1,.83,1.09.71.45-.45-.45-1.67-1.22-1.67C205,271.6,205,272,205.54,272.56Z" transform="translate(-14.94 -5.19)" style="fill:#74ab1a"/><path d="M206.18,276.53c0,.83,1.85,2.43,2.24,2,.19-.19-.25-.83-1-1.47S206.18,276.21,206.18,276.53Z" transform="translate(-14.94 -5.19)" style="fill:#74ab1a"/><path d="M211.94,279.6a2.73,2.73,0,0,0,1.41,1c.38,0,.31-.45-.13-1a2.71,2.71,0,0,0-1.4-1C211.44,278.64,211.49,279.08,211.94,279.6Z" transform="translate(-14.94 -5.19)" style="fill:#74ab1a"/><path d="M214.5,284.4c1.28.83,2.11.83,1.6,0a1.75,1.75,0,0,0-1.47-.64C213.66,283.76,213.66,283.89,214.5,284.4Z" transform="translate(-14.94 -5.19)" style="fill:#74ab1a"/><path d="M249.18,242.17c0,.89.12,1.22.32.77a3.33,3.33,0,0,0,0-1.6C249.3,241,249.18,241.31,249.18,242.17Z" transform="translate(-14.94 -5.19)" style="fill:#74ab1a"/><path d="M247.58,246.45a2.08,2.08,0,0,0-.45,1.42c.06.82.19.82.71-.13C248.53,246.52,248.34,245.63,247.58,246.45Z" transform="translate(-14.94 -5.19)" style="fill:#74ab1a"/><path d="M246.93,252.86a1.56,1.56,0,0,0-.44,1.08c0,.39.32.32.77-.12s.58-.9.45-1.09a.54.54,0,0,0-.76.1Z" transform="translate(-14.94 -5.19)" style="fill:#74ab1a"/><path d="M244.05,257.52c0,.9.14,1.22.33.77a3.6,3.6,0,0,0,0-1.6C244.19,256.31,244.05,256.63,244.05,257.52Z" transform="translate(-14.94 -5.19)" style="fill:#74ab1a"/><path d="M244,263.67c0,.7.2.89.39.38a1.35,1.35,0,0,0-.06-1.22C244.12,262.58,243.93,263,244,263.67Z" transform="translate(-14.94 -5.19)" style="fill:#74ab1a"/><path d="M240.54,266.31a1.54,1.54,0,0,0-.45,1.09c0,.38.32.31.77-.13s.57-.9.44-1.09a.54.54,0,0,0-.75.12Z" transform="translate(-14.94 -5.19)" style="fill:#74ab1a"/><path d="M239.44,272.56c-.45.58-.52,1-.14,1s.77-.45,1-1,.25-1,.13-1A3.77,3.77,0,0,0,239.44,272.56Z" transform="translate(-14.94 -5.19)" style="fill:#74ab1a"/><path d="M235.44,275.89A1.5,1.5,0,0,0,235,277c0,.39.32.32.77-.13s.58-.89.45-1.08a.54.54,0,0,0-.76.11Z" transform="translate(-14.94 -5.19)" style="fill:#74ab1a"/><path d="M232.44,279.6c-.51.57-.51,1-.13,1,.77,0,1.67-1.22,1.22-1.66C233.37,278.77,232.86,279,232.44,279.6Z" transform="translate(-14.94 -5.19)" style="fill:#74ab1a"/><path d="M229.44,284.07c-.64.52-.89,1-.51,1a5.19,5.19,0,0,0,1.92-1c.64-.51.89-.95.51-.95A5.16,5.16,0,0,0,229.44,284.07Z" transform="translate(-14.94 -5.19)" style="fill:#74ab1a"/><path d="M290,241.79a1.83,1.83,0,0,0,.64,1.34c.39.19.65-.07.65-.57a1.6,1.6,0,0,0-.65-1.35C290.32,241,290,241.31,290,241.79Z" transform="translate(-14.94 -5.19)" style="fill:#74ab1a"/><path d="M286.92,244.73c.83,1.28,1.8,1.72,1.8.77a3.31,3.31,0,0,0-2-2.05C286.35,243.45,286.44,244,286.92,244.73Z" transform="translate(-14.94 -5.19)" style="fill:#74ab1a"/><path d="M282.32,245.82a6.23,6.23,0,0,0,1.27,2.11c1,1.21,1.29,1.34,1.29.51a3.28,3.28,0,0,0-1-2C282.76,245.25,282.32,245.11,282.32,245.82Z" transform="translate(-14.94 -5.19)" style="fill:#74ab1a"/><path d="M278.15,248.69a14.79,14.79,0,0,0,1.48,3.08c1.47,2.36,1.86.31.45-2.37C278.73,247,277.52,246.52,278.15,248.69Z" transform="translate(-14.94 -5.19)" style="fill:#74ab1a"/><path d="M273.36,250.81c0,1.47,2,6.08,2.62,6.08,1,0,.64-1.8-.7-4.48S273.36,249.31,273.36,250.81Z" transform="translate(-14.94 -5.19)" style="fill:#74ab1a"/><path d="M269.52,254.65a13,13,0,0,0,1.09,3.39c.89,2,1.09,2.17,1.28,1a6.34,6.34,0,0,0-.77-3.33C270,253.5,269.52,253.18,269.52,254.65Z" transform="translate(-14.94 -5.19)" style="fill:#74ab1a"/><path d="M169.77,240.19c-1.14,1.15-1.91,3.9-1.08,3.9.51,0,3.07-4.54,2.75-4.87S170.44,239.49,169.77,240.19Z" transform="translate(-14.94 -5.19)" style="fill:#74ab1a"/><path d="M177,241.66c-1.54,1.66-2.88,4.67-2.31,5.24s4.16-5.31,3.9-6.13C178.44,240.44,177.71,240.82,177,241.66Z" transform="translate(-14.94 -5.19)" style="fill:#74ab1a"/><path d="M183.35,244.86c-1.67,1.85-3.53,5.5-3.27,6.4.13.38,1.47-1.22,2.94-3.59C185.64,243.45,185.84,242.17,183.35,244.86Z" transform="translate(-14.94 -5.19)" style="fill:#74ab1a"/><path d="M188.44,249.79c-1.47,2-3.58,6.52-3.2,6.9s1.28-.89,3.58-5.11C191,247.74,190.76,246.58,188.44,249.79Z" transform="translate(-14.94 -5.19)" style="fill:#74ab1a"/><path d="M263.76,245a4,4,0,0,0,1,1c.83.7.9.64.57-.26S263.76,244.31,263.76,245Z" transform="translate(-14.94 -5.19)" style="fill:#74ab1a"/><path d="M261.2,247.16a4.8,4.8,0,0,0,1,1.79c1,1.22,1.29.51.58-1.28C262.35,246.58,261.2,246.31,261.2,247.16Z" transform="translate(-14.94 -5.19)" style="fill:#74ab1a"/><path d="M258.07,249.21a5,5,0,0,0,1.21,2.56c1,1.22,1.29,1.34,1.29.57a5.26,5.26,0,0,0-1.29-2.55C258.44,248.69,258.07,248.57,258.07,249.21Z" transform="translate(-14.94 -5.19)" style="fill:#74ab1a"/><path d="M254.17,251.39a13.28,13.28,0,0,0,1,2.68c1.15,2.43,2.49,2.95,1.85.71C256.6,253.31,254.17,250.42,254.17,251.39Z" transform="translate(-14.94 -5.19)" style="fill:#74ab1a"/><path d="M251.35,257a22.86,22.86,0,0,0,1.41,3.39c1.47,2.75,1.86.45.45-2.57C252,255.31,250.65,254.78,251.35,257Z" transform="translate(-14.94 -5.19)" style="fill:#74ab1a"/><path d="M266.44,283.56c-2.94,5.83-3.2,6.53-1.66,5.25s4.86-8.19,4.54-9.4C269.2,278.77,268.05,280.5,266.44,283.56Z" transform="translate(-14.94 -5.19)" style="fill:#74ab1a"/><path d="M273.49,284.71c-1.54,3.08-2.62,5.7-2.5,5.89.9.84,5.82-8.76,5.44-10.49C276.3,279.6,275,281.71,273.49,284.71Z" transform="translate(-14.94 -5.19)" style="fill:#74ab1a"/><path d="M280.52,285.36c-2.23,5.24-2.55,6.46-1.08,4.34s4.15-7.61,4.15-8.43C283.59,279.41,282.38,281,280.52,285.36Z" transform="translate(-14.94 -5.19)" style="fill:#74ab1a"/><path d="M288,285c-.58,1.6-1.22,3.39-1.47,4s-.2,1.15.19,1.15c.9,0,2.87-5.31,2.56-6.78C289,282.54,288.65,283.05,288,285Z" transform="translate(-14.94 -5.19)" style="fill:#74ab1a"/><path d="M293.9,285.61c-.45,1.47-.64,2.89-.45,3.07.57.64,1.72-2.49,1.53-4.16S294.67,283.12,293.9,285.61Z" transform="translate(-14.94 -5.19)" style="fill:#74ab1a"/><path d="M298.76,285.31a3.4,3.4,0,0,0-.19,2.18c.51.51,1.15-1.6.89-2.88C299.27,283.76,299.08,284,298.76,285.31Z" transform="translate(-14.94 -5.19)" style="fill:#74ab1a"/><path d="M302.6,285c-.2.7-.07,1.27.25,1.27s.58-.57.58-1.27-.13-1.28-.26-1.28S302.79,284.31,302.6,285Z" transform="translate(-14.94 -5.19)" style="fill:#74ab1a"/><path d="M247.38,294.31c1.73,1.35,3.4,1.28,2.3,0a3.23,3.23,0,0,0-2.17-.95C246.17,293.42,246.17,293.42,247.38,294.31Z" transform="translate(-14.94 -5.19)" style="fill:#74ab1a"/><path d="M289.61,296.31c-1.15,1-1.15,1,.38.63a19.22,19.22,0,0,1,2.12-.38c.25,0,.44-.32.44-.64C292.55,295,291,295.14,289.61,296.31Z" transform="translate(-14.94 -5.19)" style="fill:#74ab1a"/><path d="M258.65,296.55a5.67,5.67,0,0,0,2.55.64c1.29,0,1.41-.12.65-.64a5.78,5.78,0,0,0-2.57-.64C258,295.91,257.88,296,258.65,296.55Z" transform="translate(-14.94 -5.19)" style="fill:#74ab1a"/><path d="M273,299.75a2.76,2.76,0,0,0,2,.64c.84,0,1.54-.32,1.54-.64s-.9-.63-2-.63S272.78,299.37,273,299.75Z" transform="translate(-14.94 -5.19)" style="fill:#74ab1a"/><path d="M196,283.63c0,1.34,1.85,5.44,3.65,7.93,2.87,4.16,2.94,2.62.12-2.56C196.78,283.63,196,282.41,196,283.63Z" transform="translate(-14.94 -5.19)" style="fill:#74ab1a"/><path d="M203,284.31c0,.77,3.32,5.31,4.66,6.46,1.86,1.47,1.22,0-1.47-3.58C203.62,283.82,203,283.25,203,284.31Z" transform="translate(-14.94 -5.19)" style="fill:#74ab1a"/><path d="M189,287.31c.82,2.94,3.57,7.94,4.41,7.94s-2.94-8.26-4.23-9.54C188.44,284.91,188.44,285.16,189,287.31Z" transform="translate(-14.94 -5.19)" style="fill:#74ab1a"/><path d="M181.23,289.31c.07,2.49,3.26,8.12,4.16,7.23.2-.26-3.14-7.42-3.78-8.06C181.44,288.24,181.23,288.55,181.23,289.31Z" transform="translate(-14.94 -5.19)" style="fill:#74ab1a"/><path d="M174.2,290.79c0,1.73,1.78,6.09,2.36,5.57s-1.09-6.14-1.79-6.59C174.44,289.58,174.2,290,174.2,290.79Z" transform="translate(-14.94 -5.19)" style="fill:#74ab1a"/><path d="M160.76,292a3.51,3.51,0,0,0,.68,2.3c.39.26.65-.38.65-1.53s-.26-2.11-.65-2.31S160.76,290.86,160.76,292Z" transform="translate(-14.94 -5.19)" style="fill:#74ab1a"/><path d="M167.67,290.79a7.73,7.73,0,0,0,1.47,5.38c.51.51.58.13.25-1.54C168.63,291.05,168.05,289.7,167.67,290.79Z" transform="translate(-14.94 -5.19)" style="fill:#74ab1a"/><path d="M220.51,294.31c-1.53,1.15-.44,1.22,1.67,0,1-.57,1.21-.89.57-.95A5,5,0,0,0,220.51,294.31Z" transform="translate(-14.94 -5.19)" style="fill:#74ab1a"/><path d="M213.22,296.23c-1,.58-1.21.9-.58,1a4.9,4.9,0,0,0,2.24-1C216.44,295.08,215.33,295,213.22,296.23Z" transform="translate(-14.94 -5.19)" style="fill:#74ab1a"/><path d="M160.12,299.62c0,.65,3.2,2.24,3.64,1.79.2-.12-.57-.76-1.66-1.34S160.12,299.31,160.12,299.62Z" transform="translate(-14.94 -5.19)" style="fill:#74ab1a"/><path d="M206.88,300.14c-1.14.51-2,1.08-1.85,1.22.38.44,4.35-1.16,4.35-1.74,0-.25-.06-.5-.13-.45S208.1,299.62,206.88,300.14Z" transform="translate(-14.94 -5.19)" style="fill:#74ab1a"/><path d="M198.57,301.09c-.83.32-1.41.71-1.28.9.51.45,3.13-.45,3.13-1,0-.31-.06-.57-.12-.5A17.68,17.68,0,0,0,198.57,301.09Z" transform="translate(-14.94 -5.19)" style="fill:#74ab1a"/><path d="M169.44,303c1.74.76,2.24.76,2.24,0,0-.39-.76-.64-1.72-.57C168.31,302.38,168.24,302.44,169.44,303Z" transform="translate(-14.94 -5.19)" style="fill:#74ab1a"/><path d="M182.83,303.59a1.6,1.6,0,0,0,2.24.32,1.62,1.62,0,0,0,.32-.32c.25-.38-.32-.64-1.28-.64S182.58,303.21,182.83,303.59Z" transform="translate(-14.94 -5.19)" style="fill:#74ab1a"/><path d="M189.74,304a7,7,0,0,0,2.24,0c.57-.19.06-.33-1.15-.33S189.1,303.85,189.74,304Z" transform="translate(-14.94 -5.19)" style="fill:#74ab1a"/><path d="M177,304.68a5.11,5.11,0,0,0,1.91,0c.39-.19-.06-.32-1.15-.32S176.3,304.49,177,304.68Z" transform="translate(-14.94 -5.19)" style="fill:#74ab1a"/><path d="M41.33,320.65v25.4h-3V326.61a3.78,3.78,0,0,1,.07-.87l-8.72,15.85a1.32,1.32,0,0,1-1.25.82H28a1.27,1.27,0,0,1-1.24-.82l-8.89-15.91a14.22,14.22,0,0,1,.11,1.73v18.64h-3v-25.4h2.52a2,2,0,0,1,.69.11.84.84,0,0,1,.48.48l8.8,15.7a9.16,9.16,0,0,1,.4.89c.13.31.27.62.39.93l.34-.93c.12-.31.29-.62.45-.94L37.6,321.3a.9.9,0,0,1,.45-.49,2.3,2.3,0,0,1,.73-.1Z" transform="translate(-14.94 -5.19)" style="fill:#003f00"/><path d="M56.48,346.05H53.06v-25.4h3.42Z" transform="translate(-14.94 -5.19)" style="fill:#003f00"/><path d="M88.83,334.1v9.76a14.84,14.84,0,0,1-4.11,2.07,16.61,16.61,0,0,1-4.75.66,15.57,15.57,0,0,1-5.53-.94A12.28,12.28,0,0,1,70.22,343a11.31,11.31,0,0,1-2.66-4.08,14.46,14.46,0,0,1-.93-5.29,14.67,14.67,0,0,1,.89-5.29,11.94,11.94,0,0,1,2.6-4.08,11.31,11.31,0,0,1,4.08-2.66,14.84,14.84,0,0,1,5.36-.94,16.37,16.37,0,0,1,2.8.24,11.51,11.51,0,0,1,2.39.62,12.09,12.09,0,0,1,2,1,15.24,15.24,0,0,1,1.77,1.34l-1,1.54a1.06,1.06,0,0,1-.62.45.93.93,0,0,1-.79-.17c-.27-.15-.6-.36-1-.59a6.87,6.87,0,0,0-1.35-.69,9,9,0,0,0-1.83-.56,12.9,12.9,0,0,0-2.56-.23,9.73,9.73,0,0,0-3.88.72,8.26,8.26,0,0,0-4.84,5.16,12.73,12.73,0,0,0-.62,4.11,13.25,13.25,0,0,0,.65,4.29,9,9,0,0,0,2,3.22,8.23,8.23,0,0,0,3.08,2,11.13,11.13,0,0,0,4.08.7,11.68,11.68,0,0,0,3.11-.39,13.25,13.25,0,0,0,2.69-1.14v-5.57H81.77a.77.77,0,0,1-.55-.17.63.63,0,0,1-.21-.48v-2Z" transform="translate(-14.94 -5.19)" style="fill:#003f00"/><path d="M113.71,343.17v2.88H99.32v-25.4h3.43V343.2Z" transform="translate(-14.94 -5.19)" style="fill:#003f00"/><path d="M138.39,343.25v2.8H122.76v-25.4H138.4v2.8H126.17v8.45h9.9v2.7h-9.9v8.65Z" transform="translate(-14.94 -5.19)" style="fill:#003f00"/><path d="M169,320.66v25.4h-1.73a1.34,1.34,0,0,1-.65-.14,1.59,1.59,0,0,1-.55-.48l-14.67-19.13v19.75h-3v-25.4h1.77a2.41,2.41,0,0,1,.38,0,1,1,0,0,1,.28.1.59.59,0,0,1,.24.17,2.37,2.37,0,0,1,.27.28L166,340.34c0-.32-.06-.62-.08-.9s0-.57,0-.83V320.66Z" transform="translate(-14.94 -5.19)" style="fill:#003f00"/><path d="M194.17,336.64l-4-10.34c-.12-.3-.24-.67-.37-1.07s-.24-.84-.35-1.28c-.27.94-.51,1.74-.76,2.38l-4,10.31Zm7.16,9.41h-2.66a1.18,1.18,0,0,1-.73-.21,1.35,1.35,0,0,1-.42-.63l-2.38-6.12H183.76l-2.38,6.12a1.15,1.15,0,0,1-.42.59,1.1,1.1,0,0,1-.73.25h-2.66l10.13-25.4h3.5Z" transform="translate(-14.94 -5.19)" style="fill:#003f00"/><path d="M246.43,336.64l-4-10.34c-.12-.3-.25-.67-.39-1.07s-.23-.84-.34-1.28a22,22,0,0,1-.77,2.38l-4,10.31Zm7.16,9.41h-2.66a1.13,1.13,0,0,1-.72-.21,1.28,1.28,0,0,1-.42-.63l-2.39-6.12H236.05l-2.39,6.12a1,1,0,0,1-.41.59,1.07,1.07,0,0,1-.72.25h-2.67L240,320.65h3.49Z" transform="translate(-14.94 -5.19)" style="fill:#003f00"/><path d="M280.62,320.65l-10.35,25.4H267.2l-10.34-25.4h2.73a1.25,1.25,0,0,1,.77.25,1.71,1.71,0,0,1,.4.59l7.16,17.88q.24.61.45,1.35c.14.48.3.95.42,1.46.11-.51.23-1,.35-1.46a9.71,9.71,0,0,1,.45-1.35l7.12-17.88a1.21,1.21,0,0,1,.41-.56,1.17,1.17,0,0,1,.76-.28Z" transform="translate(-14.94 -5.19)" style="fill:#003f00"/><path d="M295.87,333a9,9,0,0,0,2.63-.36,5.42,5.42,0,0,0,1.9-1.07,4.36,4.36,0,0,0,1.18-1.6,5.46,5.46,0,0,0,.37-2,4.05,4.05,0,0,0-1.48-3.42,7.31,7.31,0,0,0-4.46-1.14h-3.74v9.59Zm11.72,13.07h-3a1.5,1.5,0,0,1-1.38-.73l-6.6-9.06a2,2,0,0,0-.63-.59,2.07,2.07,0,0,0-1.07-.2h-2.6v10.58h-3.42v-25.4H296a15.67,15.67,0,0,1,4.15.5,7.7,7.7,0,0,1,2.9,1.42,5.7,5.7,0,0,1,1.7,2.24,7.24,7.24,0,0,1,.55,2.91,7.07,7.07,0,0,1-.45,2.49,6.93,6.93,0,0,1-1.21,2.15,7.37,7.37,0,0,1-2,1.59,8.91,8.91,0,0,1-2.62,1,3.61,3.61,0,0,1,1.13,1.07Z" transform="translate(-14.94 -5.19)" style="fill:#003f00"/><path d="M331,336.64l-4-10.34c-.12-.3-.25-.67-.39-1.07s-.22-.84-.34-1.28a24.4,24.4,0,0,1-.76,2.38l-4,10.31Zm7.16,9.41h-2.66a1.08,1.08,0,0,1-.72-.21,1.28,1.28,0,0,1-.42-.63L332,339.09H320.63l-2.39,6.12a1,1,0,0,1-.41.59,1.07,1.07,0,0,1-.72.25h-2.67l10.14-25.4h3.49Z" transform="translate(-14.94 -5.19)" style="fill:#003f00"/><path d="M373.73,320.65v25.4h-3V327.41a5.34,5.34,0,0,1,0-.8,4.34,4.34,0,0,1,.06-.87l-8.72,15.85a1.32,1.32,0,0,1-1.24.82h-.48a1.29,1.29,0,0,1-1.25-.82l-8.89-15.91a14.22,14.22,0,0,1,.11,1.73v18.64h-3v-25.4h2.54a2,2,0,0,1,.68.11.86.86,0,0,1,.49.48l8.82,15.7c.14.27.27.58.41.89s.26.62.38.93c.11-.31.23-.62.35-.93s.29-.62.45-.94L370,321.3a.87.87,0,0,1,.45-.49,2.22,2.22,0,0,1,.73-.1Z" transform="translate(-14.94 -5.19)" style="fill:#003f00"/><path d="M408.39,333.62a14.3,14.3,0,0,1-.93,5.26A12,12,0,0,1,404.9,343a11.3,11.3,0,0,1-3.95,2.66,14.34,14.34,0,0,1-10.2,0,11.51,11.51,0,0,1-6.5-6.77,15.73,15.73,0,0,1,0-10.49,12,12,0,0,1,2.56-4.11,11.44,11.44,0,0,1,3.94-2.66,13.93,13.93,0,0,1,10.2,0,11.08,11.08,0,0,1,3.95,2.66,12.11,12.11,0,0,1,2.56,4.11A14.35,14.35,0,0,1,408.39,333.62Zm-3.52,0a12.46,12.46,0,0,0-.67-4.19,8.7,8.7,0,0,0-1.79-3.14,8.24,8.24,0,0,0-2.83-2,9.8,9.8,0,0,0-3.71-.68,9.94,9.94,0,0,0-3.73.68,8.14,8.14,0,0,0-2.84,2,8.72,8.72,0,0,0-1.8,3.14,14.51,14.51,0,0,0,0,8.41,8.52,8.52,0,0,0,1.8,3.11,7.92,7.92,0,0,0,2.84,2,9.75,9.75,0,0,0,3.73.68,9.61,9.61,0,0,0,3.71-.68,8,8,0,0,0,2.83-2,8.58,8.58,0,0,0,1.79-3.11,12.39,12.39,0,0,0,.71-4.22Z" transform="translate(-14.94 -5.19)" style="fill:#003f00"/><path d="M437.63,320.65l-10.35,25.4h-3.07l-10.34-25.4h2.73a1.2,1.2,0,0,1,.76.25,1.35,1.35,0,0,1,.41.59l7.16,17.88q.24.61.45,1.35c.14.48.3.95.42,1.46.11-.51.23-1,.35-1.46a9.71,9.71,0,0,1,.45-1.35l7.12-17.88a1.21,1.21,0,0,1,.41-.56,1.17,1.17,0,0,1,.76-.28Z" transform="translate(-14.94 -5.19)" style="fill:#003f00"/><path d="M456.79,336.64l-4-10.34c-.12-.3-.25-.67-.39-1.07s-.23-.84-.34-1.28a22,22,0,0,1-.77,2.38l-4,10.31Zm7.16,9.41h-2.62a1.15,1.15,0,0,1-.72-.21,1.35,1.35,0,0,1-.42-.63l-2.38-6.12H446.43L444,345.21a1.08,1.08,0,0,1-.41.59,1.1,1.1,0,0,1-.73.25h-2.66l10.13-25.4h3.44Z" transform="translate(-14.94 -5.19)" style="fill:#003f00"/></svg>