<?xml version="1.0" encoding="utf-8"?>
<!-- Generator: Adobe Illustrator 26.0.1, SVG Export Plug-In . SVG Version: 6.00 Build 0)  -->
<svg version="1.1" id="Layer_1" xmlns="http://www.w3.org/2000/svg" xmlns:xlink="http://www.w3.org/1999/xlink" x="0px" y="0px"
	 viewBox="0 0 500 500" style="enable-background:new 0 0 500 500;" xml:space="preserve">
<style type="text/css">
	.st0{fill:#FFC600;}
</style>
<g>
	<path class="st0" d="M248.89,7.89C114.95,7.89,5.99,116.85,5.99,250.78c0,133.93,108.96,242.89,242.89,242.89
		s242.89-108.96,242.89-242.89C491.78,116.85,382.82,7.89,248.89,7.89 M248.89,499.37c-137.07,0-248.59-111.52-248.59-248.59
		C0.29,113.71,111.81,2.19,248.89,2.19s248.59,111.52,248.59,248.59C497.48,387.85,385.96,499.37,248.89,499.37"/>
	<path class="st0" d="M274.12,107.38C274.12,107.38,274.12,107.38,274.12,107.38L274.12,107.38z M272.34,319.65
		c-0.95,0-1.88-0.48-2.42-1.34c-0.83-1.34-0.42-3.09,0.91-3.92c9.59-5.97,25.34-16.71,46.79-31.91
		c35.57-25.21,47.92-52.08,48.04-52.36c0.59-1.31,2.06-1.98,3.44-1.56l37.92,11.68c0.5,0.16,1.04,0.1,1.51-0.15
		c0.25-0.14,0.7-0.46,0.88-1.07c0.09-0.31,0.18-0.62,0.26-0.94l-18.85-8.01c-1.2-0.51-1.91-1.78-1.7-3.07
		c0.21-1.29,1.27-2.28,2.57-2.39l19.53-1.68c-0.03-0.59-0.08-1.17-0.14-1.76c-0.04-0.43-0.38-0.72-0.83-0.72l-16.69,1.43
		c-1.26,0.11-2.43-0.62-2.89-1.79c-0.46-1.17-0.1-2.51,0.89-3.29l14.98-11.73c-0.24-0.51-0.5-1.02-0.77-1.52
		c-0.21-0.4-0.56-0.56-0.75-0.62c-0.19-0.06-0.58-0.13-0.99,0.09l-20.49,10.87c-1.13,0.6-2.53,0.37-3.41-0.56
		c-0.88-0.93-1.03-2.34-0.36-3.44l13.13-21.62c-0.39-0.3-0.79-0.6-1.2-0.89l-0.74-0.52c-0.17-0.11-0.41-0.07-0.54,0.11
		c-0.1,0.14-0.22,0.28-0.34,0.4l-12.12,11.57c-0.92,0.88-2.31,1.04-3.42,0.39c-1.1-0.65-1.63-1.95-1.3-3.18l4.17-15.78
		c-0.67-0.2-1.34-0.38-2-0.54c-0.28-0.08-0.54,0.07-0.6,0.32l-5.27,19.98c-0.33,1.25-1.46,2.12-2.75,2.12h-0.01
		c-1.3,0-2.43-0.88-2.75-2.13l-5.05-19.46c-0.03-0.11-0.05-0.21-0.06-0.31c-0.06-0.42-0.28-0.79-0.62-1.05
		c-0.19-0.15-0.6-0.37-1.14-0.3c-0.34,0.05-0.67,0.1-1,0.15l2.91,20.36c0.18,1.26-0.5,2.48-1.66,3c-1.16,0.52-2.52,0.21-3.34-0.76
		l-14.06-16.65c-0.92,0.54-1.79,1.09-2.61,1.65l24.45,37.8c2.55,3.99-1.96,9.95-6.81,15.71l-2.36,2.92
		c-4.19,5.24-8.52,10.65-13.33,15.57c-7.77,7.93-17.61,15.3-27.12,22.43c-4.61,3.45-8.96,6.71-13,9.97
		c-4.42,3.57-14.45,10.96-22.89,16.22c-2.25,1.4-4.12,1.54-5.54,0.39c-2.35-1.89-1.1-5.42-0.43-7.32
		c2.42-6.83,6.02-18.67,9.83-31.19c2.88-9.48,5.87-19.29,8.66-28.01c15.33-47.86,9.09-79.3,9.02-79.62
		c-0.29-1.39,0.49-2.78,1.82-3.26l44.22-15.91c0.56-0.2,0.86-0.81,0.68-1.35c-0.28-0.81-0.58-1.62-0.9-2.41l-22.24,7.82
		c-1.24,0.44-2.62-0.01-3.34-1.11c-0.72-1.1-0.6-2.55,0.29-3.51l16.6-17.84c-0.67-0.82-1.38-1.62-2.1-2.38
		c-0.31-0.32-0.83-0.34-1.16-0.04l-18.13,16.21c-0.98,0.87-2.42,0.97-3.5,0.23s-1.52-2.11-1.07-3.34l8.96-24.36
		c-0.96-0.5-1.96-0.99-2.99-1.45c-0.3-0.13-0.69-0.07-0.85,0.26c-0.05,0.11-0.11,0.22-0.18,0.33l-14.41,22.52
		c-0.68,1.06-1.97,1.55-3.17,1.21c-1.21-0.34-2.05-1.43-2.08-2.69l-0.5-25.66c-0.01-0.41-0.42-0.63-0.83-0.62
		c-0.35,0-0.71,0-1.06,0.01c-0.59,0.01-1.17,0.03-1.75,0.06l0.33,23.93c0.03,1.34-0.88,2.51-2.18,2.82
		c-1.3,0.31-2.64-0.31-3.23-1.51l-10.84-22.03c-1.26,0.46-2.5,0.96-3.67,1.5l9.77,23.59c0.5,1.21,0.1,2.61-0.96,3.38
		c-1.06,0.77-2.5,0.72-3.51-0.13l-20.13-16.94c-0.69,0.66-1.38,1.34-2.06,2.03c-0.33,0.34-0.34,0.87-0.02,1.19l14.19,14.18
		c0.86,0.86,1.08,2.17,0.54,3.27c-0.53,1.09-1.71,1.72-2.91,1.58l-21.23-2.68c-0.22-0.03-0.43-0.08-0.64-0.16
		c-0.58-0.22-1.22,0.08-1.45,0.68c-0.32,0.82-0.62,1.64-0.89,2.44l48.72,18.18c4.35,1.62,4.87,8.35,4.3,18.68
		c-0.03,0.56-0.06,1.02-0.07,1.35l-0.09,2.92c-0.23,7.68-0.47,15.62-1.5,23.43c-2.42,18.39-21.32,82.85-27.07,97.62
		c-0.57,1.46-2.21,2.19-3.69,1.62c-1.47-0.57-2.19-2.22-1.62-3.69c5.69-14.59,24.35-78.19,26.73-96.29
		c0.99-7.52,1.22-15.32,1.45-22.86l0.09-2.93c0.01-0.36,0.04-0.87,0.07-1.48c0.54-9.89-0.33-12.44-0.81-13.1l-51.02-19.04
		c-1.38-0.52-2.14-1.99-1.75-3.41c0.49-1.8,1.11-3.66,1.84-5.52c1.31-3.34,5.02-5.1,8.39-4.05l12.69,1.6l-8.3-8.29
		c-2.51-2.51-2.53-6.63-0.04-9.2c0.74-0.75,1.49-1.5,2.26-2.22c2.21-2.09,5.78-2.02,7.95,0.15l10.91,9.18l-5.32-13.08
		c-1.11-2.73,0.14-5.95,2.79-7.16c1.45-0.67,2.98-1.28,4.54-1.83c2.65-0.93,5.56,0.39,6.62,3.02l5.19,10.53l-0.22-11.02
		c-0.06-3.16,2.38-5.76,5.55-5.93c0.64-0.03,1.28-0.06,1.93-0.07c0.46-0.01,0.93-0.01,1.39-0.01c3.42,0.01,6.24,2.8,6.31,6.21
		l0.32,16.26l9.26-14.47c1.53-2.99,5.1-4.25,8.23-2.86c2,0.89,3.89,1.87,5.64,2.9c1.18,0.7,1.7,2.15,1.23,3.44l-5.86,15.92
		l9.61-8.59c2.61-2.34,6.69-2.17,9.1,0.37c1.42,1.5,2.77,3.11,4,4.78c0.81,1.1,0.73,2.63-0.21,3.63l-10.25,11.02l10.99-3.95
		c2.91-1.04,6.23,0.44,7.41,3.32c0.36,0.89,0.7,1.8,1.02,2.72c1.19,3.47-0.67,7.31-4.14,8.56l-41.97,15.11
		c1.23,8.46,3.91,37.9-9.59,80.06c-2.78,8.69-5.75,18.47-8.63,27.93c-3.53,11.6-6.87,22.61-9.3,29.71
		c7.49-4.89,15.52-10.84,19.31-13.9c4.12-3.32,8.51-6.61,13.17-10.09c9.34-7,19-14.23,26.47-21.86c4.61-4.71,8.85-10.01,12.95-15.14
		l1.62-2.02c0.2-0.25,0.49-0.59,0.84-1.01c5.08-6.04,6.1-8.36,6.2-9.24l-24.18-37.77c-1.6-2.5-0.94-5.89,1.48-7.54
		c1.56-1.07,3.24-2.09,5.14-3.1c1.19-0.63,2.65-0.35,3.52,0.68l9.17,10.87l-1.89-13.23c-0.21-1.47,0.75-2.86,2.2-3.19
		c1.32-0.29,2.66-0.53,4.01-0.73c1.91-0.28,3.82,0.21,5.37,1.37c1.52,1.13,2.51,2.77,2.82,4.63l2.28,8.79l2.5-9.45
		c0.85-3.22,4.19-5.19,7.46-4.4c1.67,0.4,3.37,0.92,5.06,1.53c1.39,0.5,2.16,1.98,1.79,3.41l-2.28,8.61l4.65-4.44
		c1.98-2.48,5.61-3.03,8.23-1.22l0.82,0.58c1.18,0.85,2.33,1.75,3.44,2.69c1.07,0.91,1.32,2.45,0.59,3.65L390,204l11.35-6.02
		c1.66-0.88,3.55-1.06,5.34-0.5c1.79,0.55,3.25,1.76,4.12,3.41c0.7,1.32,1.32,2.65,1.87,3.97c0.49,1.18,0.13,2.54-0.88,3.33
		l-9.2,7.2l7.16-0.61c3.52-0.29,6.63,2.3,6.99,5.81c0.17,1.65,0.25,3.32,0.24,4.98c-0.01,1.47-1.14,2.69-2.61,2.81l-10.79,0.93
		l10.5,4.46c1.23,0.52,1.93,1.84,1.68,3.15c-0.23,1.23-0.53,2.46-0.88,3.68c-0.56,1.93-1.85,3.54-3.64,4.5
		c-1.8,0.97-3.95,1.19-5.9,0.58l-35.6-10.96c-3.79,7.23-17.54,30.23-48.82,52.4c-21.55,15.27-37.38,26.07-47.08,32.1
		C273.37,319.51,272.85,319.65,272.34,319.65"/>
	<path class="st0" d="M263.76,435.12c-0.1,0-0.19,0-0.29-0.01c-1.56-0.16-2.71-1.56-2.55-3.12c0.09-0.84,7.94-84.52-33.02-147
		c-41.82-63.79-64.98-163.73-65.21-164.73c-0.35-1.53,0.61-3.06,2.15-3.41c1.53-0.36,3.06,0.61,3.41,2.14
		c0.23,0.99,23.17,99.96,64.42,162.88c42.09,64.2,34.01,149.84,33.93,150.7C266.44,434.03,265.2,435.12,263.76,435.12"/>
	<path class="st0" d="M238.79,237.56c-5.32,2.17-9.72,6.04-12.58,11.12c-2.86,5.08-3.9,10.85-3.01,16.52
		c5.32-2.17,9.72-6.04,12.58-11.12C238.64,249,239.68,243.23,238.79,237.56 M221.1,271.77c-1.24,0-2.39-0.83-2.74-2.09
		c-2.25-8.06-1.22-16.52,2.89-23.81c4.11-7.29,10.82-12.55,18.88-14.79c1.52-0.42,3.09,0.46,3.51,1.98
		c2.25,8.06,1.22,16.52-2.89,23.81c-4.11,7.29-10.82,12.54-18.88,14.79C221.61,271.74,221.35,271.77,221.1,271.77"/>
	<path class="st0" d="M218.02,199.38c-5.18,2.48-9.34,6.61-11.9,11.85c-2.56,5.24-3.25,11.06-2.02,16.67
		c5.18-2.48,9.34-6.61,11.9-11.85C218.55,210.81,219.24,204.99,218.02,199.38 M202.22,234.59c-1.18,0-2.29-0.74-2.69-1.92
		c-2.72-7.92-2.2-16.42,1.48-23.94c3.67-7.52,10.06-13.16,17.97-15.88c1.49-0.51,3.11,0.28,3.62,1.77
		c2.72,7.92,2.2,16.42-1.48,23.94c-3.67,7.52-10.05,13.16-17.97,15.88C202.83,234.53,202.52,234.59,202.22,234.59"/>
	<path class="st0" d="M199.2,156.91c-10.26,5.85-15.2,18.08-11.91,29.41C197.55,180.47,202.5,168.24,199.2,156.91 M185.69,193.14
		c-0.36,0-0.73-0.07-1.07-0.21c-0.7-0.28-1.26-0.83-1.56-1.53c-6.74-15.91,0.72-34.34,16.63-41.08c1.45-0.61,3.12,0.06,3.74,1.51
		c6.74,15.91-0.72,34.34-16.63,41.08C186.45,193.06,186.07,193.14,185.69,193.14"/>
	<path class="st0" d="M191.86,120.81c-10.95,4.42-17.49,15.87-15.74,27.55C187.06,143.93,193.61,132.48,191.86,120.81
		 M173.99,154.92c-1.25,0-2.4-0.83-2.75-2.1c-2.2-8.08-1.13-16.53,3.02-23.79c4.15-7.27,10.89-12.48,18.96-14.69
		c1.52-0.42,3.08,0.48,3.5,2c2.2,8.08,1.13,16.53-3.02,23.79c-4.15,7.27-10.89,12.48-18.96,14.69
		C174.49,154.89,174.24,154.92,173.99,154.92"/>
	<path class="st0" d="M169.3,217.48c5.8,10.28,18,15.3,29.35,12.05c-2.81-5.01-7.2-8.89-12.59-11.11
		C180.67,216.21,174.82,215.9,169.3,217.48 M191.67,236.21c-12.27,0-23.94-7.25-28.96-19.26c-0.29-0.7-0.29-1.48-0.01-2.18
		c0.29-0.7,0.84-1.26,1.54-1.55c7.72-3.23,16.24-3.25,23.99-0.07c7.74,3.18,13.78,9.18,17.01,16.91c0.61,1.45-0.08,3.12-1.53,3.73
		C199.77,235.43,195.69,236.21,191.67,236.21"/>
	<path class="st0" d="M187.36,254.63c2.61,5.12,6.83,9.18,12.12,11.61c5.3,2.44,11.13,2.99,16.71,1.63
		C210.83,257.37,198.84,251.86,187.36,254.63 M210.17,274.3c-4.46,0-8.9-0.96-13.06-2.88c-7.61-3.5-13.4-9.74-16.3-17.59
		c-0.55-1.48,0.21-3.11,1.68-3.66c16.2-6.01,34.27,2.3,40.27,18.5c0.55,1.48-0.21,3.12-1.68,3.66
		C217.53,273.65,213.85,274.3,210.17,274.3"/>
	<path class="st0" d="M151.9,175.18c2.81,5.01,7.2,8.89,12.59,11.1c5.4,2.22,11.25,2.53,16.77,0.94c-2.82-5.01-7.2-8.89-12.59-11.11
		C163.27,173.9,157.42,173.59,151.9,175.18 M174.23,193.92c-4.03,0-8.06-0.79-11.9-2.36c-7.74-3.18-13.79-9.18-17.01-16.9
		c-0.61-1.45,0.07-3.12,1.53-3.73c7.72-3.23,16.24-3.26,23.98-0.08c7.74,3.18,13.79,9.18,17.02,16.9c0.61,1.45-0.08,3.12-1.53,3.73
		C182.42,193.1,178.33,193.92,174.23,193.92"/>
	<path class="st0" d="M142.64,136.43c2.41,5.21,6.48,9.43,11.68,12.06c5.2,2.63,11.01,3.4,16.64,2.25
		C165.98,140.04,154.21,134.09,142.64,136.43 M165.85,156.96c-4.85,0-9.66-1.14-14.1-3.38c-7.47-3.78-13.02-10.24-15.64-18.19
		c-0.49-1.5,0.32-3.11,1.82-3.6c16.41-5.39,34.16,3.58,39.55,19.99c0.49,1.5-0.32,3.11-1.82,3.6
		C172.45,156.44,169.14,156.96,165.85,156.96"/>
	<path class="st0" d="M158.36,84.22c-5.06,10.67-2.11,23.53,7.08,30.93c2.47-5.18,3.12-11.01,1.81-16.69
		C165.96,92.77,162.84,87.81,158.36,84.22 M166.4,122.17c-0.52,0-1.04-0.14-1.51-0.44c-14.64-9.18-19.08-28.56-9.89-43.2
		c0.84-1.33,2.6-1.73,3.93-0.9c7.09,4.45,12.03,11.39,13.89,19.55c1.87,8.16,0.45,16.56-4,23.65
		C168.27,121.69,167.35,122.17,166.4,122.17"/>
	<path class="st0" d="M382.49,290.73c-8.44,8.89-24.39,19.53-54.56,28.19c-30.96,8.9-46.3,31.49-53.9,51.14
		c9.77-15.2,26.59-31.29,55.3-38.13C363.21,323.87,376.94,305.01,382.49,290.73 M263.76,406.64c-0.07,0-0.13,0-0.2-0.01
		c-1.52-0.11-2.68-1.38-2.65-2.9c0.01-0.72,2.2-72.11,65.45-90.28c59.21-17.02,59.9-40.47,59.9-40.71c0-1.56,1.26-2.84,2.83-2.85
		c1.45-0.08,2.84,1.24,2.87,2.81v0.04v0.05c-0.02,2.38-1.19,50.37-61.3,64.68c-57.1,13.6-63.8,64.49-64.06,66.65
		C266.41,405.56,265.19,406.64,263.76,406.64"/>
	<path class="st0" d="M232.89,414.47c-0.23,0-0.47-0.03-0.7-0.09c-1.52-0.39-2.45-1.94-2.06-3.46c6.83-26.86-3.85-57.14-3.95-57.45
		c-0.65-1.92-16.2-45.51-95.33-38.01c-1.58,0.15-2.95-1-3.11-2.57c-0.15-1.57,1-2.95,2.57-3.11
		c83.95-7.94,100.59,39.79,101.26,41.83c0.44,1.23,11.34,32.17,4.09,60.7C235.33,413.61,234.17,414.47,232.89,414.47"/>
	<path class="st0" d="M181.85,349.41c2.61,3.15,15.62,16.1,44.64,2.51c-0.15-0.48-0.17-1.01-0.04-1.54
		c3.71-14.57,2.3-26.53-4.21-35.56c-10.44-14.49-31.07-17.38-34.96-17.81l-7.89,3.29c-0.88,0.36-1.89,0.27-2.68-0.26
		c-2.68-1.78-16.56-5.61-25.56-7.83l-4.62,3.46c-0.45,0.34-1,0.54-1.57,0.56c-31.6,1.58-48.69,19.41-54.82,27.44l24.26,1.77
		c0.83,0.06,1.58,0.48,2.08,1.14c0.5,0.66,0.68,1.51,0.5,2.32l-0.6,2.68l26.1-1.87c1.6-0.09,2.93,1.07,3.05,2.64l0.51,7.22
		l32.85-1.31c0.77-0.01,1.53,0.26,2.09,0.79c0.56,0.54,0.87,1.28,0.87,2.05V349.41z M202.76,363.65c-5.58,0-10.04-1.07-13.45-2.39
		c-8.61-3.36-12.52-9.06-12.68-9.3c-0.32-0.47-0.48-1.02-0.48-1.59v-6.29l-32.65,1.3c-1.57,0.04-2.85-1.11-2.95-2.64l-0.51-7.13
		l-27.07,1.93c-0.92,0.05-1.77-0.3-2.36-0.98c-0.59-0.68-0.82-1.6-0.62-2.48l0.71-3.19L84.79,329c-0.97-0.07-1.84-0.63-2.3-1.49
		c-0.46-0.85-0.45-1.89,0.02-2.74c0.72-1.3,18.13-31.62,61.29-34.17l5.01-3.75c0.68-0.51,1.56-0.7,2.38-0.49
		c3.67,0.89,20.97,5.16,27.26,8.16l7.29-3.04c0.41-0.17,0.86-0.24,1.3-0.21c1.09,0.08,26.71,2.07,39.8,20.19
		c7.56,10.47,9.29,24.04,5.13,40.33c-0.17,0.68-0.58,1.24-1.12,1.62c0.44,1.34-0.18,2.83-1.49,3.45
		C218.68,361.94,209.83,363.65,202.76,363.65"/>
	<path class="st0" d="M206,382.95c-2.03,0-4.01,0.17-5.79,0.42c-7.86,1.08-15.79,4.29-22.94,9.28l-13.17,9.19
		c-1.24,0.87-2.68,1.91-3.99,3.06c-13.04,11.47-15.84,24.82-16.34,31.78l12.14-7.5c0.7-0.43,1.56-0.54,2.35-0.29
		c0.79,0.25,1.43,0.83,1.76,1.59l0.21,0.48l12.27-10.29c1.21-1.01,3-0.85,4.01,0.35l2.48,2.95l16.36-12.87
		c0.61-0.48,1.39-0.68,2.16-0.58c0.77,0.11,1.46,0.52,1.91,1.15l2.26,3.12c4.88-2.32,17.22-9.8,17.22-25.97
		c0-0.5,0.13-0.97,0.36-1.38c-0.4-0.44-0.64-0.67-0.66-0.68C215.34,383.83,210.56,382.95,206,382.95 M140.92,444.63
		c-0.42,0-0.85-0.09-1.24-0.28c-0.88-0.42-1.48-1.26-1.59-2.23c-0.11-0.94-2.48-23.28,18.25-41.5c1.52-1.33,3.13-2.49,4.5-3.45
		l13.17-9.19c7.88-5.5,16.67-9.04,25.42-10.25c10.16-1.4,17.92,0.25,23.06,4.9c8.43,8.28,20.47,27.83,6.39,43.16
		c-1.06,1.16-2.86,1.23-4.03,0.17c-1.16-1.07-1.23-2.87-0.17-4.03c5.75-6.26,6.56-13.98,2.39-22.93c-0.87-1.86-1.86-3.58-2.86-5.12
		c-2.89,19.96-22.38,27.05-22.59,27.13c-1.19,0.42-2.51,0.01-3.25-1.02l-1.85-2.56l-16.2,12.74c-1.21,0.95-2.95,0.77-3.94-0.41
		l-2.42-2.88l-13.02,10.91c-0.69,0.58-1.61,0.8-2.49,0.59c-0.88-0.21-1.6-0.82-1.96-1.64l-0.41-0.96l-13.67,8.44
		C141.96,444.49,141.44,444.63,140.92,444.63"/>
</g>
</svg>
