<?xml version="1.0" encoding="utf-8"?>
<!-- Generator: Adobe Illustrator 26.0.1, SVG Export Plug-In . SVG Version: 6.00 Build 0)  -->
<svg version="1.1" id="Layer_1" xmlns="http://www.w3.org/2000/svg" xmlns:xlink="http://www.w3.org/1999/xlink" x="0px" y="0px"
	 viewBox="0 0 500 500" style="enable-background:new 0 0 500 500;" xml:space="preserve">
<style type="text/css">
	.st0{clip-path:url(#SVGID_00000099650019564433615040000009153462881976329361_);fill:#FFC600;}
</style>
<g>
	<defs>
		<rect id="SVGID_1_" x="0.16" y="0.25" width="499.95" height="499.95"/>
	</defs>
	<clipPath id="SVGID_00000042700690812376728900000011190360910978978209_">
		<use xlink:href="#SVGID_1_"  style="overflow:visible;"/>
	</clipPath>
	<path style="clip-path:url(#SVGID_00000042700690812376728900000011190360910978978209_);fill:#FFC600;" d="M250.13,494.47
		C115.45,494.47,5.89,384.9,5.89,250.22C5.89,115.55,115.45,5.98,250.13,5.98s244.25,109.57,244.25,244.24
		C494.38,384.9,384.81,494.47,250.13,494.47 M250.13,0.25C112.3,0.25,0.16,112.39,0.16,250.22S112.3,500.2,250.13,500.2
		s249.97-112.14,249.97-249.97S387.97,0.25,250.13,0.25"/>
	<path style="clip-path:url(#SVGID_00000042700690812376728900000011190360910978978209_);fill:#FFC600;" d="M387.86,214.44
		c0,3.91-3.18,7.09-7.09,7.09H369.7h-84.83v-53.47h24.36h71.49c3.94,0,7.15,3.21,7.15,7.15V214.44z M363.97,390.73
		c0,3.91-3.18,7.09-7.09,7.09h-83.47V227.26h90.56V390.73z M136.3,390.73V227.26h90.56v170.56h-83.47
		C139.48,397.82,136.3,394.64,136.3,390.73 M119.5,221.53c-3.91,0-7.09-3.18-7.09-7.09v-39.29c0-3.91,3.18-7.09,7.09-7.09h95.9
		v53.47h-84.83H119.5z M159.16,138.84c-0.38-4.3,1.87-10.23,7.07-18.65c5.51-8.95,10.24-14.14,14.87-16.33
		c1.97-0.92,7.18-3.38,17.92,3.25l0,0c19.27,11.88,45.21,40.38,48.01,55.22h-54.95c-8.23-3.07-15.89-6.63-21.08-9.83
		C160.94,146.32,159.43,141.74,159.16,138.84 M267.68,397.82h-35.09V227.26h35.09V397.82z M221.13,221.53v-53.47h26.23h31.77v53.47
		H221.13z M301.25,107.12L301.25,107.12c10.73-6.63,15.95-4.18,17.92-3.25c4.63,2.19,9.36,7.37,14.87,16.33
		c5.2,8.42,7.45,14.34,7.07,18.63c-0.27,2.91-1.78,7.49-11.84,13.68c-5.19,3.2-12.85,6.77-21.07,9.83h-54.96
		C256.04,147.5,281.98,118.99,301.25,107.12 M380.71,162.34h-57.75c3.52-1.67,6.71-3.35,9.31-4.95
		c12.24-7.53,14.16-13.9,14.54-18.05c0.5-5.67-1.94-12.5-7.9-22.15c-6.12-9.94-11.62-15.82-17.31-18.51
		c-4.29-2.02-11.38-3.84-23.37,3.56c-16.6,10.23-40.04,33.95-48.11,51.71c-8.07-17.76-31.51-41.48-48.11-51.71
		c-11.99-7.4-19.08-5.58-23.37-3.56c-5.68,2.68-11.18,8.56-17.3,18.5c-5.96,9.65-8.4,16.48-7.9,22.17
		c0.38,4.13,2.3,10.5,14.54,18.04c2.6,1.6,5.79,3.29,9.31,4.95H119.5c-7.07,0-12.82,5.75-12.82,12.82v39.29
		c0,7.07,5.75,12.82,12.82,12.82h11.07v163.47c0,7.07,5.75,12.82,12.82,12.82h213.49c7.07,0,12.82-5.75,12.82-12.82V227.26h11.07
		c7.07,0,12.82-5.75,12.82-12.82v-39.23C393.59,168.12,387.81,162.34,380.71,162.34"/>
</g>
</svg>
