<?xml version="1.0" encoding="utf-8"?>
<!-- Generator: Adobe Illustrator 26.0.1, SVG Export Plug-In . SVG Version: 6.00 Build 0)  -->
<svg version="1.1" id="Layer_1" xmlns="http://www.w3.org/2000/svg" xmlns:xlink="http://www.w3.org/1999/xlink" x="0px" y="0px"
	 viewBox="0 0 500 500" style="enable-background:new 0 0 500 500;" xml:space="preserve">
<style type="text/css">
	.st0{fill:#FFC600;}
</style>
<g>
	<path class="st0" d="M250.79,6.5C116.21,6.5,6.72,115.99,6.72,250.57c0,134.58,109.49,244.07,244.07,244.07
		c134.58,0,244.07-109.49,244.07-244.07C494.86,115.99,385.37,6.5,250.79,6.5 M250.79,500.37c-137.74,0-249.8-112.06-249.8-249.8
		c0-137.74,112.06-249.8,249.8-249.8c137.74,0,249.8,112.06,249.8,249.8C500.59,388.31,388.53,500.37,250.79,500.37"/>
</g>
<g>
	<g>
		<path class="st0" d="M347.9,337c-14.92,0-27.06-12.14-27.06-27.05V191.04c0-18.45,16.14-27.04,27.06-27.04
			c10.91,0,27.05,8.59,27.05,27.04v118.91C374.96,324.86,362.82,337,347.9,337z M347.9,169.46c-8.71,0-21.59,6.86-21.59,21.58
			v118.91c0,11.9,9.69,21.59,21.59,21.59c11.9,0,21.59-9.68,21.59-21.59V191.04C369.49,176.32,356.61,169.46,347.9,169.46z
			 M158.76,337c-14.92,0-27.05-12.14-27.05-27.05V191.04c0-18.45,16.14-27.04,27.05-27.04c10.9,0,27.04,8.59,27.04,27.04v118.91
			C185.8,324.86,173.67,337,158.76,337z M158.76,169.46c-8.71,0-21.59,6.86-21.59,21.58v118.91c0,11.9,9.69,21.59,21.59,21.59
			c11.9,0,21.58-9.68,21.58-21.59V191.04C180.34,176.32,167.46,169.46,158.76,169.46z M401.96,293.76
			c-8.96,0-16.25-7.29-16.25-16.25v-54.04c0-11.07,9.7-16.23,16.25-16.23s16.25,5.16,16.25,16.23v54.04
			C418.21,286.47,410.92,293.76,401.96,293.76z M401.96,212.71c-4.35,0-10.78,3.42-10.78,10.77v54.04c0,5.95,4.84,10.78,10.78,10.78
			s10.78-4.84,10.78-10.78v-54.04C412.75,216.13,406.31,212.71,401.96,212.71z M104.71,293.76c-8.95,0-16.23-7.29-16.23-16.25
			v-54.04c0-11.07,9.69-16.23,16.23-16.23c6.55,0,16.25,5.16,16.25,16.23v54.04C120.96,286.47,113.67,293.76,104.71,293.76z
			 M104.71,212.71c-4.34,0-10.77,3.42-10.77,10.77v54.04c0,5.95,4.83,10.78,10.77,10.78c5.95,0,10.78-4.84,10.78-10.78v-54.04
			C115.5,216.13,109.06,212.71,104.71,212.71z M310.1,272.15H196.55v-43.3H310.1V272.15z M202.01,266.68h102.62v-32.38H202.01
			V266.68z"/>
	</g>
</g>
</svg>
