<?xml version="1.0" encoding="utf-8"?>
<!-- Generator: Adobe Illustrator 26.0.1, SVG Export Plug-In . SVG Version: 6.00 Build 0)  -->
<svg version="1.1" id="Layer_1" xmlns="http://www.w3.org/2000/svg" xmlns:xlink="http://www.w3.org/1999/xlink" x="0px" y="0px"
	 viewBox="0 0 500 500" style="enable-background:new 0 0 500 500;" xml:space="preserve">
<style type="text/css">
	.st0{fill:#FFC600;}
</style>
<path class="st0" d="M156.62,142.98l0.01,2.88l18.28-0.04l-0.01-2.89L156.62,142.98z M184.73,150.59c0.01,0.03,0.01,0.06,0.02,0.09
	C184.74,150.63,184.74,150.6,184.73,150.59 M146.85,150.65c0,0.01-0.01,0.05-0.02,0.13C146.84,150.73,146.85,150.69,146.85,150.65
	 M144.89,152.69l-0.12,0.01C144.81,152.7,144.85,152.7,144.89,152.69 M191.58,263.12h0.03H191.58z M145.29,286.83
	c4.49,0.33,17.73,0.56,21.13,0.58c2.63-0.03,16.44-0.39,21.05-0.76c0.3-2.55,0.52-8.4,0.66-11.81l0.15-4.03
	c0.09-1.79,0.25-4.55,0.44-7.86c0-0.01,0.01-0.22,0.01-0.22c0.51-8.63,1.21-20.45,1.18-28.04c-0.03-6.69-0.29-20.89-0.51-32.29
	l-0.02-1.32c-0.12-6.51-0.23-12.29-0.28-15.73c-0.11-8.02-3.12-27.15-4.07-33.02l-4.88-0.51l-2.67,0.01h-0.01
	c-0.44,0-0.86-0.1-1.23-0.28l-20.98,0.05c-0.4,0.21-0.86,0.33-1.34,0.34l-2.51,0.01l-4.84,0.55c-0.92,6.02-3.73,25.02-3.77,33.05
	c-0.02,3.26-0.07,8.58-0.14,14.64c-0.13,12.42-0.28,27.58-0.24,34.69c0.03,7.7,0.88,20.15,1.44,28.39c0.23,3.31,0.41,5.98,0.5,7.7
	c0.06,1.15,0.12,2.45,0.18,3.84C144.7,278.52,144.96,284.31,145.29,286.83 M166.41,293.13c-0.92,0-22.63-0.01-24.72-1.26
	c-2.09-1.23-2.25-3.04-2.87-16.8c-0.06-1.37-0.11-2.65-0.17-3.78c-0.09-1.7-0.27-4.35-0.49-7.52c-0.57-8.41-1.43-20.97-1.46-28.85
	c-0.03-7.15,0.12-22.34,0.24-34.54c0.07-6.29,0.12-11.61,0.14-14.85c0.05-10.01,4.09-35.46,4.13-35.71c0.19-1.45,1.45-2.66,3-2.79
	l6.71-0.77l-0.02-6.1c0-0.76,0.3-1.49,0.83-2.03c0.54-0.54,1.27-0.84,2.02-0.84l23.99-0.06h0.01c1.58,0,2.86,1.28,2.86,2.85
	l0.03,6.06l6.8,0.72c1.54,0.18,2.74,1.34,2.96,2.83c0.02,0.09,4.29,25.53,4.43,35.6c0.05,3.44,0.16,9.2,0.28,15.71l0.02,1.32
	c0.22,11.42,0.48,25.64,0.51,32.37c0.04,7.78-0.67,19.7-1.19,28.41l-0.01,0.22c-0.19,3.29-0.35,6.03-0.44,7.77l-0.15,3.98
	c-0.52,13.6-0.66,15.39-2.73,16.63C189.02,292.93,166.63,293.13,166.41,293.13 M233.99,142.98l0.01,2.88l18.28-0.04l-0.01-2.89
	L233.99,142.98z M262.11,150.59c0.01,0.05,0.01,0.09,0.03,0.14C262.12,150.65,262.11,150.6,262.11,150.59 M224.23,150.65
	c0,0.01-0.01,0.05-0.02,0.13C224.22,150.73,224.22,150.69,224.23,150.65 M222.26,152.69l-0.12,0.01
	C222.18,152.7,222.22,152.7,222.26,152.69 M268.95,263.12h0.03H268.95z M222.66,286.83c4.5,0.33,17.73,0.56,21.13,0.58
	c2.63-0.03,16.45-0.39,21.06-0.76c0.29-2.49,0.51-8.17,0.65-11.81l0.15-4.03c0.09-1.78,0.25-4.55,0.44-7.85
	c0-0.01,0.01-0.22,0.01-0.22c0.51-8.63,1.21-20.45,1.18-28.04c-0.03-6.86-0.31-21.44-0.53-33.15l-0.01-0.46
	c-0.12-6.51-0.23-12.29-0.28-15.73c-0.11-8.02-3.12-27.15-4.07-33.02l-4.88-0.51l-2.67,0.01c-0.4,0-0.87-0.1-1.25-0.28l-20.98,0.05
	c-0.4,0.21-0.86,0.33-1.34,0.34l-2.51,0.01l-4.83,0.55c-0.92,6.02-3.74,25.03-3.78,33.05c-0.02,3.26-0.07,8.58-0.13,14.64
	c-0.11,11.56-0.27,27.39-0.25,34.7c0.04,7.64,0.87,20,1.43,28.18l0.02,0.31c0.22,3.21,0.4,5.89,0.49,7.61
	c0.07,1.14,0.12,2.45,0.18,3.84C222.06,278.29,222.33,284.25,222.66,286.83 M243.78,293.13c-0.92,0-22.63-0.01-24.72-1.25
	c-2.09-1.25-2.25-3.05-2.87-16.81c-0.06-1.37-0.11-2.65-0.18-3.78c-0.09-1.7-0.27-4.35-0.49-7.52l-0.02-0.31
	c-0.56-8.25-1.41-20.72-1.44-28.54c-0.03-7.35,0.13-23.2,0.25-34.78c0.06-6.06,0.11-11.38,0.13-14.62
	c0.05-10.07,4.09-35.51,4.13-35.74c0.18-1.42,1.45-2.63,2.99-2.77l6.71-0.77l-0.02-6.1c0-0.76,0.3-1.49,0.83-2.03
	c0.54-0.54,1.26-0.84,2.02-0.84l23.99-0.06h0.01c1.57,0,2.85,1.28,2.86,2.85l0.02,6.06l6.8,0.72c1.56,0.18,2.76,1.36,2.96,2.87
	c0.02,0.05,4.29,25.49,4.43,35.56c0.05,3.44,0.16,9.2,0.28,15.71l0.01,0.46c0.22,11.73,0.5,26.33,0.53,33.23
	c0.03,7.78-0.67,19.7-1.19,28.41l-0.01,0.22c-0.2,3.29-0.35,6.03-0.44,7.76l-0.15,3.99c-0.52,13.6-0.66,15.39-2.75,16.63
	C266.41,292.93,244,293.13,243.78,293.13 M307.75,142.98l0.01,2.88l18.28-0.04l-0.01-2.89L307.75,142.98z M335.86,150.59
	c0.01,0.05,0.01,0.09,0.02,0.14C335.87,150.65,335.87,150.6,335.86,150.59 M297.98,150.65c0,0.01-0.01,0.05-0.02,0.13
	C297.97,150.73,297.98,150.69,297.98,150.65 M296.02,152.69l-0.12,0.01C295.94,152.7,295.98,152.7,296.02,152.69 M342.71,263.12
	h0.03H342.71z M296.41,286.83c4.49,0.33,17.73,0.56,21.13,0.58c2.63-0.03,16.45-0.39,21.06-0.76c0.3-2.55,0.52-8.4,0.65-11.81
	l0.15-4.03c0.09-1.79,0.25-4.55,0.44-7.86l0.03-0.42c0.5-8.57,1.2-20.31,1.16-27.85c-0.03-6.69-0.29-20.88-0.51-32.28l-0.02-1.32
	c-0.12-6.51-0.23-12.29-0.28-15.73c-0.11-8.02-3.12-27.15-4.07-33.02l-4.88-0.51l-2.67,0.01c-0.41,0-0.86-0.1-1.25-0.28l-20.98,0.05
	c-0.4,0.21-0.86,0.33-1.34,0.34l-2.51,0.01l-4.84,0.55c-0.92,6.02-3.73,25.03-3.78,33.05c-0.02,3.25-0.07,8.58-0.13,14.64
	c-0.13,12.43-0.27,27.59-0.25,34.7c0.04,7.64,0.87,20,1.43,28.18l0.02,0.3c0.22,3.21,0.4,5.89,0.49,7.61
	c0.07,1.14,0.12,2.45,0.18,3.84C295.83,278.52,296.09,284.31,296.41,286.83 M317.53,293.13c-0.92,0-22.63-0.01-24.72-1.26
	c-2.08-1.23-2.24-3.04-2.87-16.8c-0.06-1.37-0.12-2.65-0.18-3.78c-0.09-1.7-0.27-4.35-0.49-7.52l-0.02-0.31
	c-0.56-8.25-1.4-20.72-1.44-28.54c-0.03-7.15,0.12-22.34,0.24-34.54c0.07-6.3,0.12-11.61,0.14-14.86
	c0.05-10.07,4.09-35.52,4.13-35.74c0.18-1.42,1.45-2.63,2.99-2.77l6.71-0.77l-0.01-6.11c0-1.58,1.28-2.87,2.85-2.87l23.99-0.06h0.01
	c1.58,0,2.86,1.28,2.86,2.85l0.03,6.06l6.8,0.72c1.56,0.18,2.76,1.36,2.96,2.87c0.02,0.05,4.29,25.49,4.43,35.56
	c0.05,3.44,0.16,9.2,0.28,15.71l0.02,1.32c0.22,11.42,0.48,25.64,0.51,32.37c0.03,7.72-0.66,19.56-1.17,28.21l-0.03,0.42v0
	c-0.19,3.29-0.35,6.03-0.44,7.76l-0.15,3.99c-0.51,13.6-0.66,15.38-2.73,16.63C340.16,292.93,317.75,293.13,317.53,293.13
	 M171.02,335.58c-0.98,0-1.79,0.8-1.79,1.79c0,0.99,0.8,1.79,1.79,1.79c0.99,0,1.79-0.8,1.79-1.79
	C172.81,336.38,172.01,335.58,171.02,335.58 M171.02,344.88c-4.14,0-7.52-3.37-7.52-7.52c0-4.14,3.37-7.52,7.52-7.52
	c4.15,0,7.52,3.37,7.52,7.52C178.54,341.51,175.17,344.88,171.02,344.88 M218.5,335.58c-0.98,0-1.79,0.8-1.79,1.79
	c0,0.99,0.8,1.79,1.79,1.79c0.99,0,1.79-0.8,1.79-1.79C220.29,336.38,219.49,335.58,218.5,335.58 M218.5,344.88
	c-4.14,0-7.52-3.37-7.52-7.52c0-4.14,3.37-7.52,7.52-7.52c4.15,0,7.52,3.37,7.52,7.52C226.02,341.51,222.65,344.88,218.5,344.88
	 M265.5,335.58c-0.99,0-1.79,0.8-1.79,1.79c0,0.99,0.8,1.79,1.79,1.79c0.98,0,1.79-0.8,1.79-1.79
	C267.29,336.38,266.48,335.58,265.5,335.58 M265.5,344.88c-4.15,0-7.52-3.37-7.52-7.52c0-4.14,3.37-7.52,7.52-7.52
	c4.14,0,7.52,3.37,7.52,7.52C273.01,341.51,269.64,344.88,265.5,344.88 M313.68,335.93c-0.99,0-1.79,0.8-1.79,1.79
	c0,0.99,0.8,1.79,1.79,1.79c0.98,0,1.79-0.8,1.79-1.79C315.47,336.74,314.67,335.93,313.68,335.93 M313.68,345.24
	c-4.15,0-7.52-3.37-7.52-7.52c0-4.14,3.37-7.52,7.52-7.52c4.14,0,7.52,3.37,7.52,7.52C321.2,341.87,317.83,345.24,313.68,345.24
	 M163.86,350.13h14.33l7.16-12.41l-7.16-12.41h-14.33l-7.16,12.41L163.86,350.13z M179.84,355.85h-17.63
	c-1.02,0-1.97-0.54-2.48-1.43l-8.82-15.27c-0.51-0.88-0.51-1.98,0-2.86l8.82-15.27c0.51-0.88,1.46-1.43,2.48-1.43h17.63
	c1.02,0,1.97,0.55,2.48,1.43l8.81,15.27c0.51,0.89,0.51,1.98,0,2.86l-8.81,15.27C181.81,355.31,180.87,355.85,179.84,355.85
	 M211.68,350.13h14.33l7.16-12.41l-7.16-12.41h-14.33l-7.16,12.41L211.68,350.13z M227.66,355.85h-17.63
	c-1.02,0-1.97-0.54-2.48-1.43l-8.82-15.27c-0.51-0.88-0.51-1.98,0-2.86l8.82-15.27c0.51-0.88,1.46-1.43,2.48-1.43h17.63
	c1.02,0,1.97,0.55,2.48,1.43l8.82,15.27c0.51,0.89,0.51,1.98,0,2.86l-8.82,15.27C229.63,355.31,228.69,355.85,227.66,355.85
	 M258.82,350.13h14.33l7.16-12.41l-7.16-12.41h-14.33l-7.16,12.41L258.82,350.13z M274.8,355.85h-17.63c-1.02,0-1.97-0.54-2.48-1.43
	l-8.82-15.27c-0.51-0.88-0.51-1.98,0-2.86l8.82-15.27c0.51-0.88,1.46-1.43,2.48-1.43h17.63c1.02,0,1.97,0.55,2.48,1.43l8.81,15.27
	c0.51,0.89,0.51,1.98,0,2.86l-8.81,15.27C276.76,355.31,275.82,355.85,274.8,355.85 M306.52,350.13h14.32l7.16-12.41l-7.16-12.41
	h-14.32l-7.16,12.41L306.52,350.13z M322.5,355.85h-17.63c-1.02,0-1.97-0.54-2.48-1.43l-8.82-15.27c-0.51-0.88-0.51-1.98,0-2.86
	l8.82-15.27c0.51-0.88,1.46-1.43,2.48-1.43h17.63c1.02,0,1.97,0.55,2.48,1.43l8.82,15.27c0.51,0.89,0.51,1.98,0,2.86l-8.82,15.27
	C324.47,355.31,323.52,355.85,322.5,355.85 M156.28,313.87c-7.65,0-13.88,6.22-13.88,13.87v19.97c0,7.65,6.22,13.87,13.88,13.87
	h170.88c7.65,0,13.87-6.22,13.87-13.87v-19.97c0-7.65-6.22-13.87-13.87-13.87H156.28z M327.16,367.31H156.28
	c-10.81,0-19.6-8.79-19.6-19.6v-19.97c0-10.8,8.8-19.6,19.6-19.6h170.88c10.81,0,19.6,8.8,19.6,19.6v19.97
	C346.76,358.51,337.97,367.31,327.16,367.31 M249.69,6.07c-134.6,0-244.1,109.51-244.1,244.1c0,134.6,109.5,244.1,244.1,244.1
	c134.6,0,244.1-109.5,244.1-244.1C493.79,115.57,384.29,6.07,249.69,6.07 M249.69,500C111.93,500-0.14,387.93-0.14,250.17
	c0-137.76,112.07-249.83,249.83-249.83s249.83,112.07,249.83,249.83C499.52,387.93,387.44,500,249.69,500"/>
</svg>
