<?xml version="1.0" encoding="utf-8"?>
<!-- Generator: Adobe Illustrator 26.0.1, SVG Export Plug-In . SVG Version: 6.00 Build 0)  -->
<svg version="1.1" id="Layer_1" xmlns="http://www.w3.org/2000/svg" xmlns:xlink="http://www.w3.org/1999/xlink" x="0px" y="0px"
	 viewBox="0 0 500 500" style="enable-background:new 0 0 500 500;" xml:space="preserve">
<style type="text/css">
	.st0{fill:#FFC600;}
</style>
<path class="st0" d="M193.31,242.6c-1.14,0-1.97-0.17-2.87-0.36c-0.45-0.09-0.92-0.2-1.55-0.23c-4.99-0.28-62.44-18.73-73.9-22.42
	c-1.51-0.49-2.33-2.1-1.85-3.6c0.48-1.5,2.1-2.33,3.6-1.85c26.04,8.39,68.74,21.83,72.49,22.16c0.94,0.05,1.67,0.2,2.37,0.34
	c2.31,0.47,4.71,0.96,30.78-9.46c2.99-1.19,5.89-2.28,8.79-3.37c13.08-4.91,25.43-9.55,43.98-23.09c0.03-0.02,0.05-0.04,0.08-0.06
	c1.2-0.9,1.93-2.88,1.86-5.06c-0.07-2.52-1.16-4.75-2.84-5.84c-5.73-3.7-15.58-0.32-22.78,2.14c-1.38,0.47-2.68,0.92-3.87,1.29
	c-4.69,1.47-9.4,3.2-13.96,4.88c-2.81,1.03-5.63,2.06-8.46,3.05c-1.5,0.52-3.12-0.27-3.64-1.76c-0.52-1.49,0.27-3.12,1.76-3.64
	c2.8-0.98,5.58-2,8.36-3.02c4.62-1.7,9.4-3.45,14.22-4.96c1.15-0.36,2.4-0.79,3.73-1.24c8.3-2.84,19.67-6.74,27.73-1.53
	c3.3,2.12,5.34,6.04,5.47,10.48c0.07,2.44-0.45,4.71-1.44,6.58c10.15,5.02,41.16,20.34,47.37,23.25c6.59,3.08,16.02,4.22,21.93,2.67
	c5.75-1.51,5.9-4.29,5.2-7.08c-2.6-4.75-45.76-32.85-59.76-40.79c-17.17-9.75-31.2-16.24-35.75-16.55
	c-2.23-0.11-16.26,3.2-28.59,6.16c-21.24,5.09-47.68,11.38-57.97,11.29c-17.76-0.25-32.32-14.48-32.93-15.09
	c-1.12-1.11-1.13-2.92-0.02-4.04c1.11-1.12,2.92-1.13,4.05-0.02c0.13,0.13,13.57,13.22,28.99,13.43c0.1,0,0.2,0,0.31,0
	c9.82,0,35.54-6.17,56.25-11.13c17.86-4.28,27.31-6.49,30.32-6.3c7.93,0.54,29.35,12.27,38.19,17.28
	c0.6,0.34,60.49,36.41,62.48,44.38c1.73,6.89-1.66,11.99-9.3,14c-7.17,1.89-18.02,0.62-25.81-3.02
	c-6.75-3.15-41.27-20.22-49.16-24.12c-18.46,13.25-31.43,18.12-43.98,22.84c-2.86,1.07-5.73,2.15-8.67,3.33
	C203.5,240.89,196.89,242.6,193.31,242.6 M285.74,249.32h0.03H285.74z M273.76,258.08c2.41,2.26,6.93,5.72,12.05,5.81
	c5-0.02,9.59-3.64,11.99-5.91c-2.4-2.25-6.98-5.8-12-5.8h-0.05C280.72,252.2,276.15,255.81,273.76,258.08 M285.76,269.61
	c-10.03,0-17.84-9.29-18.17-9.69c-0.87-1.05-0.88-2.57-0.01-3.63c0.33-0.4,8.09-9.79,18.15-9.84h0.07c10.03,0,17.84,9.29,18.17,9.68
	c0.87,1.05,0.88,2.57,0.02,3.63c-0.33,0.4-8.09,9.79-18.16,9.84H285.76z M220.15,282.04h0.03H220.15z M208.17,290.81
	c2.4,2.25,6.98,5.8,12,5.8h0.05c5-0.02,9.59-3.64,11.99-5.91c-2.4-2.25-6.98-5.8-12-5.8h-0.05
	C215.17,284.92,210.57,288.53,208.17,290.81 M220.17,302.33c-10.03,0-17.84-9.29-18.17-9.69c-0.87-1.05-0.88-2.57-0.02-3.63
	c0.33-0.4,8.09-9.8,18.16-9.84h0.07c10.03,0,17.84,9.29,18.17,9.68c0.87,1.05,0.88,2.57,0.02,3.63c-0.33,0.4-8.09,9.79-18.16,9.84
	H220.17z M269.76,318.04h0.03H269.76z M257.78,326.82c2.4,2.25,6.98,5.8,12,5.8h0.04c5-0.02,9.6-3.64,11.99-5.92
	c-2.41-2.26-7.02-5.87-12.04-5.79h0C264.77,320.92,260.18,324.54,257.78,326.82 M269.78,338.34c-10.03,0-17.84-9.29-18.17-9.69
	c-0.87-1.05-0.88-2.57-0.02-3.63c0.33-0.4,8.09-9.8,18.15-9.84h0.08c10.03,0,17.83,9.28,18.16,9.68c0.87,1.05,0.88,2.57,0.02,3.63
	c-0.33,0.4-8.09,9.8-18.16,9.85H269.78z M249.13,6.35C114.61,6.35,5.17,115.79,5.17,250.32c0,134.52,109.44,243.96,243.96,243.96
	s243.96-109.44,243.96-243.96C493.09,115.79,383.65,6.35,249.13,6.35 M249.13,500C111.45,500-0.55,387.99-0.55,250.32
	c0-137.68,112.01-249.68,249.68-249.68s249.68,112.01,249.68,249.68C498.81,387.99,386.81,500,249.13,500"/>
</svg>
