<?xml version="1.0" encoding="utf-8"?>
<!-- Generator: Adobe Illustrator 26.0.1, SVG Export Plug-In . SVG Version: 6.00 Build 0)  -->
<svg version="1.1" id="Layer_1" xmlns="http://www.w3.org/2000/svg" xmlns:xlink="http://www.w3.org/1999/xlink" x="0px" y="0px"
	 viewBox="0 0 500 500" style="enable-background:new 0 0 500 500;" xml:space="preserve">
<style type="text/css">
	.st0{fill:#FFC600;}
</style>
<path class="st0" d="M245.65,221.51c2.93,7.88,5.72,15.85,7.7,23.88c2.01-8.17,4.84-16.23,7.76-24.07c0.02-0.06,0.05-0.13,0.07-0.19
	c-0.13-0.3-0.22-0.62-0.24-0.97c-1.18-16.85-3.54-34.93-5.82-52.41c-0.67-5.11-1.35-10.3-1.99-15.47
	c-1.77,13.08-3.86,29.7-5.09,43.34c-1,11.15-1.67,18.52-2.05,24.7C245.96,220.76,245.84,221.16,245.65,221.51 M231.03,240.99
	c0.75,0.8,1.52,1.61,2.31,2.42c7.23,7.43,13.18,16.24,17.15,22.83c-0.14-16.12-6.34-32.57-12.37-48.57c-1-2.64-1.98-5.26-2.93-7.86
	c-5.93-16.19-9.66-31.33-11.24-45.77c-4.42,22.32-6.08,45.71,0.52,69.6c0.14,0.17,0.28,0.33,0.42,0.5
	C227.07,236.48,229.11,238.76,231.03,240.99 M256.2,266.17c0,0.27,0,0.54,0,0.81c3.69-6.21,9.25-14.61,16.06-21.97
	c3.01-3.65,6.28-7.39,9.93-11.31c7.03-25.33,4.74-50.12-0.28-73.66c-2.59,18.04-7.69,42.34-10.41,49.76
	c-0.93,2.54-1.89,5.1-2.86,7.68c-0.73,1.93-1.46,3.87-2.18,5.82C261.28,237.23,256.35,251.84,256.2,266.17 M196.61,191.59
	c1.01,23.95,6.17,44.4,20.52,62.4c7.71,9.68,17,15.58,30.31,19.05c-6.22-9.85-12.4-18.67-20.66-28.25c-2.17-2.31-4.22-4.6-6.14-6.87
	c-0.26-0.28-0.51-0.56-0.78-0.83c-0.18-0.19-0.32-0.39-0.44-0.62c-9.72-11.72-16.11-22.9-19.8-34.51
	C198.52,198.53,197.53,195.05,196.61,191.59 M259.67,272.37c-0.15,0.27-0.3,0.54-0.45,0.8c13.57-3.46,22.98-9.38,30.78-19.17
	c14.35-18.01,19.51-38.46,20.52-62.42c-0.91,3.47-1.91,6.95-3,10.39c-4.82,15.15-14.24,29.58-29.64,45.42
	c-0.44,0.45-0.87,0.9-1.3,1.37C270.11,256.63,264.88,264.15,259.67,272.37 M253.79,280.13c-0.07,0-0.15,0-0.23-0.01
	c-0.25,0.02-0.5,0.01-0.76-0.04c-18.31-3.47-30.31-10.2-40.14-22.54c-20.15-25.3-23.2-54.65-21.58-90.94
	c0.06-1.44,1.19-2.6,2.63-2.71c1.39-0.12,2.72,0.87,3.01,2.28c2.09,10.41,4.63,22.49,8.31,34.07c2.41,7.57,6.07,14.98,11.18,22.54
	c-4.81-28.3,0.43-55.54,7.06-81.01c0.37-1.41,1.77-2.31,3.18-2.1c1.44,0.22,2.49,1.48,2.43,2.94c-0.87,20.15,2.94,41.49,11.64,65.24
	c0.19,0.51,0.37,1.02,0.56,1.53c0.34-4.03,0.76-8.67,1.26-14.27c2.43-26.93,8.19-65.34,8.24-65.72c0.21-1.4,1.41-2.43,2.82-2.43
	c0.02,0,0.05,0,0.07,0c1.44,0.03,2.62,1.14,2.76,2.57c1.2,12.1,2.88,25.01,4.51,37.49c1.81,13.9,3.67,28.17,4.96,41.95
	c0.14-0.38,0.27-0.75,0.41-1.12c3.49-9.51,12.13-53.85,11.64-65.24c-0.06-1.45,0.98-2.72,2.42-2.94c1.42-0.21,2.82,0.69,3.18,2.1
	c6.7,25.74,11.98,53.29,6.91,81.9c5.42-7.87,9.28-15.56,11.78-23.43c3.67-11.56,6.22-23.65,8.31-34.07
	c0.29-1.41,1.58-2.39,3.02-2.28c1.44,0.11,2.56,1.27,2.63,2.71c1.62,36.29-1.42,65.65-21.58,90.94
	c-9.82,12.33-21.83,19.07-40.14,22.54C254.14,280.11,253.97,280.13,253.79,280.13 M247.82,362.68c-3.38,0-12.74-2.2-29.78-6.29
	c-20.62-4.94-46.24-11.09-56.03-11.09c-0.11,0-0.21,0-0.31,0c-15.35,0.22-28.74,13.25-28.87,13.38c-1.12,1.11-2.93,1.09-4.03-0.02
	c-1.11-1.12-1.1-2.92,0.02-4.03c0.61-0.6,15.12-14.78,32.8-15.03c0.11,0,0.23,0,0.35,0c10.5,0,36.48,6.23,57.39,11.24
	c12.29,2.94,26.19,6.24,28.48,6.13c4.53-0.31,18.51-6.78,35.61-16.49c13.94-7.91,56.92-35.89,59.61-40.88
	c0.61-2.52,0.46-5.3-5.27-6.81c-5.89-1.55-15.29-0.4-21.84,2.66c-6.18,2.89-37.07,18.15-47.18,23.15c0.99,1.86,1.51,4.13,1.44,6.55
	c-0.13,4.42-2.16,8.33-5.44,10.44c-8.03,5.18-19.36,1.3-27.63-1.53c-1.32-0.45-2.56-0.88-3.7-1.24c-4.8-1.5-9.58-3.26-14.19-4.95
	c-2.76-1.01-5.53-2.03-8.3-3c-1.48-0.52-2.27-2.14-1.75-3.63c0.52-1.49,2.14-2.27,3.63-1.75c2.81,0.98,5.6,2,8.4,3.03
	c4.55,1.67,9.25,3.4,13.92,4.86c1.19,0.37,2.48,0.81,3.85,1.28c7.17,2.46,16.99,5.81,22.69,2.14c1.68-1.08,2.76-3.31,2.84-5.82
	c0.06-2.17-0.67-4.14-1.86-5.03c-0.03-0.02-0.05-0.04-0.08-0.06c-18.47-13.48-30.78-18.1-43.8-22.99c-2.89-1.09-5.79-2.17-8.76-3.36
	c-25.97-10.39-28.35-9.9-30.65-9.42c-0.7,0.14-1.42,0.29-2.38,0.34c-3.72,0.33-46.25,13.71-72.18,22.07
	c-1.49,0.49-3.1-0.34-3.59-1.84c-0.48-1.5,0.34-3.1,1.84-3.59c11.42-3.68,68.63-22.05,73.61-22.33c0.62-0.04,1.09-0.14,1.54-0.23
	c3.7-0.76,6.37-1.31,33.92,9.72c2.94,1.17,5.8,2.25,8.65,3.32c12.51,4.7,25.42,9.55,43.8,22.74c7.85-3.88,42.23-20.89,48.96-24.03
	c7.75-3.62,18.56-4.89,25.71-3.01c7.6,2,10.98,7.08,9.26,13.95c-1.99,7.95-61.64,43.86-62.24,44.2c-8.8,5-30.13,16.68-38.04,17.22
	C248.1,362.67,247.97,362.68,247.82,362.68 M250,6.33c-133.98,0-242.98,109-242.98,242.98c0,133.98,109,242.98,242.98,242.98
	c133.98,0,242.98-109,242.98-242.98C492.99,115.33,383.98,6.33,250,6.33 M250,498C112.88,498,1.32,386.44,1.32,249.32
	C1.32,112.19,112.88,0.63,250,0.63c137.12,0,248.68,111.56,248.68,248.68C498.69,386.44,387.12,498,250,498"/>
</svg>
