<?xml version="1.0" encoding="utf-8"?>
<!-- Generator: Adobe Illustrator 26.0.1, SVG Export Plug-In . SVG Version: 6.00 Build 0)  -->
<svg version="1.1" id="Layer_1" xmlns="http://www.w3.org/2000/svg" xmlns:xlink="http://www.w3.org/1999/xlink" x="0px" y="0px"
	 viewBox="0 0 500 500" style="enable-background:new 0 0 500 500;" xml:space="preserve">
<style type="text/css">
	.st0{fill:#FFC600;}
</style>
<path class="st0" d="M226.96,98.61l0.03,11.86l43.33-0.09l-0.05-11.89L226.96,98.61z M290.36,116.61c0,0.03,0.01,0.06,0.01,0.09
	C290.36,116.65,290.36,116.62,290.36,116.61 M207.04,116.89c0,0.01-0.01,0.03-0.01,0.07C207.04,116.93,207.04,116.91,207.04,116.89
	 M292,118.11c0.01,0,0.01,0,0.01,0L292,118.11z M205.46,118.48l-0.05,0.01C205.42,118.49,205.44,118.49,205.46,118.48
	 M301.39,347.07h0.03H301.39z M204.45,398.85L204.45,398.85L204.45,398.85z M204.24,398.26c6.3,0.82,39.08,1.38,45.72,1.42
	c3.66-0.04,39.01-0.89,45.62-1.81c0.78-3.14,1.28-14.88,1.74-26.76l0.31-8.23c0.17-3.61,0.5-9.23,0.9-15.98l0.03-0.57
	c1.04-17.64,2.47-41.79,2.4-57.37c-0.05-13.69-0.6-42.68-1.04-65.97l-0.05-2.74c-0.25-13.3-0.47-25.1-0.57-32.14
	c-0.25-17.88-7.36-61.86-8.73-70.15l-12.4-1.31l-5.63,0.01h-0.01c-0.63,0-1.23-0.21-1.71-0.57l-44.57,0.09
	c-0.5,0.44-1.15,0.7-1.86,0.7l-5.28,0.03l-12.3,1.41c-1.33,8.53-8.01,52.43-8.1,70.23c-0.05,6.64-0.15,17.52-0.28,29.9
	c-0.28,28.16-0.56,56.83-0.5,70.94c0.07,15.58,1.77,40.74,2.9,57.38l0.07,1c0.46,6.55,0.83,12.01,1.01,15.49
	c0.13,2.34,0.25,5,0.37,7.81C202.85,383.65,203.43,395.17,204.24,398.26 M249.95,405.39c-0.45,0-45.85-0.29-48.98-2.15
	c-2.62-1.54-3.13-3.83-4.42-31.9c-0.12-2.79-0.23-5.42-0.36-7.75c-0.18-3.47-0.55-8.9-1-15.41l-0.07-1.01
	c-1.13-16.72-2.83-41.98-2.91-57.74c-0.05-14.15,0.22-42.84,0.5-71.02c0.13-12.38,0.23-23.25,0.28-29.88
	c0.1-20.16,8.31-72.04,8.39-72.52c0.23-1.67,1.64-3.02,3.4-3.19l13.83-1.58c0.1-0.01,0.21-0.02,0.31-0.02l2.34-0.01l-0.04-15.42
	c0-1.58,1.27-2.86,2.85-2.87l49.02-0.13h0.01c1.58,0,2.85,1.27,2.86,2.85l0.07,15.32l2.28-0.01c-0.05-0.02,0.2,0.01,0.3,0.02
	l13.97,1.47c1.75,0.18,3.15,1.52,3.4,3.26c0.07,0.33,8.74,52.08,9.03,72.35c0.1,7.03,0.32,18.82,0.57,32.11l0.05,2.73
	c0.44,23.31,0.98,52.33,1.04,66.05c0.07,15.75-1.36,40.01-2.41,57.73l-0.03,0.57v0c-0.4,6.72-0.72,12.33-0.9,15.89l-0.31,8.19
	c-1.05,27.68-1.54,29.94-4.13,31.5C295.77,404.71,250.4,405.39,249.95,405.39 M249.45,6.06C115,6.06,5.62,115.44,5.62,249.89
	c0,134.45,109.38,243.83,243.83,243.83c134.45,0,243.83-109.38,243.83-243.83C493.28,115.44,383.9,6.06,249.45,6.06 M249.45,499.44
	C111.85,499.44-0.1,387.49-0.1,249.89c0-137.6,111.95-249.55,249.55-249.55C387.05,0.34,499,112.29,499,249.89
	C499,387.49,387.05,499.44,249.45,499.44"/>
</svg>
