<?xml version="1.0" encoding="utf-8"?>
<!-- Generator: Adobe Illustrator 26.0.1, SVG Export Plug-In . SVG Version: 6.00 Build 0)  -->
<svg version="1.1" id="Layer_1" xmlns="http://www.w3.org/2000/svg" xmlns:xlink="http://www.w3.org/1999/xlink" x="0px" y="0px"
	 viewBox="0 0 500 500" style="enable-background:new 0 0 500 500;" xml:space="preserve">
<style type="text/css">
	.st0{fill:#FFC600;}
	.st1{fill:none;stroke:#FFC600;stroke-width:5.1564;stroke-linecap:round;stroke-linejoin:round;stroke-miterlimit:10;}
</style>
<g>
	<path class="st0" d="M250,499.97C112.16,499.97,0.02,387.83,0.02,250C0.02,112.16,112.16,0.03,250,0.03
		c137.83,0,249.97,112.14,249.97,249.97C499.98,387.83,387.84,499.97,250,499.97 M250,5.75C115.32,5.75,5.75,115.32,5.75,250
		c0,134.68,109.57,244.25,244.25,244.25c134.68,0,244.25-109.57,244.25-244.25C494.25,115.32,384.68,5.75,250,5.75"/>
	<path class="st1" d="M156.95,249.8c0,0,12.55-14.91,39.23-10.02 M166.39,265.18c0,0,15.97-1.42,22.6-9.41 M132.44,186.28
		c0,0-6.67,33.51,5.53,58.65c7.43,12.3,7.94,20.32,4.17,31.52c-3.78,11.2-14.73,26.65-4.75,29.89c9.97,3.23,17.45,2.07,15.29,11.2
		c-2.16,9.14-3.27,13.27,8.75,15.51c-2.96,11.27,2.24,10.22,4.72,10.76c2.47,0.54,7.25,7.5,7.77,12.85
		c0.52,5.34,4.75,16.56,26.67,8.09c21.92-8.47,37.8-13.75,41.32-5.2"/>
	<path class="st0" d="M244.21,104.15c-38.54,0-73.59,15.12-99.61,39.7c-3.04,4.76-5.97,10.06-7.98,15.29
		c25.79-30.71,64.44-50.27,107.59-50.27c77.46,0,140.48,63.02,140.48,140.48c0,77.47-63.02,140.48-140.48,140.48
		c-13.37,0-26.28-1.91-38.53-5.41c-2.36,1-4.6,1.97-6.68,2.89c14.23,4.68,29.43,7.24,45.21,7.24c80.06,0,145.2-65.14,145.2-145.2
		C389.41,169.29,324.27,104.15,244.21,104.15"/>
	<path class="st1" d="M190.11,117.68c0,0,39.74-3.72,70.3,26.35 M164.56,130.93c0,0,39.75-3.72,70.3,26.35 M142.36,149.82
		c0,0,39.74-3.72,70.3,26.35 M340.54,260.7c0,0,44.6,88.61-34.04,114.92 M311.07,269.5c0,0,42.64,91.59-20.94,114.92 M280.18,277.04
		c0,0,43.89,85.11-34.04,114.92 M205.68,384.42c106.32-41.95,40.46-162.32-33.85-178.64c-74.32-16.32-24.03-61.74-24.03-61.74"/>
</g>
</svg>
