<?xml version="1.0" encoding="utf-8"?>
<!-- Generator: Adobe Illustrator 26.0.1, SVG Export Plug-In . SVG Version: 6.00 Build 0)  -->
<svg version="1.1" id="Layer_1" xmlns="http://www.w3.org/2000/svg" xmlns:xlink="http://www.w3.org/1999/xlink" x="0px" y="0px"
	 viewBox="0 0 500 500" style="enable-background:new 0 0 500 500;" xml:space="preserve">
<style type="text/css">
	.st0{fill:#FFC600;}
</style>
<path class="st0" d="M177.99,135.08h14.32v-25.05h-14.32V135.08z M198.03,135.08h16.69v-25.05h-16.69V135.08z M220.44,135.08h13.74
	v-25.05h-13.74V135.08z M224.24,199.86c-0.27,0-0.51,0.24-0.51,0.51v9.07c0,0.27,0.24,0.51,0.51,0.51h81.22
	c0.27,0,0.51-0.24,0.51-0.51v-9.07c0-0.27-0.24-0.51-0.51-0.51H224.24z M216.73,237.97L216.73,237.97L216.73,237.97z M313.48,237.98
	c0,0.01,0,0.01,0,0.02L313.48,237.98z M278.54,249.42c-1.97,0-3.58,1.58-3.58,3.53v5.06c0,1.94,1.61,3.53,3.58,3.53h74.24
	c1.97,0,3.58-1.58,3.58-3.53v-5.06c0-1.94-1.61-3.53-3.58-3.53H278.54z M331.06,275.55h11.65c0.59,0,1.09-0.5,1.09-1.09v-5.9
	c0-0.59-0.5-1.09-1.09-1.09H288.6c-0.59,0-1.09,0.5-1.09,1.09v5.9c0,0.59,0.5,1.09,1.09,1.09H331.06z M268.65,310.09h94.01
	c-1.35-16.11-15-28.81-31.6-28.81h-30.82C283.65,281.28,269.99,293.98,268.65,310.09 M268.54,354.72h94.23v-38.91h-94.23V354.72z
	 M146.12,375.81h72.25c-4.8-4.32-7.83-10.55-7.87-17.48c-0.2-37.72-0.4-103.55,0.5-120.66c0.09-1.67,1.34-3.22,5.27-7.89
	c2.42-2.86,5.42-6.42,6.95-8.98c1.26-2.12,1.96-3.86,2.35-5.12h-1.34c-3.44,0-6.24-2.8-6.24-6.24v-9.07c0-3.44,2.8-6.24,6.24-6.24
	h41.81v-30.66c0-12.5-10.17-22.67-22.67-22.67h-74.11c-12.77,0-23.15,10.39-23.15,23.15V375.81z M230.56,375.81h32.61
	c-0.23-0.8-0.35-1.64-0.35-2.5V312.7c0-14.64,8.58-27.33,21.01-33.38c-1.26-1.24-2.04-2.96-2.04-4.86v-5.9
	c0-0.44,0.04-0.87,0.12-1.29h-3.36c-5.13,0-9.31-4.15-9.31-9.25v-5.06c0-5.1,4.17-9.25,9.31-9.25h35.25
	c-0.06-0.21-0.09-0.44-0.1-0.67c-0.05-2.55-0.07-2.91-0.13-3.74l-0.05-0.86c-0.56-0.91-2.5-3.21-3.95-4.93
	c-2.69-3.18-5.74-6.79-7.5-9.77c-1.83-3.09-2.74-5.62-3.2-7.41h-67.51c-0.45,1.78-1.36,4.32-3.19,7.41
	c-1.77,2.97-4.81,6.57-7.49,9.76c-1.45,1.71-3.39,4.01-3.95,4.93c-0.87,17.64-0.67,82.55-0.48,119.89
	C216.27,366.91,222.43,374.11,230.56,375.81 M270.68,376.43c0.4,0.16,0.83,0.24,1.27,0.24h85.13c3.14,0,5.69-2.52,5.69-5.62v-10.61
	h-94.23v12.87c0,0.7,0.22,1.37,0.64,1.95c0.21,0.28,0.45,0.53,0.72,0.73C270.19,376.09,270.45,376.24,270.68,376.43 M357.08,382.4
	h-85.13c-1,0-1.99-0.17-2.92-0.48c-0.04,0-0.08,0-0.12,0h-34.67c-1.45,0-2.86-0.13-4.24-0.38h-86.75c-1.58,0-2.86-1.28-2.86-2.86
	V163.95c0-15.92,12.95-28.88,28.88-28.88h2.99v-27.92c0-1.58,1.28-2.86,2.86-2.86h61.92c1.58,0,2.86,1.28,2.86,2.86v27.92h3.47
	c15.66,0,28.4,12.74,28.4,28.39v30.66h33.69c3.44,0,6.24,2.8,6.24,6.24v9.07c0,3.44-2.8,6.24-6.24,6.24h-0.83
	c0.39,1.25,1.09,3,2.35,5.12c1.53,2.57,4.54,6.13,6.95,8.99c3.93,4.65,5.18,6.2,5.27,7.87l0.07,1.26c0.05,0.88,0.08,1.26,0.13,3.97
	c0.01,0.28-0.03,0.54-0.09,0.8h33.46c5.13,0,9.31,4.15,9.31,9.25v5.06c0,5.1-4.17,9.25-9.31,9.25h-3.37
	c0.08,0.42,0.12,0.85,0.12,1.29v5.9c0,1.9-0.78,3.63-2.04,4.86c12.43,6.05,21.01,18.74,21.01,33.38v58.35
	C368.5,377.31,363.38,382.4,357.08,382.4 M250.13,5.69C115.52,5.69,6,115.21,6,249.83c0,134.62,109.52,244.14,244.14,244.14
	c134.62,0,244.14-109.52,244.14-244.14C494.27,115.21,384.75,5.69,250.13,5.69 M250.13,499.69C112.36,499.69,0.27,387.6,0.27,249.83
	C0.27,112.05,112.36-0.04,250.13-0.04S500,112.05,500,249.83C500,387.6,387.91,499.69,250.13,499.69"/>
</svg>
