<?xml version="1.0" encoding="utf-8"?>
<!-- Generator: Adobe Illustrator 26.0.1, SVG Export Plug-In . SVG Version: 6.00 Build 0)  -->
<svg version="1.1" id="Layer_1" xmlns="http://www.w3.org/2000/svg" xmlns:xlink="http://www.w3.org/1999/xlink" x="0px" y="0px"
	 viewBox="0 0 500 500" style="enable-background:new 0 0 500 500;" xml:space="preserve">
<style type="text/css">
	.st0{fill:#FFC600;}
</style>
<g>
	<path class="st0" d="M242.84,372.42c2.1,5.66,4.11,11.37,5.65,17.13c1.58-5.92,3.64-11.76,5.76-17.45
		c-0.08-0.24-0.13-0.49-0.15-0.75c-0.96-13.64-2.87-28.29-4.72-42.45c-0.36-2.77-0.72-5.56-1.08-8.36
		c-1.29,9.81-2.69,21.29-3.56,30.93c-0.81,9.04-1.35,15.01-1.66,20.01C243.04,371.8,242.96,372.13,242.84,372.42 M230.78,387.79
		c0.61,0.65,1.24,1.31,1.88,1.97c5.27,5.42,9.71,11.74,12.9,16.85c-0.58-12.32-5.32-24.9-9.93-37.14c-0.81-2.15-1.61-4.27-2.38-6.38
		c-4.35-11.87-7.24-23.04-8.71-33.75c-3.05,16.94-3.92,34.61,1.03,52.61c0.09,0.11,0.19,0.23,0.28,0.33
		C227.6,384.17,229.23,386,230.78,387.79 M271.72,325.68c-2.21,14.24-5.94,31.79-8,37.42c-0.79,2.13-1.6,4.3-2.42,6.47l-1.68,4.47
		c-4.01,10.8-7.84,22.11-8.24,33.2c2.97-4.82,7.09-10.81,12.02-16.15c2.42-2.94,5.04-5.94,7.98-9.09
		C276.7,362.68,275.32,343.75,271.72,325.68 M203.35,353.23c1.32,17.13,5.7,31.97,16.21,45.15c5.91,7.42,12.97,12.06,22.92,14.88
		c-4.78-7.5-9.62-14.3-15.96-21.66c-1.75-1.85-3.39-3.69-4.94-5.51c-0.21-0.23-0.43-0.46-0.65-0.69c-0.16-0.18-0.3-0.37-0.42-0.58
		c-7.9-9.54-13.1-18.65-16.11-28.11C204.04,355.56,203.69,354.39,203.35,353.23 M267.73,394.83c-5.09,6.2-9.22,12.12-13.32,18.56
		c10.18-2.81,17.37-7.48,23.36-15.01c10.5-13.19,14.89-28.02,16.21-45.15c-0.34,1.16-0.69,2.32-1.06,3.48
		c-3.93,12.37-11.61,24.14-24.16,37.03C268.41,394.1,268.07,394.46,267.73,394.83 M248.85,420.45c-0.06,0-0.12,0-0.19-0.01
		c-0.23,0.01-0.48,0-0.71-0.04c-14.78-2.79-24.92-8.49-32.86-18.46c-16.44-20.63-18.93-44.54-17.61-74.08
		c0.07-1.44,1.19-2.61,2.63-2.72c1.44-0.1,2.74,0.87,3.02,2.29c1.69,8.43,3.75,18.21,6.72,27.56c1.71,5.38,4.21,10.66,7.6,16.01
		c-3.21-22.13,0.93-43.42,6.13-63.38c0.37-1.41,1.78-2.32,3.19-2.11c1.45,0.22,2.49,1.49,2.43,2.95
		c-0.69,15.96,2.27,32.85,9.02,51.6c0.23-2.67,0.5-5.67,0.81-9.11c1.97-21.84,6.64-53,6.68-53.31c0.21-1.4,1.41-2.43,2.83-2.43
		c0.02,0,0.05,0,0.07,0c1.44,0.04,2.63,1.14,2.77,2.57c0.97,9.8,2.34,20.26,3.65,30.37c1.36,10.43,2.76,21.13,3.79,31.53
		c3.05-9.95,9.29-42.53,8.92-51.22c-0.06-1.46,0.99-2.73,2.43-2.95c1.42-0.22,2.82,0.69,3.19,2.11c5.26,20.18,9.43,41.72,6.02,64.12
		c3.64-5.61,6.29-11.13,8.08-16.75c2.97-9.35,5.03-19.13,6.73-27.56c0.28-1.42,1.58-2.4,3.02-2.29c1.44,0.11,2.57,1.28,2.63,2.72
		c1.06,23.82,0.66,51.14-17.61,74.08c-7.94,9.98-18.08,15.67-32.86,18.46C249.2,420.44,249.02,420.45,248.85,420.45 M250.61,6.99
		C116.26,6.99,6.97,116.29,6.97,250.64c0,134.35,109.3,243.65,243.64,243.65c134.35,0,243.65-109.3,243.65-243.65
		C494.25,116.29,384.96,6.99,250.61,6.99 M250.61,500C113.11,500,1.25,388.14,1.25,250.64c0-137.5,111.86-249.36,249.36-249.36
		s249.36,111.86,249.36,249.36C499.97,388.14,388.11,500,250.61,500"/>
	<path class="st0" d="M121.03,240.71h0.03H121.03z M148.12,246.32c10.1,0,20.61,0.22,31.69,0.65c12.58,0.5,25.09,1.25,37.23,2.26
		c0.38-2.25,0.59-4.55,0.63-6.85c0.43-25.64-20.06-46.84-45.68-47.28c-12.45-0.15-24.18,4.43-33.11,13.05
		c-8.93,8.63-13.96,20.21-14.17,32.63v0.01c-0.04,1.97,0.05,3.96,0.27,5.94C132.48,246.46,140.17,246.32,148.12,246.32
		 M219.99,256.85c-0.11,0-0.21,0-0.32-0.01c-13.04-1.13-26.55-1.97-40.15-2.51c-20.89-0.81-39.73-0.85-57.58-0.12
		c-1.84,0.02-3.45-1.22-3.77-3.03c-0.62-3.49-0.9-7.03-0.83-10.53c0.24-14.37,6.06-27.79,16.41-37.79
		c10.34-9.99,23.93-15.37,38.34-15.11c29.68,0.51,53.42,25.07,52.92,54.76c-0.07,3.89-0.55,7.77-1.45,11.52
		C223.17,255.69,221.68,256.85,219.99,256.85"/>
	<path class="st0" d="M372.79,279.4c-24.89,0-50.13-4.95-74.84-9.79c-5.64-1.11-11.25-2.21-16.84-3.24
		c-69.42-12.89-140.24-15.78-210.49-8.6c-1.56,0.15-2.97-0.98-3.13-2.55c-0.16-1.57,0.98-2.97,2.55-3.13
		c70.79-7.24,142.15-4.32,212.11,8.66c5.6,1.04,11.24,2.14,16.89,3.25c38.18,7.48,77.66,15.22,114.35,4.11
		c1.51-0.46,3.11,0.4,3.56,1.91c0.46,1.51-0.4,3.11-1.91,3.56C401.2,277.78,387.05,279.4,372.79,279.4"/>
	<path class="st0" d="M118.7,293.65c-1.36,0-2.59-0.94-2.91-2.32c-0.37-1.61,0.63-3.21,2.24-3.58c39.53-9.12,88.47-9.36,135.25-8.83
		l3.22,0.03c45.12,0.52,91.77,1.05,132.08-6.5c1.63-0.3,3.19,0.77,3.49,2.39c0.3,1.62-0.76,3.18-2.39,3.49
		c-40.89,7.66-87.84,7.12-133.25,6.61l-3.22-0.03c-46.4-0.53-94.94-0.29-133.83,8.68C119.15,293.62,118.92,293.65,118.7,293.65"/>
	<path class="st0" d="M257.18,262.4c-1.49,0-2.75-1.16-2.85-2.67c-0.1-1.57,1.09-2.93,2.67-3.04
		c47.37-3.08,93.62-17.03,138.34-30.52c1.52-0.46,3.11,0.4,3.56,1.91c0.46,1.51-0.4,3.11-1.91,3.56
		c-45.03,13.58-91.6,27.62-139.62,30.75C257.31,262.4,257.24,262.4,257.18,262.4"/>
	<path class="st0" d="M173.82,178.37c-2.03,0-3.68-1.65-3.68-3.68v-12.86c0-2.03,1.65-3.68,3.68-3.68s3.68,1.65,3.68,3.68v12.86
		C177.49,176.72,175.85,178.37,173.82,178.37 M137.59,186.41c-1.13,0-2.24-0.52-2.97-1.5L127,174.55c-1.2-1.64-0.85-3.94,0.78-5.14
		c1.64-1.21,3.94-0.86,5.15,0.78l7.62,10.36c1.2,1.64,0.85,3.94-0.78,5.14C139.11,186.17,138.34,186.41,137.59,186.41
		 M208.11,187.45c-0.78,0-1.56-0.25-2.23-0.75c-1.62-1.23-1.93-3.54-0.69-5.16l7.8-10.22c1.23-1.61,3.54-1.93,5.16-0.69
		c1.61,1.23,1.93,3.54,0.69,5.16l-7.8,10.22C210.31,186.95,209.22,187.45,208.11,187.45 M114.84,206.41c-0.57,0-1.15-0.13-1.68-0.41
		l-11.42-5.9c-1.81-0.93-2.51-3.15-1.58-4.96c0.93-1.81,3.16-2.51,4.96-1.58l11.42,5.9c1.81,0.93,2.51,3.15,1.58,4.96
		C117.46,205.68,116.17,206.41,114.84,206.41 M230.38,210.68c-1.49,0-2.9-0.92-3.45-2.4c-0.71-1.9,0.27-4.02,2.17-4.73l12.06-4.47
		c1.91-0.7,4.02,0.27,4.73,2.17s-0.27,4.02-2.17,4.73l-12.06,4.47C231.23,210.61,230.8,210.68,230.38,210.68 M105.13,236.18H92.27
		c-2.03,0-3.68-1.65-3.68-3.68s1.65-3.68,3.68-3.68h12.86c2.03,0,3.68,1.65,3.68,3.68S107.16,236.18,105.13,236.18 M250.98,242.25
		h-12.86c-2.03,0-3.68-1.65-3.68-3.68c0-2.03,1.65-3.68,3.68-3.68h12.86c2.03,0,3.68,1.65,3.68,3.68
		C254.66,240.6,253.01,242.25,250.98,242.25"/>
</g>
</svg>
